<?xml version="1.0" encoding="utf-8"?>
<!-- Generator: Adobe Illustrator 22.0.0, SVG Export Plug-In . SVG Version: 6.00 Build 0)  -->
<svg version="1.1" id="Capa_1" xmlns="http://www.w3.org/2000/svg" xmlns:xlink="http://www.w3.org/1999/xlink" x="0px" y="0px"
	 viewBox="0 0 932 553" style="enable-background:new 0 0 932 553;" xml:space="preserve">
<style type="text/css">
	.st0{fill:#0F58D8;}
	.st1{fill:#636363;}
	.st2{fill:#FFFFFF;}
	.st3{fill:none;}
	.st4{fill-rule:evenodd;clip-rule:evenodd;fill:#4D4D4D;}
</style>
<g>
	<g>
		<path class="st0" d="M196.9,444.2c-1,0-1.8-0.3-2.4-0.9c-0.6-0.7-0.9-1.7-0.8-3.1l-0.5-38.8l-64.3,0l-26.3,39.4
			c-1.5,2.3-3.2,3.4-5,3.4h-7.8c-1.2,0-2-0.4-2.3-1.1c-0.6-1.1,0.2-2.5,0.8-3.4l100.2-153.9c1.3-2.2,3.1-3.4,5.3-3.4l11.8,0
			c2.2,0,3.4,1.4,3.5,3.9l-0.4,153.9c-0.3,3.4-2.4,3.9-3.7,3.9H196.9z M193.5,388.3l1-89.7l-57.3,89.7L193.5,388.3z"/>
		<path class="st0" d="M97.6,443.2l-7.8,0c-1.8,0-2.1-1-0.8-3l100.2-153.9c1.2-2,2.6-3,4.5-3l11.8,0c1.7,0,2.5,1,2.5,3l-0.4,153.9
			c-0.1,2-1.1,3-2.7,3l-8,0c-1.7,0-2.4-1-2.3-3l-0.5-39.8l-65.7,0l-26.5,39.8C100.5,442.2,99.1,443.2,97.6,443.2z M194.5,297
			l-59,92.3l58.9,0l1.1-92.3L194.5,297z"/>
		<path class="st0" d="M305.9,444.5c-2.5,0-4.4-1.2-5.4-3.6l-29.2-62.4h-38.9c-1.3,0-1.6,0.5-1.6,1.3v60.7c0,2.5-1.3,3.9-3.7,3.9
			h-7.2c-1,0-3.4-0.4-3.4-3.9V286c0-3.6,2.4-3.9,3.4-3.9h56.9c11,0,19.9,3.3,26.4,9.8c6.5,6.5,9.8,15.4,9.8,26.6v23.7
			c0,9.5-2.5,17.4-7.3,23.6c-4.7,6-11.2,9.9-19.2,11.7v0l29.6,62.7c0.7,1.3,0.7,2.4,0.2,3.2c-0.5,0.8-1.4,1.2-2.8,1.2H305.9z
			 M232.4,295.2c-1.3,0-1.6,0.5-1.6,1.3v68.2c0,0.8,0.3,1.3,1.6,1.3h43.2c7.4,0,13.1-2,17.1-6.1c4-4,6-9.9,6-17.4V319
			c0-7.5-2-13.4-6-17.6c-4-4.1-9.7-6.2-17.1-6.2H232.4z"/>
		<path class="st0" d="M227.2,443.6h-7.2c-1.7,0-2.5-1-2.5-3V286c0-2,0.8-3,2.5-3h56.9c10.8,0,19.4,3.2,25.7,9.5
			c6.3,6.3,9.5,15,9.5,26v23.7c0,9.3-2.4,17-7.1,23c-4.7,6-11.2,9.8-19.4,11.5v1l29.7,62.9c1,2,0.4,3-1.7,3h-7.7c-2.2,0-3.7-1-4.5-3
			l-29.5-62.9h-39.5c-1.7,0-2.5,0.7-2.5,2.2v60.7C229.9,442.6,229,443.6,227.2,443.6z M232.4,366.9h43.2c7.7,0,13.6-2.1,17.7-6.4
			c4.2-4.2,6.2-10.3,6.2-18.1V319c0-7.8-2.1-13.9-6.2-18.2c-4.2-4.3-10.1-6.5-17.7-6.5h-43.2c-1.7,0-2.5,0.7-2.5,2.2v68.2
			C229.9,366.2,230.8,366.9,232.4,366.9z"/>
		<path d="M347.3,444.5c-1,0-3.4-0.4-3.4-3.9V271c0-3.5,2.4-3.9,3.4-3.9h7.2c2.3,0,3.7,1.4,3.7,3.9v169.6c0,2.5-1.3,3.9-3.7,3.9
			H347.3z"/>
		<path d="M354.5,443.6h-7.2c-1.7,0-2.5-1-2.5-3V271c0-2,0.8-3,2.5-3h7.2c1.8,0,2.7,1,2.7,3v169.6
			C357.3,442.6,356.4,443.6,354.5,443.6z"/>
		<path d="M420,444.5c-11,0-19.9-3.3-26.3-9.8c-6.4-6.5-9.6-15.4-9.6-26.6v-56.4c0-11.2,3.2-20.1,9.6-26.6
			c6.4-6.5,15.2-9.8,26.3-9.8h21.5c11,0,19.9,3.3,26.4,9.8c6.5,6.5,9.8,15.4,9.8,26.6v31.7c0,2.5-1.4,3.9-3.9,3.9h-73.9
			c-1,0-1.3,0.3-1.3,1.3v19.2c0,7.5,1.9,13.4,5.7,17.5c3.8,4,9.4,6.1,16.8,6.1h51.2c2.3,0,3.7,1.3,3.7,3.7v5.7
			c0,2.3-1.3,3.7-3.7,3.7H420z M420.9,328.4c-7.4,0-13,2-16.8,6.1c-3.8,4-5.7,9.9-5.7,17.5v22.2c0,1,0.3,1.3,1.3,1.3h62.2
			c1,0,1.3-0.3,1.3-1.3v-22.2c0-7.5-1.9-13.4-5.7-17.5c-3.8-4-9.4-6.1-16.8-6.1H420.9z"/>
		<path d="M472.1,443.6H420c-10.8,0-19.4-3.2-25.6-9.5c-6.2-6.3-9.4-15-9.4-26v-56.4c0-11,3.1-19.6,9.4-26
			c6.2-6.3,14.8-9.5,25.6-9.5h21.5c10.8,0,19.4,3.2,25.7,9.5c6.3,6.3,9.5,15,9.5,26v31.7c0,2-1,3-3,3h-73.9c-1.5,0-2.2,0.7-2.2,2.2
			v19.2c0,7.8,2,13.9,6,18.1c4,4.2,9.8,6.4,17.5,6.4h51.2c1.8,0,2.7,0.9,2.7,2.7v5.7C474.9,442.7,474,443.6,472.1,443.6z
			 M399.7,376.4h62.2c1.5,0,2.2-0.7,2.2-2.2v-22.2c0-7.8-2-13.9-6-18.1c-4-4.2-9.8-6.4-17.5-6.4h-19.7c-7.7,0-13.5,2.1-17.5,6.4
			c-4,4.2-6,10.3-6,18.1v22.2C397.5,375.7,398.2,376.4,399.7,376.4z"/>
		<path d="M586.6,444.5c-2.3,0-3.7-1.4-3.7-3.9v-8.1c-4.7,8-13.5,12.1-26,12.1h-16c-11,0-19.9-3.3-26.3-9.8
			c-6.4-6.5-9.6-15.4-9.6-26.6v-56.4c0-11.2,3.2-20.1,9.6-26.6c6.4-6.5,15.2-9.8,26.3-9.8h52.9c1,0,3.4,0.4,3.4,3.9v121.4
			c0,3.6-2.4,3.9-3.4,3.9H586.6z M541.9,328.4c-7.3,0-13,2.1-16.8,6.2c-3.8,4.1-5.7,10.1-5.7,17.6v55.4c0,7.5,1.9,13.5,5.7,17.6
			c3.8,4.1,9.4,6.2,16.8,6.2h16.2c7.7,0,13.8-2.1,18.2-6.1c4.4-4,6.6-9.9,6.6-17.4v-78.2c0-0.8-0.3-1.3-1.6-1.3H541.9z"/>
		<path d="M556.9,443.6h-16c-10.8,0-19.4-3.2-25.6-9.5c-6.2-6.3-9.4-15-9.4-26v-56.4c0-11,3.1-19.6,9.4-26
			c6.2-6.3,14.8-9.5,25.6-9.5h52.9c1.7,0,2.5,1,2.5,3v121.4c0,2-0.8,3-2.5,3h-7.2c-1.8,0-2.7-1-2.7-3v-10h-1
			C578.5,439.2,569.8,443.6,556.9,443.6z M583.8,407.9v-78.2c0-1.5-0.8-2.2-2.5-2.2h-39.5c-7.7,0-13.5,2.2-17.5,6.5
			c-4,4.3-6,10.4-6,18.2v55.4c0,7.8,2,13.9,6,18.2c4,4.3,9.8,6.5,17.5,6.5h16.2c8,0,14.3-2.1,18.9-6.4
			C581.5,421.7,583.8,415.7,583.8,407.9z"/>
		<path d="M627.8,444.5c-1,0-3.4-0.4-3.4-3.9V319.2c0-3.6,2.4-3.9,3.4-3.9h7.2c2.3,0,3.7,1.4,3.7,3.9v8.3c5.1-8,13.9-12.1,26.2-12.2
			l0.9,0v13.1h-2.4c-7.7,0-13.8,2.1-18.2,6.1c-4.4,4-6.6,9.9-6.6,17.4v88.7c0,2.5-1.3,3.9-3.7,3.9H627.8z"/>
		<path d="M638.8,329.2h-1v-10c0-2-0.9-3-2.7-3h-7.2c-1.7,0-2.5,1-2.5,3v121.4c0,2,0.8,3,2.5,3h7.2c1.8,0,2.7-1,2.7-3v-88.7
			c0-7.8,2.3-13.9,6.9-18.1c4.6-4.2,10.9-6.4,18.9-6.4h1.4v-11.2C652.3,316.3,643.6,320.6,638.8,329.2z"/>
		<path d="M785.1,444.5c-2.3,0-3.7-1.4-3.7-3.9v-88.4c0-7.7-1.9-13.7-5.7-17.7c-3.8-4-9.4-6.1-16.8-6.1h-9.2
			c-7.7,0-13.9,2.2-18.3,6.6c-4.5,4.4-6.7,10.4-6.7,17.9v87.7c0,2.5-1.3,3.9-3.7,3.9h-7.2c-2.3,0-3.7-1.4-3.7-3.9v-88.4
			c0-7.7-1.9-13.7-5.7-17.7c-3.8-4-9.4-6.1-16.8-6.1h-3.9v-13.1h5.9c14.2,0,24.5,5.5,30.4,16.3c2.7-5.2,6.8-9.1,12.4-11.8
			c6.1-3,12.5-4.5,18.9-4.5h9.2c11,0,19.8,3.3,26.1,9.8c6.3,6.5,9.5,15.4,9.5,26.6v88.9c0,2.5-1.3,3.9-3.7,3.9H785.1z"/>
		<path d="M785.9,325.7c-6.2-6.3-14.7-9.5-25.5-9.5h-9.2c-6.3,0-12.5,1.5-18.5,4.4c-6,2.9-10.2,7.3-12.7,13.1
			c-5.7-11.7-15.8-17.5-30.5-17.5h-5v11.2h3c7.7,0,13.5,2.1,17.5,6.4c4,4.2,6,10.4,6,18.4v88.4c0,2,0.9,3,2.7,3h7.2
			c1.8,0,2.7-1,2.7-3v-87.7c0-7.8,2.3-14,7-18.6c4.7-4.6,11-6.9,19-6.9h9.2c7.7,0,13.5,2.1,17.5,6.4c4,4.2,6,10.4,6,18.4v88.4
			c0,2,0.9,3,2.7,3h7.2c1.8,0,2.7-1,2.7-3v-88.9C795.1,340.7,792,332,785.9,325.7z"/>
	</g>
	<g>
		<path d="M256.5,528.9c-2-1.2-3.5-3.1-4.3-5.7c-0.9-2.6-1.3-6-1.3-10.4c0-5.5,0.9-9.8,2.8-13.1c1.8-3.3,5.4-4.9,10.7-4.9
			c1.4,0,2.8,0.1,4.3,0.2c1.5,0.1,3.5,0.4,6,0.9l-0.2,4.2c-3.6-0.4-6.4-0.6-8.3-0.6c-2.6,0-4.6,0.4-6,1.2c-1.4,0.8-2.4,2.2-3,4.1
			c-0.6,1.9-0.9,4.6-0.9,8.2c0,3.4,0.3,6,0.8,7.8c0.6,1.9,1.5,3.2,3,4.1c1.4,0.8,3.5,1.3,6.3,1.3l8.1-0.6l0.2,4.3
			c-4.4,0.6-7.7,1-9.9,1C261.2,530.8,258.5,530.2,256.5,528.9z"/>
		<path d="M296.2,528.9c-2.2-1.2-3.7-3.1-4.6-5.7c-0.9-2.6-1.4-6-1.4-10.2c0-4.4,0.5-7.9,1.4-10.5c1-2.6,2.5-4.6,4.7-5.8
			c2.2-1.2,5-1.8,8.6-1.8c3.6,0,6.5,0.6,8.6,1.9c2.1,1.2,3.7,3.2,4.6,5.8c1,2.6,1.4,6.1,1.4,10.5c0,4.2-0.5,7.6-1.4,10.2
			c-0.9,2.6-2.4,4.5-4.6,5.7c-2.1,1.2-5.1,1.8-8.8,1.8C301.3,530.8,298.4,530.2,296.2,528.9z M310.8,525c1.3-0.8,2.3-2.2,2.8-4.1
			c0.5-1.9,0.8-4.5,0.8-7.9c0-3.6-0.3-6.3-0.8-8.3c-0.6-1.9-1.5-3.3-2.8-4.1c-1.3-0.8-3.2-1.2-5.7-1.2c-2.5,0-4.4,0.4-5.7,1.2
			c-1.4,0.8-2.3,2.2-2.9,4.1c-0.6,1.9-0.9,4.7-0.9,8.3c0,3.4,0.3,6,0.8,7.8c0.5,1.9,1.5,3.2,2.8,4.1c1.4,0.8,3.3,1.3,5.9,1.3
			C307.5,526.3,309.5,525.9,310.8,525z"/>
		<path d="M337.9,495.7h5.1v2.4c2.1-1.1,4-2,5.7-2.4c1.7-0.5,3.5-0.7,5.4-0.7c2.9,0,5.2,0.6,6.8,1.7c1.6,1.1,2.7,2.9,3.4,5.3
			c0.7,2.4,1,5.7,1,10v18.2h-5.1v-18c0-3.3-0.2-5.8-0.6-7.5c-0.4-1.7-1.1-3-2.1-3.8c-1-0.8-2.5-1.2-4.4-1.2c-1.6,0-3.2,0.2-4.8,0.6
			c-1.6,0.4-2.9,0.8-4,1.3l-1.3,0.6v27.9h-5.2V495.7z"/>
		<path d="M385.4,529.8l-2.1-0.3l0.3-4.5c5.4,0.8,9.3,1.2,11.8,1.2c2.8,0,4.8-0.4,6.2-1.3c1.4-0.9,2-2.3,2-4.3c0-1.4-0.3-2.5-1-3.2
			c-0.7-0.7-1.5-1.3-2.5-1.6c-1-0.3-2.5-0.6-4.4-0.9l-1.7-0.3c-2.8-0.5-4.9-1-6.5-1.7c-1.6-0.6-2.7-1.5-3.5-2.7
			c-0.8-1.2-1.2-2.8-1.2-4.9c0-3.7,1.1-6.4,3.4-7.9c2.2-1.6,5.4-2.3,9.6-2.3c3.3,0,6.6,0.3,10,0.9l1.9,0.3l-0.1,4.4
			c-5-0.7-8.8-1.1-11.6-1.1c-2.7,0-4.6,0.4-6,1.2c-1.3,0.8-2,2.1-2,3.9c0,1.2,0.3,2.2,1,2.9c0.6,0.7,1.5,1.1,2.5,1.4
			c1,0.3,2.5,0.6,4.4,0.9l1.7,0.3c2.8,0.5,5,1.1,6.6,1.8c1.6,0.7,2.7,1.6,3.5,2.9c0.8,1.2,1.1,3,1.1,5.2c0,3.7-1.1,6.4-3.3,8.2
			c-2.2,1.7-5.5,2.6-10,2.6C392.8,530.8,389.4,530.4,385.4,529.8z"/>
		<path d="M430.5,529.2c-1.6-1.1-2.7-2.8-3.3-5.3c-0.6-2.4-1-5.9-1-10.3v-18h5.2v17.9c0,3.4,0.2,6,0.6,7.8c0.4,1.7,1,3,2,3.7
			c1,0.7,2.5,1.1,4.5,1.1c3.1,0,6.3-0.8,9.6-2.5v-27.9h5.2v34.4h-5.2v-2.4c-1.9,1.1-3.6,1.9-5.2,2.4c-1.6,0.5-3.4,0.7-5.5,0.7
			C434.4,530.8,432.1,530.2,430.5,529.2z"/>
		<path d="M473.4,480.7h5.2v49.4h-5.2V480.7z"/>
		<path d="M503.2,529.7c-1.3-0.8-2.2-2-2.8-3.9c-0.6-1.8-0.9-4.3-0.9-7.6v-18.1h-4.9v-4.5h4.9v-10.5h5.1v10.5h10.9v4.5h-10.9v16.5
			c0,2.6,0.1,4.5,0.3,5.7c0.2,1.3,0.6,2.2,1.3,2.9c0.7,0.7,1.8,1,3.3,1l6.1-0.4l0.3,4.3c-3.3,0.5-5.7,0.8-7.4,0.8
			C506.3,530.8,504.5,530.5,503.2,529.7z"/>
		<path d="M531.7,481.9h5.1v6h-5.1V481.9z M531.7,495.7h5.1v34.4h-5.1V495.7z"/>
		<path d="M556.5,495.7h5.1v2.4c2.1-1.1,4-2,5.7-2.4c1.7-0.5,3.5-0.7,5.4-0.7c2.9,0,5.2,0.6,6.8,1.7c1.6,1.1,2.7,2.9,3.4,5.3
			c0.7,2.4,1,5.7,1,10v18.2h-5.1v-18c0-3.3-0.2-5.8-0.6-7.5c-0.4-1.7-1.1-3-2.1-3.8c-1-0.8-2.5-1.2-4.4-1.2c-1.6,0-3.2,0.2-4.8,0.6
			c-1.6,0.4-2.9,0.8-4,1.3l-1.3,0.6v27.9h-5.2V495.7z"/>
		<path d="M605,544c-2.1-1.5-3.2-4.1-3.2-7.7c0-1.5,0.2-2.7,0.5-3.6c0.3-0.9,0.9-1.8,1.6-2.5c0.7-0.7,1.8-1.7,3.3-2.8
			c-0.6-0.4-1.1-1-1.4-1.9c-0.3-0.8-0.5-1.7-0.5-2.6c0-0.6,0.1-1.2,0.4-2c0.3-0.7,0.9-2,1.9-3.8c-3.6-1.6-5.4-5-5.4-10.3
			c0-4,1.1-7,3.2-8.9c2.2-2,5.4-2.9,9.8-2.9c2.1,0,4.5,0.3,7,0.9l10.2-0.3v4.4l-6.5-0.1c0.8,0.8,1.4,1.7,1.7,2.9
			c0.4,1.1,0.6,2.6,0.6,4.3c0,4.1-1.1,7-3.2,8.7c-2.1,1.7-5.4,2.6-10,2.6c-1.4,0-2.6-0.1-3.5-0.3c-0.4,0.9-0.7,1.7-0.9,2.4
			c-0.2,0.7-0.3,1.3-0.3,1.8c0,1.2,0.5,2,1.4,2.3c0.9,0.4,2.4,0.6,4.4,0.6h2.7c3,0,5.5,0.2,7.3,0.7c1.9,0.5,3.3,1.4,4.3,2.8
			c1,1.4,1.5,3.4,1.5,6.1c0,4-1.2,6.9-3.7,8.7c-2.5,1.8-6.6,2.8-12.3,2.8C610.8,546.3,607.2,545.5,605,544z M624.4,540.4
			c1.5-1,2.3-2.8,2.3-5.3c0-1.5-0.3-2.6-0.8-3.3c-0.5-0.8-1.4-1.3-2.5-1.5c-1.2-0.3-2.9-0.4-5.2-0.4l-7.4-0.3
			c-1.5,1.1-2.5,2.1-3.1,2.9c-0.5,0.8-0.8,1.9-0.8,3.3c0,2.4,0.7,4,2.1,5c1.4,0.9,3.9,1.4,7.4,1.4
			C620.2,541.9,622.9,541.4,624.4,540.4z M621.2,512.5c1.2-1.1,1.8-3.1,1.8-5.9c0-2.7-0.6-4.6-1.8-5.8c-1.2-1.1-3.2-1.7-5.9-1.7
			c-2.8,0-4.9,0.6-6.1,1.8c-1.2,1.2-1.8,3.1-1.8,5.8c0,2.7,0.6,4.6,1.8,5.8c1.2,1.1,3.2,1.7,6,1.7C618,514.2,620,513.7,621.2,512.5z
			"/>
	</g>
	<g>
		<g>
			<g>
				<path class="st1" d="M475.8,224.1c-58.3,0-105.8-47.5-105.8-105.8S417.5,12.4,475.8,12.4c58.3,0,105.8,47.5,105.8,105.8
					c0,26.2-9.7,51.4-27.2,70.8c-1.3,1.4-3.4,1.5-4.9,0.3c-1.4-1.3-1.5-3.4-0.3-4.9c16.4-18.2,25.4-41.7,25.4-66.2
					c0-54.6-44.4-98.9-98.9-98.9s-98.9,44.4-98.9,98.9s44.4,98.9,98.9,98.9c13.8,0,27.1-2.8,39.7-8.3c1.7-0.8,3.8,0,4.5,1.8
					c0.8,1.7,0,3.8-1.8,4.5C504.9,221.1,490.6,224.1,475.8,224.1z"/>
			</g>
			<g>
				<path class="st1" d="M491.2,122.6c9.6-6.6,15.6-18.8,15.6-32.5c0-7-1.6-13.7-4.6-19.6c1.4-0.3,2.8-0.9,4.1-1.8
					c3.5-2.5,5.3-7.2,4.5-12.1c-0.5-3.5-2.5-8.3-5.6-10.8c0,0,0,0,0,0c0,0,0,0,0,0c-1-0.8-2.4-0.6-3.2,0.3c-0.4,0.5-0.6,1.1-0.5,1.7
					c-0.3,0.6-1,1.6-1.3,2c-0.7,0.8-1.6,1.4-2.6,1.7c-1.7,0.4-3.6-0.6-5.6-3.1c-0.2-0.2-0.3-0.4-0.5-0.6c-0.7-0.8-1.4-1.7-2.3-2.5
					c-1.5-1.3-3.3-2-5-1.9c-3,0.2-4.7,2.3-6.1,4.1c-1.3,1.7-2,2.4-3,2.3c-1.6-0.1-3.2-1-4.7-1.7c-2.6-1.3-6.5-3.3-10.6-1.7
					c-3.2,1.2-5.9,4.2-7.1,8c-1.4,4.3-1.3,8.9-1,12.6c-4.4,6.6-6.8,14.9-6.8,23.4c0,13.7,6,26,15.6,32.5
					c-14.5,6.6-28.6,15.5-28.6,33.2c0,9,4.7,18.3,13,25.6c8.6,7.6,19.6,11.8,31,11.8s22.4-4.2,31-11.8c8.2-7.3,13-16.6,13-25.6
					C519.8,138.1,505.7,129.2,491.2,122.6z M475.8,188.6c-22.2,0-39.3-17.7-39.3-32.9c0-14.9,11.5-22.8,30-30.8c0,0,0.1,0,0.1-0.1
					c0.1,0,0.1-0.1,0.2-0.1c0.1,0,0.1-0.1,0.2-0.1c0.1,0,0.1-0.1,0.2-0.1c0.1-0.1,0.1-0.1,0.2-0.2c0-0.1,0.1-0.1,0.1-0.2
					c0-0.1,0.1-0.1,0.1-0.2c0,0,0.1-0.1,0.1-0.1c0,0,0,0,0-0.1c0-0.1,0.1-0.2,0.1-0.2c0-0.1,0-0.1,0.1-0.2c0-0.1,0-0.1,0-0.2
					c0-0.1,0-0.1,0-0.2c0-0.1,0-0.1,0-0.2c0-0.1,0-0.1,0-0.2c0-0.1,0-0.1-0.1-0.2c0-0.1,0-0.2-0.1-0.2c0,0,0,0,0-0.1
					c0,0,0-0.1-0.1-0.1c0-0.1-0.1-0.1-0.1-0.2c0-0.1-0.1-0.1-0.1-0.2c0-0.1-0.1-0.1-0.1-0.2c-0.1-0.1-0.1-0.1-0.2-0.2
					c-0.1,0-0.1-0.1-0.2-0.1c-0.1,0-0.1-0.1-0.2-0.1c0,0-0.1-0.1-0.1-0.1c-10.2-4.8-17.1-17.2-17.1-30.7c0-7.9,2.3-15.5,6.4-21.4
					c0.3-0.4,0.5-1,0.4-1.5c-0.3-3.4-0.6-7.8,0.7-11.6c0.8-2.5,2.5-4.4,4.4-5.1c2.1-0.8,4.4,0.2,6.9,1.5c1.8,0.9,4,2,6.4,2.2
					c3.6,0.3,5.6-2.2,7-4c1.1-1.4,1.9-2.3,2.8-2.3c0.5,0,1.1,0.3,1.7,0.8c0.6,0.5,1.1,1.2,1.7,1.9c0.2,0.2,0.3,0.4,0.5,0.6
					c4.1,5.1,7.9,5.3,10.4,4.7c1.8-0.5,3.5-1.6,4.8-3c0,0,0.3-0.4,0.7-0.9c1,1.7,1.7,3.7,1.9,5.4c0.5,3.1-0.6,6.2-2.7,7.6
					c-1.2,0.9-2.9,1.4-5.2,1.5c-0.8,0.1-1.5,0.5-1.9,1.2c-0.4,0.7-0.3,1.6,0.1,2.3c3.7,5.8,5.6,12.8,5.6,20.2
					c0,13.6-6.9,25.9-17.1,30.7c0,0-0.1,0-0.1,0.1c-0.1,0-0.1,0.1-0.2,0.1c-0.1,0-0.1,0.1-0.2,0.1c-0.1,0-0.1,0.1-0.2,0.2
					c-0.1,0.1-0.1,0.1-0.1,0.2c0,0.1-0.1,0.1-0.1,0.2c0,0.1-0.1,0.1-0.1,0.2c0,0,0,0.1-0.1,0.1c0,0,0,0,0,0.1c0,0.1-0.1,0.2-0.1,0.2
					c0,0.1,0,0.1-0.1,0.2c0,0.1,0,0.1,0,0.2c0,0.1,0,0.1,0,0.2c0,0.1,0,0.1,0,0.2c0,0.1,0,0.2,0,0.2c0,0.1,0,0.1,0.1,0.2
					c0,0.1,0,0.2,0.1,0.2c0,0,0,0,0,0.1c0,0.1,0.1,0.1,0.1,0.2c0,0,0,0,0,0.1c0.1,0.1,0.2,0.2,0.2,0.3c0,0,0,0,0.1,0.1
					c0.1,0.1,0.2,0.1,0.2,0.2c0,0,0.1,0,0.1,0.1c0.1,0.1,0.2,0.1,0.4,0.2c0,0,0,0,0,0c18.5,8,30,15.9,30,30.8
					C515.2,171,498,188.6,475.8,188.6z"/>
			</g>
			<g>
				<path class="st2" d="M533.3,237.1c-4.4,0-8.3-2.6-10-6.5c-3.6-8.1-9.9-14.6-18-18.1c0,0-0.4-0.2-0.5-0.2l-0.1-0.1
					c-3.7-1.8-6.1-5.5-6.1-9.6s2.3-7.8,6-9.6c0,0,0.2-0.1,0.3-0.1l0.3-0.1c3.8-1.6,7.2-4,10.2-6.9l0.3-0.3c3.2-3.1,5.7-6.8,7.5-10.9
					c1.7-4,5.7-6.5,10-6.5s8.3,2.6,10,6.5c3.6,8.1,9.9,14.6,18,18.1l0.3,0.1c0,0,0.3,0.1,0.3,0.1c3.7,1.8,6.1,5.5,6.1,9.6
					c0,4.1-2.3,7.8-6.1,9.6c0,0-0.2,0.1-0.3,0.1l-0.3,0.1c-3.8,1.7-7.2,4-10.3,6.9l-0.3,0.3c-3.2,3.1-5.7,6.8-7.5,10.9
					C541.6,234.5,537.6,237.1,533.3,237.1z"/>
				<path class="st2" d="M533.3,170.5c3.4,0,6.4,2,7.8,5c3.8,8.7,10.6,15.6,19.2,19.4l0.4,0.2l0.1,0.1c2.9,1.4,4.6,4.2,4.6,7.4
					c0,3.2-1.8,6-4.6,7.4l-0.1,0.1l-0.3,0.1c-4.1,1.8-7.8,4.3-11,7.4l-0.3,0.3c-3.4,3.4-6.1,7.3-8,11.7c-1.3,3.1-4.4,5-7.8,5
					c-3.4,0-6.4-2-7.8-5c-3.8-8.7-10.6-15.6-19.2-19.4l-0.4-0.2l-0.1-0.1c-2.9-1.4-4.6-4.2-4.6-7.4c0-3.2,1.8-6,4.6-7.4l0.1-0.1
					l0.3-0.1c4.1-1.8,7.8-4.3,11-7.4l0.3-0.3c3.4-3.4,6.1-7.3,8-11.7C526.9,172.5,530,170.5,533.3,170.5 M533.3,165.5
					c-5.4,0-10.2,3.2-12.3,8c-1.7,3.8-4,7.2-6.9,10.1l-0.3,0.3c-2.8,2.7-6,4.8-9.5,6.4l-0.3,0.1c-0.1,0-0.2,0.1-0.3,0.1l-0.1,0.1
					c-4.6,2.2-7.5,6.8-7.5,11.9c0,5.1,2.9,9.6,7.5,11.9l0.1,0.1c0.1,0,0.2,0.1,0.3,0.1l0.3,0.1c7.4,3.3,13.3,9.2,16.6,16.8
					c2.1,4.9,7,8,12.3,8c5.4,0,10.2-3.2,12.3-8c1.7-3.8,4-7.2,6.9-10.1l0.3-0.3c2.7-2.7,5.9-4.8,9.5-6.4l0.3-0.1
					c0.1,0,0.2-0.1,0.3-0.1l0.1-0.1c4.6-2.2,7.4-6.8,7.4-11.9c0-5.1-2.9-9.6-7.5-11.9l-0.1-0.1c-0.1,0-0.2-0.1-0.3-0.1l-0.3-0.1
					c-7.4-3.3-13.3-9.2-16.6-16.8C543.5,168.7,538.7,165.5,533.3,165.5L533.3,165.5z"/>
			</g>
			<g>
				<path class="st1" d="M533.3,175.1c1.6,0,3,0.9,3.6,2.3c4.2,9.7,12,17.5,21.6,21.7c0.1,0,0.2,0.1,0.3,0.1
					c1.2,0.6,2.1,1.8,2.1,3.3c0,1.4-0.8,2.7-2.1,3.3c-0.1,0-0.2,0.1-0.3,0.1c-4.8,2.1-9.1,5.1-12.7,8.7l0,0c-3.7,3.7-6.8,8.2-9,13.1
					c-0.6,1.3-2,2.3-3.6,2.3c-1.6,0-3-0.9-3.6-2.3c-4.2-9.7-12-17.5-21.6-21.7c-0.1,0-0.2-0.1-0.3-0.1c-1.2-0.6-2.1-1.8-2.1-3.3
					c0-1.4,0.8-2.7,2.1-3.3c0.1,0,0.2-0.1,0.3-0.1c4.8-2.1,9.1-5.1,12.7-8.7l0,0c3.7-3.7,6.8-8.2,9-13.1
					C530.4,176,531.7,175.1,533.3,175.1 M533.3,170.1c-3.5,0-6.7,2.1-8.1,5.3c-1.9,4.3-4.5,8.2-7.9,11.5c0,0-0.1,0.1-0.1,0.1
					c-3.2,3.2-7,5.8-11.1,7.6c-0.1,0-0.2,0.1-0.2,0.1c-0.1,0-0.2,0.1-0.3,0.1c-3,1.5-4.9,4.4-4.9,7.8c0,3.3,1.9,6.3,4.9,7.8
					c0.1,0,0.2,0.1,0.3,0.1c0.1,0,0.1,0,0.2,0.1c8.5,3.7,15.3,10.5,19.1,19.2c1.4,3.2,4.6,5.3,8.1,5.3c3.5,0,6.7-2.1,8.1-5.3
					c1.9-4.3,4.5-8.2,7.9-11.5c0,0,0.1-0.1,0.1-0.1c3.2-3.2,7-5.8,11.1-7.6c0.1,0,0.2-0.1,0.2-0.1c0.1,0,0.2-0.1,0.3-0.1
					c3-1.5,4.9-4.4,4.9-7.8c0-3.3-1.9-6.3-4.9-7.8c-0.1,0-0.2-0.1-0.3-0.1c-0.1,0-0.1,0-0.2-0.1c-8.5-3.7-15.3-10.5-19.1-19.2
					C540.1,172.2,536.9,170.1,533.3,170.1L533.3,170.1z"/>
			</g>
			<g>
				<g>
					<path class="st2" d="M558.5,182.7c-1.6,0-3.1-0.9-3.6-2.3c-0.8-1.8-2.2-3.3-3.8-4l-0.1,0l-0.1-0.1c-1.2-0.6-2-1.8-2-3
						c0-1.3,0.8-2.4,2-3l0.1,0l0.1,0c0.8-0.4,1.5-0.9,2.2-1.6c0.7-0.7,1.3-1.6,1.7-2.5c0.6-1.4,2-2.3,3.6-2.3c1.6,0,3.1,0.9,3.6,2.3
						c0.8,1.8,2.2,3.3,3.8,4.1l0.1,0l0.1,0.1c1.2,0.6,2,1.8,2,3c0,1.3-0.8,2.4-2,3l-0.1,0l-0.1,0c-0.8,0.4-1.5,0.9-2.2,1.6
						c-0.7,0.7-1.3,1.6-1.7,2.5C561.5,181.8,560.1,182.7,558.5,182.7z"/>
				</g>
				<g>
					<path class="st1" d="M558.5,166.4c0.4,0,0.7,0.2,0.9,0.6c1,2.4,2.9,4.4,5.2,5.4c0,0,0.1,0,0.1,0c0.3,0.2,0.5,0.5,0.5,0.8
						s-0.2,0.7-0.5,0.8c0,0-0.1,0-0.1,0c-1.2,0.5-2.2,1.3-3.1,2.2l0,0c-0.9,0.9-1.6,2-2.2,3.3c-0.1,0.3-0.5,0.6-0.9,0.6
						s-0.7-0.2-0.9-0.6c-1-2.4-2.9-4.4-5.2-5.4c0,0-0.1,0-0.1,0c-0.3-0.2-0.5-0.5-0.5-0.8s0.2-0.7,0.5-0.8c0,0,0.1,0,0.1,0
						c1.2-0.5,2.2-1.3,3.1-2.2l0,0c0.9-0.9,1.6-2,2.2-3.3C557.8,166.6,558.1,166.4,558.5,166.4 M558.5,164.4c-1.2,0-2.2,0.7-2.7,1.8
						c-0.4,1-1,1.9-1.8,2.7c-0.7,0.7-1.5,1.3-2.5,1.8c0,0-0.1,0.1-0.2,0.1c-1,0.5-1.6,1.5-1.6,2.6c0,1.1,0.6,2.1,1.6,2.6
						c0,0,0.1,0,0.1,0.1c1.9,0.9,3.4,2.4,4.2,4.4c0.5,1.1,1.5,1.8,2.7,1.8c1.2,0,2.2-0.7,2.7-1.8c0.4-1,1-1.9,1.8-2.7
						c0.7-0.7,1.5-1.3,2.5-1.8c0,0,0.1-0.1,0.2-0.1c1-0.5,1.6-1.5,1.6-2.6c0-1.1-0.6-2.1-1.6-2.6c0,0-0.1,0-0.1-0.1
						c-1.9-0.9-3.4-2.4-4.2-4.4C560.7,165.1,559.7,164.4,558.5,164.4L558.5,164.4z"/>
				</g>
			</g>
		</g>
		<g>
			<path class="st1" d="M241.9,84.5c0.1-0.2,0.1-0.5-0.1-0.8c-0.3-0.4-0.8-0.8-1.3-1.1c-2.3-1.6-6.4-1.9-9.1-2
				c-3.8,0-8.5,0.9-12.1,2.5c-0.2,0.1-0.4,0.2-0.6,0.3c-0.2,0.1-0.4,0.2-0.6,0.3c-0.1,0.1-0.2,0.1-0.2,0.2c0,0,0,0,0,0c0,0,0,0,0,0
				c0,0,0,0,0,0c-0.4,0.3-0.3,0.8,0.1,1.2c0,0.5,0.1,1,0.2,1.5c-0.2-0.1-0.4-0.3-0.7-0.4c-0.9-0.4-2.1-0.4-3.1-0.4
				c-1,0-2.4,0.1-3.5,0.4c0-0.4,0.1-0.7,0.2-1.1c0.3-0.3,0.4-0.8,0.1-1.2c0,0,0,0,0,0c0,0,0,0,0,0c0,0,0,0,0,0
				c-0.1-0.1-0.1-0.1-0.2-0.2c-0.2-0.1-0.4-0.2-0.6-0.3c-0.2-0.1-0.4-0.2-0.6-0.3c-3.5-1.7-8.2-2.6-12.1-2.5c-2.7,0-6.8,0.3-9.1,2
				c-0.5,0.3-1,0.6-1.3,1.1c-0.2,0.3-0.2,0.5-0.1,0.8c-0.7,2.8-0.7,6.5-0.4,9.2c0.4,3.2,4.2,5,7.6,5.2c4.3,0.3,10.1,0.7,13.1-2.6
				c0.1-0.1,0.2-0.3,0.3-0.4c0.1,0,0.2-0.1,0.2-0.2c1-1,1.3-2,1.5-3.2c0.3-0.9,0.5-1.8,0.6-2.7c0.3-0.3,0.5-0.6,0.8-0.9
				c2.1-0.8,4.6-1.3,6.6-0.4c0.2,0.1,0.4,0.2,0.6,0.4c0.3,0.4,0.5,0.7,0.8,1.1c0.1,0.9,0.3,1.7,0.6,2.6c0.3,1.2,0.6,2.2,1.5,3.2
				c0.1,0.1,0.2,0.1,0.2,0.2c0.1,0.1,0.2,0.3,0.3,0.4c3,3.3,8.7,2.9,13.1,2.6c3.5-0.2,7.3-2,7.6-5.2C242.5,91,242.6,87.3,241.9,84.5
				z M198.2,97.2c-2.1,0-4,0-6-0.5c-3.8-0.9-3.6-3.8-3.6-6.3c0-1.6,0.1-4.2,0.5-5.9c2.6-1,4.9-1.5,7.5-1.7c1.5,0,2.7,0.1,3.5,0.2
				c1.2,0.1,2.9,0.3,4.5,0.6c1.4,0.4,2.7,1,4.2,1.4C207.2,91.1,208.2,97.2,198.2,97.2z M236.7,96.7c-2,0.5-4,0.5-6,0.5
				c-10,0-9-6.1-10.6-12.1c1.4-0.5,2.8-1,4.2-1.4c1.7-0.3,3.3-0.5,4.5-0.6c0.8-0.1,2.1-0.2,3.5-0.2c2.6,0.2,4.8,0.7,7.5,1.7
				c0.4,1.7,0.5,4.3,0.5,5.9C240.2,93,240.5,95.9,236.7,96.7z"/>
			<g>
				<path class="st1" d="M245.1,54.4c-16-13-28-12-30.7-11.6c-2.7-0.4-14.6-1.4-30.7,11.6c-17.8,14.5-10.9,39.8-10.4,41.8
					c1.8,8.2,3.6,18,3.4,19.9c-0.7,1.8,0.2,3.2,1.3,3.9c0.5,0.3,1.1,0.4,1.7,0.4c1.9,0,4.2-1.2,5.3-2.9c0.6-0.7,3.2-2,5.5-2.9
					c1.2-0.5,2.3-0.9,3-1c0.3-0.1,0.9-0.2,1.7-0.4c-0.9-1.3-1.8-2.7-2.6-4.1c-0.1,0-0.2,0-0.2,0.1c0,0-1.9,0.6-4.2,1.5
					c-2.7,1.1-5.8,2.7-6.9,4.4c-0.2-2.8-0.9-8.3-3.5-19.8l0-0.2c-0.1-0.2-6.9-24.2,8.8-37c11.7-9.5,20.9-10.8,24.9-10.8
					c1.5,0,2.3,0.2,2.3,0.2l0.5,0.1l0.5-0.1c0,0,0.8-0.2,2.3-0.2c4.1,0,13.2,1.3,24.9,10.8c15.8,12.8,8.9,36.7,8.8,37l0,0.2
					c-2.5,11.4-3.3,17-3.5,19.8c-1.1-1.7-4.1-3.2-6.7-4.3c-2.2-0.9-4.1-1.5-4.4-1.6c-0.8,1.5-1.7,2.8-2.6,4.1
					c0.6,0.1,1.2,0.2,1.5,0.3c0.7,0.2,1.9,0.6,3.2,1.1c2.2,0.9,4.7,2.1,5.3,2.8c1.6,2.4,5.1,3.6,7.1,2.5c1.1-0.6,2-2.1,1.3-3.9
					c-0.2-1.9,1.6-11.7,3.4-19.9C256.1,94.2,262.9,68.9,245.1,54.4z"/>
			</g>
			<g>
				<path class="st1" d="M213.7,224.1c-58.3,0-105.8-47.5-105.8-105.8S155.3,12.4,213.7,12.4s105.8,47.5,105.8,105.8
					c0,26.2-9.7,51.4-27.2,70.8c-1.3,1.4-3.4,1.5-4.9,0.3c-1.4-1.3-1.5-3.4-0.3-4.9c16.4-18.2,25.4-41.7,25.4-66.2
					c0-54.6-44.4-98.9-98.9-98.9s-98.9,44.4-98.9,98.9s44.4,98.9,98.9,98.9c13.8,0,27.1-2.8,39.7-8.3c1.7-0.8,3.8,0,4.5,1.8
					c0.8,1.7,0,3.8-1.8,4.5C242.7,221.1,228.4,224.1,213.7,224.1z"/>
			</g>
			<g>
				<g>
					<path class="st1" d="M258.3,155.2L258.3,155.2c0-0.8-0.1-1.5-0.2-2.3c-0.2-1.1-0.4-2.3-0.8-3.4c-0.1-0.3-0.2-0.6-0.3-0.8
						c0-0.1-0.1-0.2-0.1-0.3c-0.1-0.2-0.2-0.5-0.3-0.7c0-0.1-0.1-0.3-0.2-0.4c-0.1-0.2-0.2-0.4-0.3-0.6c-0.1-0.2-0.2-0.4-0.3-0.6
						c-0.1-0.1-0.1-0.2-0.2-0.4c-0.1-0.2-0.2-0.5-0.3-0.7c-0.1-0.3-0.3-0.6-0.5-0.9c0,0,0,0,0,0c-0.2-0.3-0.3-0.6-0.5-0.8
						c-0.1-0.1-0.2-0.3-0.2-0.4c-0.2-0.3-0.4-0.6-0.6-0.9c-0.2-0.4-0.5-0.7-0.7-1c-0.2-0.3-0.4-0.6-0.7-0.9
						c-0.1-0.1-0.2-0.2-0.3-0.4c-0.2-0.2-0.3-0.4-0.5-0.6c-0.1-0.1-0.2-0.2-0.3-0.3c-0.2-0.2-0.4-0.5-0.6-0.7
						c-0.3-0.3-0.6-0.6-0.8-0.9c-0.2-0.2-0.3-0.3-0.5-0.5c-0.2-0.2-0.4-0.4-0.6-0.6c-0.4-0.4-0.9-0.9-1.4-1.3
						c-0.3-0.2-0.5-0.5-0.8-0.7c-0.1-0.1-0.3-0.2-0.4-0.3c-0.2-0.2-0.5-0.4-0.7-0.6c-0.1-0.1-0.3-0.2-0.4-0.3
						c-0.3-0.3-0.6-0.5-1-0.8c-0.4-0.3-0.8-0.6-1.2-0.9c-0.6-0.4-1.1-0.8-1.7-1.2c-0.3-0.2-0.6-0.4-0.9-0.6c-0.5-0.4-1-0.7-1.6-1
						c-0.9-0.5-1.8-1.1-2.7-1.6c-2-1.2-4.1-2.3-6.3-3.3c3.3-2.3,6.2-5.2,8.6-8.7c0.9-1.3,1.7-2.6,2.4-4c-2.2-0.9-4.1-1.5-4.4-1.6
						c-0.8,1.5-1.7,2.8-2.6,4.1c-2.7,3.6-6.1,6.6-10,8.4c0,0-0.1,0-0.1,0.1c-0.1,0-0.1,0.1-0.2,0.1c-0.1,0-0.1,0.1-0.2,0.1
						c-0.1,0-0.1,0.1-0.2,0.2c0,0.1-0.1,0.1-0.1,0.2c0,0.1-0.1,0.1-0.1,0.2c0,0.1-0.1,0.1-0.1,0.2c0,0-0.1,0.1-0.1,0.1
						c0,0,0,0,0,0.1c0,0.1,0,0.2-0.1,0.2c0,0.1,0,0.1,0,0.2c0,0.1,0,0.1,0,0.2c0,0,0,0,0,0.1v0c0,0,0,0.1,0,0.1c0,0,0,0.1,0,0.1v0
						c0,0.1,0,0.1,0,0.2c0,0,0,0.1,0,0.1c0,0.1,0,0.2,0.1,0.3c0,0,0,0,0,0c0.2,0.6,0.7,1.1,1.3,1.4c1.2,0.5,2.6,1.1,3.9,1.8
						c15.6,7.2,25.4,14.7,26,27.7c0,0.2,0,0.4,0,0.6c0,0.2,0,0.4,0,0.6v0.1c0,5.5-2.3,11.4-6.2,16.6c-6.9,9.1-19,16.2-33.1,16.2
						c-19.5,0-35.2-13.7-38.6-27.4c-0.2-0.7-0.3-1.3-0.4-2c-0.1-0.5-0.1-0.9-0.2-1.4c-0.1-0.7-0.1-1.4-0.1-2.1c0-0.9,0-1.8,0.1-2.7
						c0-0.4,0.1-0.8,0.2-1.2c1.9-12.5,12.9-19.7,29.7-26.9c0.6-0.3,1.1-0.8,1.3-1.4c0,0,0,0,0,0c0-0.1,0.1-0.2,0.1-0.3
						c0,0,0-0.1,0-0.1c0-0.1,0-0.1,0-0.2v0c0,0,0-0.1,0-0.1c0,0,0-0.1,0-0.1v0c0,0,0-0.1,0-0.1c0-0.1,0-0.1,0-0.2c0-0.1,0-0.1,0-0.2
						c0-0.1,0-0.2-0.1-0.2c0,0,0,0,0-0.1c0,0,0-0.1-0.1-0.1c0-0.1-0.1-0.1-0.1-0.2c0-0.1-0.1-0.1-0.1-0.2c0-0.1-0.1-0.1-0.1-0.2
						c-0.1-0.1-0.1-0.1-0.2-0.2c-0.1,0-0.1-0.1-0.2-0.1c-0.1-0.1-0.1-0.1-0.2-0.1c0,0-0.1-0.1-0.1-0.1c-3.9-1.8-7.3-4.8-10-8.4
						c-0.9-1.3-1.8-2.7-2.6-4.1c-0.1,0-0.2,0-0.2,0.1c0,0-1.9,0.6-4.2,1.5c0.7,1.4,1.5,2.7,2.4,4c2.4,3.5,5.3,6.5,8.6,8.8
						c0,0,0,0,0,0c0,0,0,0,0,0c-12.5,5.7-24.8,13.2-27.9,26.4v0c-0.1,0.5-0.2,0.9-0.3,1.4c-0.1,0.7-0.2,1.4-0.3,2.1
						c-0.1,1-0.2,2.1-0.2,3.2c0,0.8,0,1.7,0.1,2.5c0.1,0.8,0.2,1.5,0.3,2.3c0.2,0.9,0.4,1.9,0.6,2.8c0.1,0.5,0.3,0.9,0.4,1.4v0
						c2,6,5.9,11.8,11.4,16.6c8.6,7.6,19.6,11.8,31,11.8c11.4,0,22.3-4.2,31-11.8c8.2-7.3,13-16.6,13-25.6v-0.1
						C258.4,156,258.4,155.6,258.3,155.2z"/>
				</g>
			</g>
			<circle class="st1" cx="268.9" cy="214.1" r="2.7"/>
			<circle class="st1" cx="278.8" cy="214.1" r="2.7"/>
			<circle class="st1" cx="288.8" cy="214.1" r="2.7"/>
			<g>
				<path class="st2" d="M264.1,248.3c-9.6,0-15.4-5.5-15.4-14.8c0-2.4,0.4-4.8,0.6-6.8c0.3-1.9,0.5-3.7,0.5-5.4
					c0-0.4,0-0.6-0.1-0.8c-0.1,0-0.3-0.1-0.6-0.1c-3.1-0.4-5.4-3-5.4-6.1v-0.6c0-3.2,2.4-5.9,5.5-6.4c0.2,0,0.4-0.1,0.5-0.1
					c0-0.2,0.1-0.4,0.1-0.8c0-1.8-0.3-3.6-0.6-5.6l0-0.2c-0.3-2.1-0.6-4.3-0.6-6.6c0-8.9,5.9-14.4,15.4-14.4c3.4,0,6.2,2.8,6.2,6.2
					v1.2c0,3.3-2.7,5.9-5.9,5.9c-0.6,0-1,0.1-1.1,0.1c-0.1,0.2-0.2,0.7-0.2,1.7c0,1.2,0.1,2.7,0.5,4.5c0.3,1.9,0.6,4,0.6,6.4
					c0.1,3.7-0.9,6.3-2.2,8.2c1.5,2.2,2.3,5,2.2,8.3c0,1.9-0.2,4-0.6,6.4c-0.3,1.6-0.4,3-0.5,4.3c0,0.8,0.4,1.3,0.6,1.5
					c0.2,0.3,0.8,0.7,1.6,0.7c2.8,0,5,2.2,5,5v2.1C270.2,245.5,267.4,248.3,264.1,248.3z"/>
				<path class="st1" d="M248.4,213.7c0-0.9,0.7-1.7,1.6-1.8c3.9-0.5,4.5-3.1,4.5-5.4c0-2.1-0.3-4.2-0.6-6.3
					c-0.3-2.1-0.6-4.1-0.6-6.2c0-6.9,4.5-9.8,10.8-9.8l0,0c0.9,0,1.6,0.7,1.6,1.6v1.2c0,0.7-0.6,1.3-1.3,1.3h0
					c-4.4,0-5.9,2.4-5.9,6.4c0,1.7,0.2,3.5,0.5,5.3c0.3,1.9,0.5,3.7,0.5,5.7c0.1,4.8-2,7.2-5.4,8.1v0.1c3.4,0.8,5.4,3.4,5.4,8.1
					c0,2-0.2,3.9-0.5,5.7c-0.3,1.7-0.5,3.4-0.5,5c-0.1,3.8,3,6.9,6.8,6.9h0c0.2,0,0.4,0.2,0.4,0.4v2.1c0,0.9-0.7,1.6-1.6,1.6l0,0
					c-6.2,0-10.8-2.7-10.8-10.2c0-2,0.3-4.1,0.6-6.1c0.3-2,0.6-4,0.6-6c0-2.1-0.6-4.9-4.7-5.4c-0.8-0.1-1.4-0.8-1.4-1.6V213.7z"/>
			</g>
			<g>
				<path class="st2" d="M292.6,248.3c-3.4,0-6.2-2.8-6.2-6.2V240c0-2.8,2.2-5,5-5c0.8,0,1.4-0.4,1.6-0.7c0.2-0.2,0.6-0.8,0.6-1.5
					c0-1.4-0.2-2.7-0.5-4.4c-0.4-2.4-0.6-4.4-0.6-6.4c-0.1-3.3,0.7-6.1,2.2-8.2c-1.3-1.9-2.3-4.5-2.2-8.2c0-2.4,0.3-4.4,0.6-6.3
					c0.3-1.9,0.5-3.4,0.5-4.6c0-1-0.1-1.5-0.2-1.7c-0.1,0-0.5-0.1-1.1-0.1c-3.3,0-5.9-2.7-5.9-5.9v-1.2c0-3.4,2.8-6.2,6.2-6.2
					c9.5,0,15.4,5.5,15.4,14.4c0,2.3-0.3,4.5-0.6,6.6l0,0.2c-0.3,2-0.6,3.9-0.6,5.6c0,0.4,0,0.6,0.1,0.8c0.1,0,0.3,0.1,0.5,0.1
					c3.1,0.4,5.5,3.2,5.5,6.4v0.6c0,3.1-2.3,5.8-5.4,6.1c-0.3,0-0.5,0.1-0.6,0.1c0,0.1-0.1,0.4-0.1,0.8c0,1.7,0.3,3.5,0.5,5.4
					c0.3,1.9,0.6,4.4,0.6,6.8C308,242.7,302.2,248.3,292.6,248.3z"/>
				<path class="st1" d="M308.3,214.2c0,0.8-0.6,1.5-1.4,1.6c-4.1,0.5-4.7,3.3-4.7,5.4c0,2,0.3,4,0.6,6c0.3,2,0.6,4.1,0.6,6.1
					c0,7.5-4.6,10.2-10.8,10.2l0,0c-0.9,0-1.6-0.7-1.6-1.6V240c0-0.2,0.2-0.4,0.4-0.4l0,0c3.8,0,6.9-3.1,6.8-6.9
					c0-1.7-0.2-3.3-0.5-5c-0.3-1.8-0.5-3.7-0.5-5.7c-0.1-4.8,2-7.3,5.4-8.1v-0.1c-3.4-0.9-5.4-3.3-5.4-8.1c0-2,0.2-3.8,0.5-5.7
					c0.3-1.8,0.5-3.6,0.5-5.3c0-4-1.5-6.4-5.9-6.4l0,0c-0.7,0-1.3-0.6-1.3-1.3v-1.2c0-0.9,0.7-1.6,1.6-1.6l0,0
					c6.3,0,10.8,2.9,10.8,9.8c0,2.1-0.3,4.1-0.6,6.2c-0.3,2.1-0.6,4.2-0.6,6.3c0,2.3,0.6,4.9,4.5,5.4c0.9,0.1,1.6,0.9,1.6,1.8V214.2
					z"/>
			</g>
		</g>
		<g>
			<g>
				<path class="st3" d="M812.4,195.1v6l-12.7,19.5c-0.4,0.6-0.9,1.2-1.5,1.6H791c-0.6-0.5-1.2-1-1.6-1.7l-6.9-11
					c-0.3-0.5-0.5-0.9-0.6-1.4c-0.4-1.2-0.4-2.5,0-3.7c0.4-1.3,1.3-2.5,2.6-3.3c1-0.6,2.1-0.9,3.2-0.9c2.1,0,4,1.1,5.2,2.9l1.9,3
					l10.8-16.6h1.2c1.1,0,2,0.3,2.9,0.8l-14.9,22.9l-5.1-8.1c-0.7-1-2-1.4-3.1-0.7c-1,0.7-1.4,2-0.7,3.1l6.9,11
					c0.4,0.6,1.1,1,1.9,1.1c0,0,0,0,0,0c0.8,0,1.5-0.4,1.9-1l15.8-24.3C812.4,194.5,812.4,194.8,812.4,195.1z"/>
				<path class="st1" d="M844.7,112.6c0,20.8-6.1,40.9-17.3,58c-0.6,0.9-1.2,1.9-1.9,2.8c-0.1,0.2-0.3,0.4-0.4,0.6
					c-0.7,1-1.4,1.9-2.1,2.9c-0.2,0.3-0.4,0.5-0.6,0.8c-0.7,0.8-1.3,1.7-2,2.5c-0.3,0.4-0.6,0.7-0.9,1c-0.6,0.7-1.3,1.5-1.9,2.2
					c-0.1,0.1-0.1,0.2-0.2,0.2c-0.6,0.6-1.4,0.9-2.2,0.9c-0.3,0-0.6,0-1-0.1c-0.2-0.1-0.4-0.1-0.6-0.2c-0.3-0.1-0.6-0.3-0.8-0.5
					c-0.2-0.2-0.4-0.4-0.6-0.6c-0.3-0.5-0.5-1.1-0.6-1.7c0-0.4,0-0.7,0.1-1.1c0.1-0.2,0.1-0.5,0.2-0.7v0c0.1-0.3,0.3-0.5,0.5-0.7
					c0,0,0-0.1,0.1-0.1c0.3-0.3,0.6-0.7,0.9-1c0.4-0.4,0.8-0.9,1.2-1.3c0.4-0.5,0.8-1,1.2-1.5c0.3-0.3,0.5-0.6,0.8-0.9
					c0.6-0.8,1.3-1.6,1.9-2.5c0.4-0.6,0.8-1.1,1.3-1.7c11.8-16.7,18.3-36.6,18.3-57.3c0-54.6-44.4-98.9-98.9-98.9
					c-54.5,0-98.9,44.4-98.9,98.9c0,54.5,44.4,98.9,98.9,98.9c8.9,0,17.7-1.2,26.1-3.5c0.8-0.2,1.5-0.4,2.3-0.6
					c0.8-0.2,1.5-0.5,2.3-0.7c0.8-0.2,1.5-0.5,2.3-0.8c1-0.4,2-0.7,3.1-1.1c0.8-0.3,1.5-0.6,2.3-0.9c0.4-0.2,0.9-0.4,1.3-0.6
					c0.3-0.1,0.7-0.2,1-0.3v7.3c-0.8,0.3-1.5,0.6-2.3,0.9c-0.8,0.3-1.5,0.6-2.3,0.9c-1,0.4-2,0.7-3.1,1.1c-0.8,0.3-1.5,0.5-2.3,0.7
					c-0.8,0.2-1.5,0.5-2.3,0.7c-0.8,0.2-1.5,0.4-2.3,0.6c-8.5,2.2-17.2,3.2-26.1,3.2c-58.3,0-105.8-47.5-105.8-105.8
					S680.6,6.7,738.9,6.7C797.3,6.7,844.7,54.2,844.7,112.6z"/>
			</g>
			<path class="st1" d="M782.8,147L782.8,147c-0.6-11.9-10.3-22.9-27.6-31.4c-0.3-0.2-0.7-0.3-1-0.5c0,0,0,0,0,0c0,0,0,0-0.1,0
				c9-6.2,14.9-17.3,15.6-30c0-0.8,0.1-1.6,0.1-2.5v-0.1c0-0.4,0-0.8,0-1.2v-0.1c0-0.4,0-0.8-0.1-1.3c0-0.4-0.1-0.8-0.1-1.2
				c0-0.6-0.1-1.2-0.2-1.8c-0.1-0.6-0.2-1.2-0.3-1.8c-0.1-0.5-0.2-1.1-0.3-1.6c-0.1-0.5-0.2-1.1-0.4-1.6c-0.1-0.4-0.2-0.8-0.3-1.2
				c-0.1-0.3-0.2-0.7-0.3-1c-0.1-0.3-0.2-0.6-0.3-0.9c0-0.1-0.1-0.2-0.1-0.2c0-1.1,0-2.2,0-3.3c-0.1-3.6-0.1-7.2-1.2-10.7
				c-0.4-1.2-0.9-2.4-1.6-3.5c-1.3-2.1-3.3-3.3-5.8-3.5c-0.7-0.1-1.5-0.2-2.3-0.2c-1.7-3.4-4.7-5.1-8.1-6.3
				c-4.6-1.6-9.3-1.8-14.1-1.6c-3.5,0.1-6.7,0.8-9.6,2.7c-1.2,0.8-2.3,1.7-3.4,2.7c-2.7,2.5-5.2,5.1-8.9,6.1
				c-0.3,0.1-0.5,0.2-0.7,0.4c-1.2,0.7-1.3,1.4-0.4,2.4c0.3,0.4,0.7,0.6,1.4,1.2c-1,0.4-1.8,0.6-2.5,0.9c-0.8,0.2-1.6,0.4-2.4,0.6
				c0,2.1,1.7,2.8,3.1,4c-0.7,0.4-1.4,0.7-1.9,1.2c-0.4,0.3-0.9,0.8-0.9,1.2c0,0.4,0.6,0.8,1,1c0.7,0.4,1.4,0.6,2.3,0.9
				c0,0.1,0,0.2,0,0.3c-2.2,4.9-3.4,10.3-3.6,15.9c0,0.5,0,1.1,0,1.6v0.1c0,0.8,0,1.7,0.1,2.5c0,0.3,0,0.7,0.1,1c0,0.1,0,0.2,0,0.3
				c0.1,0.8,0.1,1.5,0.2,2.3c0,0.4,0.1,0.7,0.1,1c0.1,0.3,0.1,0.7,0.2,1c0.1,0.6,0.3,1.3,0.4,1.9c2.2,9.5,7.3,17.5,14.5,22.4
				c0,0-0.1,0-0.1,0c0,0,0.1,0,0.1,0.1c-12.8,5.8-25.2,13.4-28,27.2c-0.1,0.4-0.2,0.9-0.2,1.4c0,0.2-0.1,0.5-0.1,0.7
				c-0.1,0.7-0.2,1.5-0.2,2.3c0,0.5,0,1.1,0,1.6c0,0.5,0,1.1,0.1,1.6c0,0.3,0,0.5,0.1,0.8c0,0.3,0.1,0.5,0.1,0.8
				c1,7.9,5.5,16,12.8,22.4c8.6,7.6,19.6,11.8,31,11.8c11.4,0,22.4-4.2,31-11.8c8.2-7.3,13-16.6,13-25.6v-0.1
				C782.9,147.8,782.8,147.4,782.8,147z M778.3,148.3c0,5.5-2.3,11.4-6.2,16.6c-6.9,9.1-19,16.3-33.1,16.3
				c-21.9,0-38.9-17.2-39.3-32.2c0-0.2,0-0.4,0-0.6c0-0.5,0-0.9,0-1.4c0-0.2,0-0.4,0-0.7c0.1-0.9,0.2-1.7,0.3-2.5
				c2-11.7,12.4-18.8,28.1-25.7c0,0,0.1,0,0.1-0.1c0.5-0.2,0.9-0.4,1.4-0.6c0.7-0.3,1.2-0.9,1.4-1.7c0,0,0-0.1,0-0.1
				c0-0.1,0-0.1,0-0.2c0-0.1,0-0.1,0-0.2c0-0.1,0-0.1,0-0.2c0-0.1,0-0.1,0-0.2c0-0.1,0-0.2-0.1-0.2c0,0,0,0,0-0.1c0,0,0-0.1-0.1-0.1
				c0-0.1-0.1-0.1-0.1-0.2c0-0.1-0.1-0.1-0.1-0.2c-0.1-0.1-0.1-0.1-0.1-0.2c-0.1-0.1-0.1-0.1-0.2-0.2c0,0-0.1-0.1-0.2-0.1
				c-0.1,0-0.2-0.1-0.2-0.1c0,0-0.1-0.1-0.1-0.1c-0.4-0.2-0.8-0.4-1.2-0.6c-0.1-0.1-0.3-0.2-0.4-0.2c-0.9-0.5-1.8-1.1-2.6-1.7
				c0,0-0.1,0-0.1-0.1c-0.2-0.1-0.3-0.3-0.5-0.4c-0.6-0.5-1.2-1-1.7-1.5c-0.2-0.2-0.3-0.3-0.5-0.5c-0.7-0.7-1.4-1.4-2-2.2
				c-0.2-0.2-0.3-0.4-0.5-0.6c-0.7-0.9-1.4-1.9-2-3c-0.2-0.3-0.3-0.5-0.5-0.8c-0.2-0.3-0.3-0.5-0.4-0.8c-0.3-0.5-0.6-1.1-0.8-1.6
				c-0.1-0.3-0.3-0.5-0.4-0.8c-0.1-0.3-0.3-0.6-0.4-0.8c-0.1-0.3-0.2-0.6-0.4-0.8c0,0,0-0.1,0-0.1c-0.2-0.5-0.4-1.1-0.6-1.6
				c0,0,0-0.1,0-0.1c0-0.1-0.1-0.3-0.1-0.4c-0.1-0.3-0.2-0.7-0.3-1c0-0.1,0-0.1,0-0.2c-0.1-0.3-0.2-0.7-0.3-1
				c-0.1-0.3-0.1-0.6-0.2-0.9c-0.1-0.7-0.3-1.3-0.4-2c-0.1-0.7-0.2-1.4-0.3-2.2c-0.1-0.8-0.2-1.6-0.2-2.3c0-0.8-0.1-1.6-0.1-2.4
				v-0.1c0-0.5,0-0.9,0-1.4c0-0.9,0.1-1.9,0.2-2.8c0.4-4,2.5-10.4,2.3-9.9c0,0,1.9-9.6,8.1-18.2l0.7-0.7c0.8-0.8,1.8-1.7,2.9-2.4
				c2.2-1.5,4.8-2.2,8-2.3c0.8,0,1.6,0,2.5,0c4,0,7.3,0.5,10.1,1.5c3.4,1.3,5.3,2.8,6.4,5.1l0.5,1.1l1.7,0.2
				c0.6,0.1,1.2,0.1,1.7,0.2c1.7,0.2,2.9,0.9,3.8,2.4c0.5,0.9,0.9,1.9,1.3,3c0.9,3,0.9,6.2,1,9.5l0,0.5c0,1,0,1.9,0,2.9
				c0.1,0.2,0.1,0.5,0.2,0.7c0.2,0.5,0.3,1.1,0.4,1.6c0.1,0.3,0.1,0.5,0.2,0.8c0.2,0.9,0.3,1.8,0.4,2.7c0.1,0.4,0.1,0.8,0.1,1.2v0
				c0,0.1,0,0.1,0,0.2c0.1,0.9,0.1,1.8,0.2,2.6c0,0.4,0,0.9,0,1.3v0.1c0,0.8,0,1.6-0.1,2.4c-0.1,0.8-0.1,1.6-0.2,2.3
				c-0.1,0.7-0.2,1.4-0.3,2.2c-0.1,0.7-0.3,1.3-0.4,2c-0.1,0.3-0.2,0.6-0.2,0.9c-0.1,0.3-0.2,0.7-0.3,1c0,0.1,0,0.1,0,0.2
				c-0.1,0.5-0.3,1-0.4,1.4c0,0,0,0.1,0,0.1c-0.2,0.5-0.4,1.1-0.6,1.6c0,0,0,0.1,0,0.1c-0.1,0.3-0.2,0.6-0.4,0.8
				c-0.1,0.2-0.2,0.4-0.3,0.7c-0.1,0.2-0.1,0.3-0.2,0.5c-0.1,0.2-0.2,0.4-0.3,0.5c-0.5,1-1,2-1.6,2.9c0,0,0,0,0,0
				c-0.1,0.2-0.3,0.4-0.4,0.7c-0.2,0.2-0.3,0.5-0.5,0.7c-0.2,0.2-0.3,0.5-0.5,0.7c-0.2,0.2-0.3,0.5-0.5,0.7
				c-0.1,0.2-0.3,0.4-0.4,0.6c0,0,0,0.1-0.1,0.1c-0.4,0.4-0.7,0.9-1.1,1.3c-0.2,0.2-0.4,0.4-0.6,0.6c-0.2,0.2-0.3,0.4-0.5,0.5
				c-0.2,0.2-0.4,0.4-0.6,0.6c-0.2,0.2-0.3,0.3-0.5,0.5c-0.1,0.1-0.3,0.2-0.4,0.3c-0.1,0.1-0.3,0.2-0.4,0.3
				c-0.2,0.2-0.4,0.4-0.7,0.5c-0.2,0.1-0.4,0.3-0.5,0.4c-0.3,0.2-0.5,0.4-0.8,0.6c-0.1,0.1-0.2,0.1-0.3,0.2
				c-0.3,0.2-0.6,0.4-0.8,0.5c0,0,0,0-0.1,0c-0.3,0.2-0.7,0.4-1,0.6c0,0,0,0,0,0c-0.4,0.2-0.7,0.4-1,0.5c-0.1,0-0.1,0-0.1,0.1
				c-0.1,0-0.1,0.1-0.2,0.1c-0.1,0-0.1,0.1-0.2,0.1c-0.1,0.1-0.1,0.1-0.2,0.2c0,0.1-0.1,0.1-0.2,0.2c0,0.1-0.1,0.1-0.1,0.2
				c-0.1,0.1-0.1,0.1-0.1,0.2c0,0,0,0.1-0.1,0.1c0,0,0,0,0,0.1c0,0.1-0.1,0.2-0.1,0.2c0,0.1,0,0.1-0.1,0.2c0,0.1,0,0.2,0,0.2
				c0,0,0,0.1,0,0.1v0c0,0.1,0,0.2,0,0.3c0.1,0.8,0.6,1.4,1.4,1.7c0.4,0.2,0.8,0.3,1.2,0.5c0,0,0,0,0.1,0c1.3,0.6,2.7,1.2,4.1,1.9
				c14.8,7,24,14.4,24.6,27c0,0.2,0,0.4,0,0.6c0,0.2,0,0.4,0,0.6V148.3z"/>
			<g>
				<path class="st2" d="M824.3,184c-0.7-1.1-1.6-2.2-2.5-3.1c-0.2-0.2-0.5-0.5-0.7-0.7c-0.1-0.1-0.2-0.1-0.3-0.2
					c-0.8-0.7-1.7-1.4-2.6-1.9c-1-0.6-2-1.1-3-1.6c-0.1,0-0.2-0.1-0.3-0.1c0,0-0.1,0-0.1,0h0c-2.3-0.9-4.8-1.4-7.3-1.4h-21.4
					c-11.2,0-20.2,9.1-20.2,20.2v21.4c0,0.1,0,0.2,0,0.3c0.2,11,9.2,20,20.2,20h21.4c11.2,0,20.2-9.1,20.2-20.2v-21.4
					C827.7,191,826.5,187.2,824.3,184z M786.1,222.2c-3.2,0-5.7-2.6-5.7-5.7v-21.4c0-3.2,2.6-5.7,5.7-5.7h21.4c1.1,0,2,0.3,2.9,0.8
					c1.4,0.8,2.5,2.3,2.8,4c0.1,0.3,0.1,0.6,0.1,0.9v21.4c0,3.2-2.6,5.7-5.7,5.7H786.1z"/>
				<path class="st1" d="M821.5,188.3c-0.6-1.3-1.4-2.4-2.3-3.5c-0.4-0.4-0.7-0.8-1.1-1.2c0,0-0.1-0.1-0.1-0.1
					c-0.7-0.6-1.4-1.1-2.2-1.6c-1-0.7-2.2-1.2-3.4-1.6c-0.1,0-0.1,0-0.2-0.1c-0.2-0.1-0.3-0.1-0.5-0.1c-1.4-0.4-2.8-0.6-4.3-0.6
					h-21.4c-8.6,0-15.7,7-15.7,15.7v21.4c0,8.6,7,15.7,15.7,15.7h21.4c8.6,0,15.7-7,15.7-15.7v-21.4
					C823.1,192.7,822.6,190.3,821.5,188.3z M817.8,216.5c0,5.7-4.6,10.3-10.3,10.3h-21.4c-5.7,0-10.3-4.6-10.3-10.3v-21.4
					c0-5.7,4.6-10.3,10.3-10.3h21.4c0.6,0,1.1,0,1.7,0.1c0.5,0.1,1,0.2,1.4,0.3c0.8,0.3,1.6,0.6,2.3,1c0.2,0.2,0.5,0.3,0.7,0.5
					c1,0.7,1.9,1.7,2.6,2.7c0.9,1.4,1.4,2.9,1.6,4.6v0c0,0.3,0,0.6,0,1V216.5z"/>
				<polyline class="st3" points="780.3,205.8 780.3,210.3 780.3,211.5 				"/>
			</g>
			<g>
				<path class="st2" d="M791,222.2h7.1c-1,0.7-2.3,1.1-3.6,1.1h0C793.3,223.4,792.1,223,791,222.2z"/>
				<path class="st2" d="M825.9,180.5l-2.3,3.5l-2.8,4.3l-3.8,5.9v0l-4.5,7v-6c0-0.3,0-0.6-0.1-0.9l-15.8,24.3c-0.4,0.6-1.1,1-1.9,1
					c0,0,0,0,0,0c-0.8,0-1.5-0.4-1.9-1.1l-6.9-11c-0.7-1-0.3-2.4,0.7-3.1c1.1-0.7,2.4-0.3,3.1,0.7l5.1,8.1l14.9-22.9
					c-0.8-0.5-1.8-0.8-2.9-0.8h-1.2l2.9-4.4l3.1-4.7l0.4-0.6v0l0.5-0.7l1.7-2.6h0l1.6-2.4c0.7-1,1.6-1.8,2.7-2.3
					c0.7-0.3,1.6-0.5,2.4-0.5c1.2,0,2.3,0.3,3.3,1c0.6,0.4,1.1,0.8,1.5,1.3C827.1,175.4,827.3,178.2,825.9,180.5z"/>
				<path class="st1" d="M822.6,178.4l-1.6,2.5l-2.6,3.9l-3.1,4.8l-3,4.6l-15.8,24.3c-0.4,0.6-1.1,1-1.9,1c0,0,0,0,0,0
					c-0.8,0-1.5-0.4-1.9-1.1l-6.9-11c-0.7-1-0.3-2.4,0.7-3.1c1.1-0.7,2.4-0.3,3.1,0.7l5.1,8.1l14.9-22.9l2.5-3.9l1.4-2.1l1.5-2.3
					l2.5-3.8l1.4-2.1c0.7-1,2.1-1.3,3.1-0.7c0.6,0.4,0.9,1,1,1.6C823,177.4,822.9,177.9,822.6,178.4z"/>
			</g>
		</g>
		<path class="st4" d="M763.4,80.4c-0.3-2.6-0.2-2.8-3.5-3.4c-5.5-1-11-0.6-16.4,0.8c-0.7,0.2-1.2,0.9-2,1.5h-4.9c0-0.1,0-0.2,0-0.3
			c-0.6-0.4-1.1-1-1.8-1.2c-5.1-1.4-10.3-1.8-15.5-1c-3.9,0.6-4.3,0.7-4.4,4.7c-0.1,2.7,0.8,3.8,3.8,4.3c3.9,0.7,7.9,0.8,11.8,0
			c2.1-0.4,3.9-1.5,4.5-3.5c0.3-1.1,1.2-1.7,2.4-1.8c1-0.1,2.1-0.1,3.2-0.1c1.4,0,2.4,0.6,2.8,1.9c0.7,2.3,2.7,3.2,5.1,3.7
			c3.3,0.6,6.6,0.5,10,0.1C762.7,85.4,763.9,84.1,763.4,80.4z M733,82.5c-0.8,1.8-2.6,2.6-4.7,2.7c-2.8,0.2-5.6,0.2-8.4,0
			c-2.5-0.2-3.4-1.2-3.4-3.4c0-3.2,0.1-3.3,3.7-3.9c4.1-0.7,10.3-0.2,14,1.2C733.8,80.2,733.5,81.4,733,82.5z M759.4,84.9
			c-3.7,0.7-7.5,0.8-11.2-0.1c-1.4-0.4-2.5-1.3-3-2.5c-0.4-1-0.7-2.1-1.2-3.5c5.9-1.4,11.5-1.7,17.4-0.3c0.1,1.3,0.3,2.6,0.3,3.8
			C761.7,83.7,761,84.7,759.4,84.9z"/>
	</g>
</g>
</svg>
