<?xml version="1.0" encoding="utf-8"?>
<!-- Generator: Adobe Illustrator 22.0.0, SVG Export Plug-In . SVG Version: 6.00 Build 0)  -->
<svg version="1.1" xmlns="http://www.w3.org/2000/svg" xmlns:xlink="http://www.w3.org/1999/xlink" x="0px" y="0px"
	 viewBox="0 0 2076.4 729.2" style="enable-background:new 0 0 2076.4 729.2;" xml:space="preserve">
<style type="text/css">
	.st0{opacity:0.3;}
	.st1{clip-path:url(#SVGID_2_);}
	.st2{fill:#A9DAFF;}
	.st3{fill:none;stroke:#A9DAFF;stroke-width:2;stroke-miterlimit:10;}
	.st4{clip-path:url(#SVGID_4_);}
</style>
<g id="BACKGROUND_2">
	<g class="st0">
		<defs>
			<rect id="SVGID_1_" x="4.5" y="15.8" class="st0" width="1068.5" height="712.3"/>
		</defs>
		<clipPath id="SVGID_2_">
			<use xlink:href="#SVGID_1_"  style="overflow:visible;"/>
		</clipPath>
		<g class="st1">
			<path class="st2" d="M635.7,334.2c2.5,0,4.5,2,4.5,4.5c0,2.5-2,4.5-4.5,4.5s-4.5-2-4.5-4.5C631.2,336.2,633.2,334.2,635.7,334.2
				 M635.7,332.2c-3.6,0-6.5,2.9-6.5,6.5c0,3.6,2.9,6.5,6.5,6.5c3.6,0,6.5-2.9,6.5-6.5C642.2,335.1,639.3,332.2,635.7,332.2
				L635.7,332.2z"/>
		</g>
		<g class="st1">
			<path class="st2" d="M1027.5,278.6c2.5,0,4.5,2,4.5,4.5c0,2.5-2,4.5-4.5,4.5s-4.5-2-4.5-4.5C1023,280.6,1025,278.6,1027.5,278.6
				 M1027.5,276.6c-3.6,0-6.5,2.9-6.5,6.5c0,3.6,2.9,6.5,6.5,6.5s6.5-2.9,6.5-6.5C1034,279.5,1031.1,276.6,1027.5,276.6
				L1027.5,276.6z"/>
		</g>
		<g class="st1">
			<path class="st2" d="M937.7,144.7c2.5,0,4.5,2,4.5,4.5c0,2.5-2,4.5-4.5,4.5s-4.5-2-4.5-4.5C933.2,146.7,935.2,144.7,937.7,144.7
				 M937.7,142.7c-3.6,0-6.5,2.9-6.5,6.5c0,3.6,2.9,6.5,6.5,6.5s6.5-2.9,6.5-6.5C944.2,145.6,941.3,142.7,937.7,142.7L937.7,142.7z"
				/>
		</g>
		<g class="st1">
			<path class="st2" d="M745.4,210.2c2.5,0,4.5,2,4.5,4.5c0,2.5-2,4.5-4.5,4.5s-4.5-2-4.5-4.5C740.9,212.2,742.9,210.2,745.4,210.2
				 M745.4,208.2c-3.6,0-6.5,2.9-6.5,6.5c0,3.6,2.9,6.5,6.5,6.5s6.5-2.9,6.5-6.5C751.9,211.1,749,208.2,745.4,208.2L745.4,208.2z"/>
		</g>
		<g class="st1">
			<path class="st2" d="M822.3,270c2.5,0,4.5,2,4.5,4.5c0,2.5-2,4.5-4.5,4.5s-4.5-2-4.5-4.5C817.8,272.1,819.8,270,822.3,270
				 M822.3,268c-3.6,0-6.5,2.9-6.5,6.5c0,3.6,2.9,6.5,6.5,6.5c3.6,0,6.5-2.9,6.5-6.5C828.8,271,825.9,268,822.3,268L822.3,268z"/>
		</g>
		<g class="st1">
			<path class="st2" d="M635.7,277.2c2.5,0,4.5,2,4.5,4.5c0,2.5-2,4.5-4.5,4.5s-4.5-2-4.5-4.5C631.2,279.2,633.2,277.2,635.7,277.2
				 M635.7,275.2c-3.6,0-6.5,2.9-6.5,6.5c0,3.6,2.9,6.5,6.5,6.5c3.6,0,6.5-2.9,6.5-6.5C642.2,278.1,639.3,275.2,635.7,275.2
				L635.7,275.2z"/>
		</g>
		<g class="st1">
			<path class="st2" d="M369.3,235.9c2.5,0,4.5,2,4.5,4.5c0,2.5-2,4.5-4.5,4.5s-4.5-2-4.5-4.5C364.8,237.9,366.8,235.9,369.3,235.9
				 M369.3,233.9c-3.6,0-6.5,2.9-6.5,6.5c0,3.6,2.9,6.5,6.5,6.5s6.5-2.9,6.5-6.5C375.8,236.8,372.9,233.9,369.3,233.9L369.3,233.9z"
				/>
		</g>
		<g class="st1">
			<path class="st2" d="M67.3,106.2c2.5,0,4.5,2,4.5,4.5c0,2.5-2,4.5-4.5,4.5c-2.5,0-4.5-2-4.5-4.5
				C62.7,108.2,64.8,106.2,67.3,106.2 M67.3,104.2c-3.6,0-6.5,2.9-6.5,6.5c0,3.6,2.9,6.5,6.5,6.5s6.5-2.9,6.5-6.5
				C73.8,107.1,70.9,104.2,67.3,104.2L67.3,104.2z"/>
		</g>
		<g class="st1">
			<path class="st2" d="M43.7,617c2.5,0,4.5,2,4.5,4.5s-2,4.5-4.5,4.5s-4.5-2-4.5-4.5S41.3,617,43.7,617 M43.7,615
				c-3.6,0-6.5,2.9-6.5,6.5c0,3.6,2.9,6.5,6.5,6.5s6.5-2.9,6.5-6.5C50.3,617.9,47.3,615,43.7,615L43.7,615z"/>
		</g>
		<g class="st1">
			<path class="st2" d="M100,673.2c2.5,0,4.5,2,4.5,4.5c0,2.5-2,4.5-4.5,4.5c-2.5,0-4.5-2-4.5-4.5C95.5,675.2,97.5,673.2,100,673.2
				 M100,671.2c-3.6,0-6.5,2.9-6.5,6.5c0,3.6,2.9,6.5,6.5,6.5s6.5-2.9,6.5-6.5C106.5,674.1,103.6,671.2,100,671.2L100,671.2z"/>
		</g>
		<g class="st1">
			<polyline class="st3" points="-86.7,247.6 -38.3,296 52.8,296 164.4,184.4 			"/>
			<polyline class="st3" points="-95.1,268.1 -46.7,316.4 59.3,316.4 170.9,204.9 			"/>
			<polyline class="st3" points="-100.6,288.5 -52.3,336.9 64.9,336.9 176.5,225.3 			"/>
			<g>
				<path class="st2" d="M169,175.2c1.2,0,2.3,0.5,3.2,1.3c0.9,0.9,1.3,2,1.3,3.2c0,1.2-0.5,2.3-1.3,3.2c-0.9,0.9-2,1.3-3.2,1.3
					c-1.2,0-2.3-0.5-3.2-1.3c-0.9-0.9-1.3-2-1.3-3.2c0-1.2,0.5-2.3,1.3-3.2C166.7,175.7,167.8,175.2,169,175.2 M169,173.2
					c-1.7,0-3.3,0.6-4.6,1.9c-2.5,2.5-2.5,6.7,0,9.2c1.3,1.3,2.9,1.9,4.6,1.9s3.3-0.6,4.6-1.9c2.5-2.5,2.5-6.7,0-9.2
					C172.3,173.9,170.7,173.2,169,173.2L169,173.2z"/>
			</g>
			<g>
				<path class="st2" d="M175.5,196.6c1.2,0,2.3,0.5,3.2,1.3c1.8,1.8,1.8,4.6,0,6.4c-0.9,0.9-2,1.3-3.2,1.3s-2.3-0.5-3.2-1.3
					c-1.8-1.8-1.8-4.6,0-6.4C173.2,197.1,174.3,196.6,175.5,196.6 M175.5,194.6c-1.7,0-3.3,0.6-4.6,1.9c-2.5,2.5-2.5,6.7,0,9.2
					c1.3,1.3,2.9,1.9,4.6,1.9s3.3-0.6,4.6-1.9c2.5-2.5,2.5-6.7,0-9.2C178.9,195.3,177.2,194.6,175.5,194.6L175.5,194.6z"/>
			</g>
			<g>
				<path class="st2" d="M181.1,217.1c1.2,0,2.3,0.5,3.2,1.3c0.9,0.9,1.3,2,1.3,3.2s-0.5,2.3-1.3,3.2c-0.9,0.9-2,1.3-3.2,1.3
					s-2.3-0.5-3.2-1.3c-0.9-0.9-1.3-2-1.3-3.2s0.5-2.3,1.3-3.2C178.8,217.6,179.9,217.1,181.1,217.1 M181.1,215.1
					c-1.7,0-3.3,0.6-4.6,1.9c-2.5,2.5-2.5,6.7,0,9.2c1.3,1.3,2.9,1.9,4.6,1.9s3.3-0.6,4.6-1.9c2.5-2.5,2.5-6.7,0-9.2
					C184.4,215.7,182.8,215.1,181.1,215.1L181.1,215.1z"/>
			</g>
		</g>
		<g class="st1">
			<polyline class="st3" points="227.3,754 179,735.5 179,614.5 212.3,581.2 			"/>
			<polyline class="st3" points="206.8,762.3 158.5,743.9 158.5,608 198.1,568.4 			"/>
			<polyline class="st3" points="186.4,767.9 138,749.5 138,602.4 186.5,554 			"/>
			<g>
				<path class="st2" d="M216.8,572.1c1.2,0,2.3,0.5,3.2,1.3c0.9,0.9,1.3,2,1.3,3.2c0,1.2-0.5,2.3-1.3,3.2c-0.9,0.9-2,1.3-3.2,1.3
					s-2.3-0.5-3.2-1.3c-1.8-1.8-1.8-4.6,0-6.4C214.5,572.6,215.6,572.1,216.8,572.1 M216.8,570.1c-1.7,0-3.3,0.6-4.6,1.9
					c-2.5,2.5-2.5,6.7,0,9.2c1.3,1.3,2.9,1.9,4.6,1.9s3.3-0.6,4.6-1.9c2.5-2.5,2.5-6.7,0-9.2C220.2,570.7,218.5,570.1,216.8,570.1
					L216.8,570.1z"/>
			</g>
			<g>
				<path class="st2" d="M202.6,558.5c1.2,0,2.3,0.5,3.2,1.3c1.8,1.8,1.8,4.6,0,6.4c-0.9,0.9-2,1.3-3.2,1.3s-2.3-0.5-3.2-1.3
					c-1.8-1.8-1.8-4.6,0-6.4C200.2,558.9,201.4,558.5,202.6,558.5 M202.6,556.5c-1.7,0-3.3,0.6-4.6,1.9c-2.5,2.5-2.5,6.7,0,9.2
					c1.3,1.3,2.9,1.9,4.6,1.9s3.3-0.6,4.6-1.9c2.5-2.5,2.5-6.7,0-9.2C205.9,557.1,204.2,556.5,202.6,556.5L202.6,556.5z"/>
			</g>
			<g>
				<path class="st2" d="M189.9,545c1.2,0,2.3,0.5,3.2,1.3c1.8,1.8,1.8,4.6,0,6.4c-0.9,0.9-2,1.3-3.2,1.3c-1.2,0-2.3-0.5-3.2-1.3
					c-1.8-1.8-1.8-4.6,0-6.4C187.6,545.5,188.7,545,189.9,545 M189.9,543c-1.7,0-3.3,0.6-4.6,1.9c-2.5,2.5-2.5,6.7,0,9.2
					c1.3,1.3,2.9,1.9,4.6,1.9s3.3-0.6,4.6-1.9c2.5-2.5,2.5-6.7,0-9.2C193.3,543.7,191.6,543,189.9,543L189.9,543z"/>
			</g>
		</g>
		<g class="st1">
			<polyline class="st3" points="831.2,321.4 864.5,288.1 864.5,175.4 824.9,135.7 824.9,-36.9 			"/>
			<polyline class="st3" points="845.4,334.2 885,294.7 885,170.1 844.9,130 845.1,-36.9 			"/>
			<polyline class="st3" points="857,348.7 905.4,300.2 905.4,159.7 867.4,121.7 867.4,-38.3 			"/>
			<g>
				<path class="st2" d="M826.7,321.5c1.2,0,2.3,0.5,3.2,1.3c1.8,1.8,1.8,4.6,0,6.4c-0.9,0.9-2,1.3-3.2,1.3c-1.2,0-2.3-0.5-3.2-1.3
					c-1.8-1.8-1.8-4.6,0-6.4C824.3,322,825.5,321.5,826.7,321.5 M826.7,319.5c-1.7,0-3.3,0.6-4.6,1.9c-2.5,2.5-2.5,6.7,0,9.2
					c1.3,1.3,2.9,1.9,4.6,1.9s3.3-0.6,4.6-1.9c2.5-2.5,2.5-6.7,0-9.2C830,320.1,828.3,319.5,826.7,319.5L826.7,319.5z"/>
			</g>
			<g>
				<path class="st2" d="M840.9,335.1c1.2,0,2.3,0.5,3.2,1.3c1.8,1.8,1.8,4.6,0,6.4c-0.9,0.9-2,1.3-3.2,1.3c-1.2,0-2.3-0.5-3.2-1.3
					s-1.3-2-1.3-3.2s0.5-2.3,1.3-3.2C838.6,335.6,839.7,335.1,840.9,335.1 M840.9,333.1c-1.7,0-3.3,0.6-4.6,1.9
					c-2.5,2.5-2.5,6.7,0,9.2c1.3,1.3,2.9,1.9,4.6,1.9s3.3-0.6,4.6-1.9c2.5-2.5,2.5-6.7,0-9.2C844.3,333.8,842.6,333.1,840.9,333.1
					L840.9,333.1z"/>
			</g>
			<g>
				<path class="st2" d="M853.5,348.6c1.2,0,2.3,0.5,3.2,1.3c1.8,1.8,1.8,4.6,0,6.4c-0.9,0.9-2,1.3-3.2,1.3c-1.2,0-2.3-0.5-3.2-1.3
					c-1.8-1.8-1.8-4.6,0-6.4C851.2,349,852.3,348.6,853.5,348.6 M853.5,346.6c-1.7,0-3.3,0.6-4.6,1.9c-2.5,2.5-2.5,6.7,0,9.2
					c1.3,1.3,2.9,1.9,4.6,1.9s3.3-0.6,4.6-1.9c2.5-2.5,2.5-6.7,0-9.2C856.9,347.2,855.2,346.6,853.5,346.6L853.5,346.6z"/>
			</g>
		</g>
		<g class="st1">
			<polyline class="st3" points="625.6,-27.8 625.6,212.1 673.9,260.4 673.9,351.5 562.4,463.1 			"/>
			<polyline class="st3" points="646,-36.2 646,203.7 694.4,252.1 694.4,358.1 582.8,469.6 			"/>
			<polyline class="st3" points="666.5,-41.8 666.5,198.1 714.8,246.5 714.8,363.6 603.3,475.2 			"/>
			<g>
				<path class="st2" d="M557.7,463.3c1.2,0,2.3,0.5,3.2,1.3c1.8,1.8,1.8,4.6,0,6.4c-0.9,0.9-2,1.3-3.2,1.3c-1.2,0-2.3-0.5-3.2-1.3
					c-1.8-1.8-1.8-4.6,0-6.4C555.4,463.7,556.5,463.3,557.7,463.3 M557.7,461.3c-1.7,0-3.3,0.6-4.6,1.9c-2.5,2.5-2.5,6.7,0,9.2
					c1.3,1.3,2.9,1.9,4.6,1.9s3.3-0.6,4.6-1.9c2.5-2.5,2.5-6.7,0-9.2C561,461.9,559.4,461.3,557.7,461.3L557.7,461.3z"/>
			</g>
			<g>
				<path class="st2" d="M579.1,469.8c1.2,0,2.3,0.5,3.2,1.3c1.8,1.8,1.8,4.6,0,6.4c-0.9,0.9-2,1.3-3.2,1.3s-2.3-0.5-3.2-1.3
					c-0.9-0.9-1.3-2-1.3-3.2s0.5-2.3,1.3-3.2C576.8,470.2,577.9,469.8,579.1,469.8 M579.1,467.8c-1.7,0-3.3,0.6-4.6,1.9
					c-2.5,2.5-2.5,6.7,0,9.2c1.3,1.3,2.9,1.9,4.6,1.9s3.3-0.6,4.6-1.9c2.5-2.5,2.5-6.7,0-9.2C582.4,468.4,580.8,467.8,579.1,467.8
					L579.1,467.8z"/>
			</g>
			<g>
				<path class="st2" d="M599.5,475.4c1.2,0,2.3,0.5,3.2,1.3c1.8,1.8,1.8,4.6,0,6.4c-0.9,0.9-2,1.3-3.2,1.3s-2.3-0.5-3.2-1.3
					c-1.8-1.8-1.8-4.6,0-6.4C597.2,475.8,598.3,475.4,599.5,475.4 M599.5,473.4c-1.7,0-3.3,0.6-4.6,1.9c-2.5,2.5-2.5,6.7,0,9.2
					c1.3,1.3,2.9,1.9,4.6,1.9s3.3-0.6,4.6-1.9c2.5-2.5,2.5-6.7,0-9.2C602.9,474,601.2,473.4,599.5,473.4L599.5,473.4z"/>
			</g>
		</g>
		<g class="st1">
			<g>
				<g>
					<path class="st2" d="M711.6,161.1c2.5,0,4.5,2,4.5,4.5c0,2.5-2,4.5-4.5,4.5s-4.5-2-4.5-4.5
						C707.1,163.2,709.1,161.1,711.6,161.1 M711.6,159.1c-3.6,0-6.5,2.9-6.5,6.5c0,3.6,2.9,6.5,6.5,6.5s6.5-2.9,6.5-6.5
						C718.1,162.1,715.2,159.1,711.6,159.1L711.6,159.1z"/>
				</g>
				<line class="st3" x1="712.3" y1="5.9" x2="711.4" y2="158.7"/>
			</g>
			<g>
				<g>
					<path class="st2" d="M728.7,161.1c2.5,0,4.5,2,4.5,4.5c0,2.5-2,4.5-4.5,4.5s-4.5-2-4.5-4.5
						C724.1,163.2,726.2,161.1,728.7,161.1 M728.7,159.1c-3.6,0-6.5,2.9-6.5,6.5c0,3.6,2.9,6.5,6.5,6.5s6.5-2.9,6.5-6.5
						C735.2,162.1,732.2,159.1,728.7,159.1L728.7,159.1z"/>
				</g>
				<line class="st3" x1="729" y1="5.9" x2="729" y2="158.5"/>
			</g>
			<g>
				<g>
					<path class="st2" d="M745.8,161.1c2.5,0,4.5,2,4.5,4.5c0,2.5-2,4.5-4.5,4.5s-4.5-2-4.5-4.5
						C741.2,163.2,743.3,161.1,745.8,161.1 M745.8,159.1c-3.6,0-6.5,2.9-6.5,6.5c0,3.6,2.9,6.5,6.5,6.5s6.5-2.9,6.5-6.5
						C752.3,162.1,749.3,159.1,745.8,159.1L745.8,159.1z"/>
				</g>
				<line class="st3" x1="745.8" y1="5.9" x2="745.8" y2="158.5"/>
			</g>
			<g>
				<g>
					<path class="st2" d="M762.8,161.1c2.5,0,4.5,2,4.5,4.5c0,2.5-2,4.5-4.5,4.5s-4.5-2-4.5-4.5
						C758.3,163.2,760.4,161.1,762.8,161.1 M762.8,159.1c-3.6,0-6.5,2.9-6.5,6.5c0,3.6,2.9,6.5,6.5,6.5s6.5-2.9,6.5-6.5
						C769.4,162.1,766.4,159.1,762.8,159.1L762.8,159.1z"/>
				</g>
				<line class="st3" x1="762.5" y1="6.2" x2="762.5" y2="158.5"/>
			</g>
		</g>
		<g class="st1">
			<g>
				<g>
					<path class="st2" d="M939.5,45.8c2.5,0,4.5,2,4.5,4.5s-2,4.5-4.5,4.5s-4.5-2-4.5-4.5S937,45.8,939.5,45.8 M939.5,43.8
						c-3.6,0-6.5,2.9-6.5,6.5s2.9,6.5,6.5,6.5s6.5-2.9,6.5-6.5S943.1,43.8,939.5,43.8L939.5,43.8z"/>
				</g>
				<line class="st3" x1="940.2" y1="-109.5" x2="939.3" y2="43.3"/>
			</g>
			<g>
				<g>
					<path class="st2" d="M956.6,45.8c2.5,0,4.5,2,4.5,4.5s-2,4.5-4.5,4.5s-4.5-2-4.5-4.5S954.1,45.8,956.6,45.8 M956.6,43.8
						c-3.6,0-6.5,2.9-6.5,6.5s2.9,6.5,6.5,6.5s6.5-2.9,6.5-6.5S960.2,43.8,956.6,43.8L956.6,43.8z"/>
				</g>
				<line class="st3" x1="957" y1="-109.5" x2="957" y2="43.1"/>
			</g>
			<g>
				<g>
					<path class="st2" d="M973.7,45.8c2.5,0,4.5,2,4.5,4.5s-2,4.5-4.5,4.5s-4.5-2-4.5-4.5S971.2,45.8,973.7,45.8 M973.7,43.8
						c-3.6,0-6.5,2.9-6.5,6.5s2.9,6.5,6.5,6.5s6.5-2.9,6.5-6.5S977.3,43.8,973.7,43.8L973.7,43.8z"/>
				</g>
				<line class="st3" x1="973.7" y1="-109.5" x2="973.7" y2="43.1"/>
			</g>
			<g>
				<g>
					<path class="st2" d="M990.8,45.8c2.5,0,4.5,2,4.5,4.5s-2,4.5-4.5,4.5s-4.5-2-4.5-4.5S988.3,45.8,990.8,45.8 M990.8,43.8
						c-3.6,0-6.5,2.9-6.5,6.5s2.9,6.5,6.5,6.5s6.5-2.9,6.5-6.5S994.4,43.8,990.8,43.8L990.8,43.8z"/>
				</g>
				<line class="st3" x1="990.5" y1="-109.2" x2="990.5" y2="43.1"/>
			</g>
		</g>
		<g class="st1">
			<g>
				<g>
					<path class="st2" d="M265.6,455.9c2.5,0,4.5,2,4.5,4.5s-2,4.5-4.5,4.5c-2.5,0-4.5-2-4.5-4.5S263.2,455.9,265.6,455.9
						 M265.6,453.9c-3.6,0-6.5,2.9-6.5,6.5s2.9,6.5,6.5,6.5s6.5-2.9,6.5-6.5S269.2,453.9,265.6,453.9L265.6,453.9z"/>
				</g>
				<polyline class="st3" points="319.4,858.9 319.4,695.2 266.4,642.2 265.5,467.4 				"/>
			</g>
			<g>
				<g>
					<path class="st2" d="M282.7,455.9c2.5,0,4.5,2,4.5,4.5s-2,4.5-4.5,4.5c-2.5,0-4.5-2-4.5-4.5S280.2,455.9,282.7,455.9
						 M282.7,453.9c-3.6,0-6.5,2.9-6.5,6.5s2.9,6.5,6.5,6.5c3.6,0,6.5-2.9,6.5-6.5S286.3,453.9,282.7,453.9L282.7,453.9z"/>
				</g>
				<polyline class="st3" points="336.1,851.4 336.1,687.8 283.1,634.8 283.1,467.6 				"/>
			</g>
			<g>
				<g>
					<path class="st2" d="M299.8,455.9c2.5,0,4.5,2,4.5,4.5s-2,4.5-4.5,4.5c-2.5,0-4.5-2-4.5-4.5S297.3,455.9,299.8,455.9
						 M299.8,453.9c-3.6,0-6.5,2.9-6.5,6.5s2.9,6.5,6.5,6.5s6.5-2.9,6.5-6.5S303.4,453.9,299.8,453.9L299.8,453.9z"/>
				</g>
				<polyline class="st3" points="352.9,844 352.9,680.3 299.9,627.3 299.9,467.6 				"/>
			</g>
			<g>
				<g>
					<path class="st2" d="M316.9,455.9c2.5,0,4.5,2,4.5,4.5s-2,4.5-4.5,4.5s-4.5-2-4.5-4.5S314.4,455.9,316.9,455.9 M316.9,453.9
						c-3.6,0-6.5,2.9-6.5,6.5s2.9,6.5,6.5,6.5s6.5-2.9,6.5-6.5S320.5,453.9,316.9,453.9L316.9,453.9z"/>
				</g>
				<polyline class="st3" points="369.6,836.5 369.6,672.9 316.6,619.9 316.6,467.6 				"/>
			</g>
		</g>
		<g class="st1">
			<g>
				<path class="st2" d="M521,310.6c2.5,0,4.5,2,4.5,4.5c0,2.5-2,4.5-4.5,4.5s-4.5-2-4.5-4.5C516.5,312.7,518.5,310.6,521,310.6
					 M521,308.6c-3.6,0-6.5,2.9-6.5,6.5c0,3.6,2.9,6.5,6.5,6.5c3.6,0,6.5-2.9,6.5-6.5C527.5,311.6,524.6,308.6,521,308.6L521,308.6z
					"/>
			</g>
			<polyline class="st3" points="599.3,-30.5 599.3,187.5 521.7,265.1 521.7,309.3 			"/>
		</g>
		<g class="st1">
			<g>
				<path class="st2" d="M370,116.9c2.5,0,4.5,2,4.5,4.5c0,2.5-2,4.5-4.5,4.5s-4.5-2-4.5-4.5C365.5,118.9,367.5,116.9,370,116.9
					 M370,114.9c-3.6,0-6.5,2.9-6.5,6.5c0,3.6,2.9,6.5,6.5,6.5c3.6,0,6.5-2.9,6.5-6.5C376.5,117.8,373.6,114.9,370,114.9L370,114.9z
					"/>
			</g>
			<polyline class="st3" points="435.5,-17.6 435.5,50.7 462.5,77.8 462.5,131.9 392.7,201.8 369.9,201.8 369.9,127.7 			"/>
		</g>
		<g class="st1">
			<g>
				<path class="st2" d="M73.7,384.7c2.5,0,4.5,2,4.5,4.5c0,2.5-2,4.5-4.5,4.5c-2.5,0-4.5-2-4.5-4.5
					C69.2,386.8,71.2,384.7,73.7,384.7 M73.7,382.7c-3.6,0-6.5,2.9-6.5,6.5c0,3.6,2.9,6.5,6.5,6.5s6.5-2.9,6.5-6.5
					C80.2,385.6,77.3,382.7,73.7,382.7L73.7,382.7z"/>
			</g>
			<g>
				<g>
					<path class="st2" d="M174.8,283.6c2.5,0,4.5,2,4.5,4.5c0,2.5-2,4.5-4.5,4.5s-4.5-2-4.5-4.5
						C170.3,285.6,172.3,283.6,174.8,283.6 M174.8,281.6c-3.6,0-6.5,2.9-6.5,6.5c0,3.6,2.9,6.5,6.5,6.5s6.5-2.9,6.5-6.5
						C181.3,284.5,178.4,281.6,174.8,281.6L174.8,281.6z"/>
				</g>
				<line class="st3" x1="77.9" y1="385.5" x2="170.5" y2="292.9"/>
			</g>
		</g>
		<g class="st1">
			<g>
				<path class="st2" d="M217.6,470.2c2.5,0,4.5,2,4.5,4.5c0,2.5-2,4.5-4.5,4.5c-2.5,0-4.5-2-4.5-4.5
					C213.1,472.2,215.1,470.2,217.6,470.2 M217.6,468.2c-3.6,0-6.5,2.9-6.5,6.5c0,3.6,2.9,6.5,6.5,6.5s6.5-2.9,6.5-6.5
					C224.1,471.1,221.2,468.2,217.6,468.2L217.6,468.2z"/>
			</g>
			<g>
				<g>
					<path class="st2" d="M43.7,581.3c2.5,0,4.5,2,4.5,4.5c0,2.5-2,4.5-4.5,4.5s-4.5-2-4.5-4.5C39.2,583.4,41.3,581.3,43.7,581.3
						 M43.7,579.3c-3.6,0-6.5,2.9-6.5,6.5c0,3.6,2.9,6.5,6.5,6.5s6.5-2.9,6.5-6.5C50.3,582.2,47.3,579.3,43.7,579.3L43.7,579.3z"/>
				</g>
				<polyline class="st3" points="213.2,479.6 106.4,586.4 51.5,586.4 				"/>
			</g>
		</g>
		<g class="st1">
			<g>
				<path class="st2" d="M224.7,617c2.5,0,4.5,2,4.5,4.5s-2,4.5-4.5,4.5c-2.5,0-4.5-2-4.5-4.5S222.2,617,224.7,617 M224.7,615
					c-3.6,0-6.5,2.9-6.5,6.5c0,3.6,2.9,6.5,6.5,6.5s6.5-2.9,6.5-6.5C231.2,617.9,228.3,615,224.7,615L224.7,615z"/>
			</g>
			<g>
				<path class="st2" d="M246.1,695.3c2.5,0,4.5,2,4.5,4.5c0,2.5-2,4.5-4.5,4.5c-2.5,0-4.5-2-4.5-4.5
					C241.5,697.3,243.6,695.3,246.1,695.3 M246.1,693.3c-3.6,0-6.5,2.9-6.5,6.5c0,3.6,2.9,6.5,6.5,6.5s6.5-2.9,6.5-6.5
					C252.6,696.2,249.6,693.3,246.1,693.3L246.1,693.3z"/>
			</g>
			<polyline class="st3" points="224.6,628.4 224.6,677.6 242.4,695.4 			"/>
		</g>
		<g class="st1">
			<g>
				<path class="st2" d="M362.9,609.8c2.5,0,4.5,2,4.5,4.5c0,2.5-2,4.5-4.5,4.5s-4.5-2-4.5-4.5C358.4,611.8,360.4,609.8,362.9,609.8
					 M362.9,607.8c-3.6,0-6.5,2.9-6.5,6.5c0,3.6,2.9,6.5,6.5,6.5s6.5-2.9,6.5-6.5C369.4,610.7,366.5,607.8,362.9,607.8L362.9,607.8z
					"/>
			</g>
			<g>
				<path class="st2" d="M409.9,437.4c2.5,0,4.5,2,4.5,4.5c0,2.5-2,4.5-4.5,4.5s-4.5-2-4.5-4.5C405.4,439.5,407.4,437.4,409.9,437.4
					 M409.9,435.4c-3.6,0-6.5,2.9-6.5,6.5c0,3.6,2.9,6.5,6.5,6.5s6.5-2.9,6.5-6.5C416.4,438.4,413.5,435.4,409.9,435.4L409.9,435.4z
					"/>
			</g>
			<polyline class="st3" points="362.8,608.5 362.8,549.4 410.5,501.6 410.5,448.9 			"/>
		</g>
		<g class="st1">
			<g>
				<path class="st2" d="M432.7,383.3c2.5,0,4.5,2,4.5,4.5c0,2.5-2,4.5-4.5,4.5s-4.5-2-4.5-4.5C428.2,385.3,430.2,383.3,432.7,383.3
					 M432.7,381.3c-3.6,0-6.5,2.9-6.5,6.5c0,3.6,2.9,6.5,6.5,6.5c3.6,0,6.5-2.9,6.5-6.5C439.2,384.2,436.3,381.3,432.7,381.3
					L432.7,381.3z"/>
			</g>
			<g>
				<g>
					<path class="st2" d="M276,302.1c2.5,0,4.5,2,4.5,4.5c0,2.5-2,4.5-4.5,4.5s-4.5-2-4.5-4.5C271.5,304.1,273.5,302.1,276,302.1
						 M276,300.1c-3.6,0-6.5,2.9-6.5,6.5c0,3.6,2.9,6.5,6.5,6.5s6.5-2.9,6.5-6.5C282.5,303,279.6,300.1,276,300.1L276,300.1z"/>
				</g>
				<polyline class="st3" points="432.6,383.4 432.6,344.2 394.9,306.5 283.7,306.5 				"/>
			</g>
		</g>
		<g class="st1">
			<g>
				<g>
					<path class="st2" d="M89.3,198.1c2.5,0,4.5,2,4.5,4.5c0,2.5-2,4.5-4.5,4.5s-4.5-2-4.5-4.5C84.8,200.1,86.9,198.1,89.3,198.1
						 M89.3,196.1c-3.6,0-6.5,2.9-6.5,6.5c0,3.6,2.9,6.5,6.5,6.5s6.5-2.9,6.5-6.5C95.8,199,92.9,196.1,89.3,196.1L89.3,196.1z"/>
				</g>
				<g>
					<path class="st2" d="M254.6-37c2.5,0,4.5,2,4.5,4.5c0,2.5-2,4.5-4.5,4.5c-2.5,0-4.5-2-4.5-4.5C250.1-34.9,252.1-37,254.6-37
						 M254.6-39c-3.6,0-6.5,2.9-6.5,6.5c0,3.6,2.9,6.5,6.5,6.5c3.6,0,6.5-2.9,6.5-6.5C261.1-36.1,258.2-39,254.6-39L254.6-39z"/>
				</g>
				<polyline class="st3" points="92.1,198.9 178.3,112.7 178.3,43.6 252,-30.1 				"/>
			</g>
			<g>
				<g>
					<path class="st2" d="M73.7,185.3c2.5,0,4.5,2,4.5,4.5c0,2.5-2,4.5-4.5,4.5c-2.5,0-4.5-2-4.5-4.5
						C69.2,187.3,71.2,185.3,73.7,185.3 M73.7,183.3c-3.6,0-6.5,2.9-6.5,6.5c0,3.6,2.9,6.5,6.5,6.5s6.5-2.9,6.5-6.5
						C80.2,186.2,77.3,183.3,73.7,183.3L73.7,183.3z"/>
				</g>
				<g>
					<path class="st2" d="M238.9-49.8c2.5,0,4.5,2,4.5,4.5c0,2.5-2,4.5-4.5,4.5c-2.5,0-4.5-2-4.5-4.5
						C234.4-47.8,236.4-49.8,238.9-49.8 M238.9-51.8c-3.6,0-6.5,2.9-6.5,6.5c0,3.6,2.9,6.5,6.5,6.5s6.5-2.9,6.5-6.5
						C245.4-48.9,242.5-51.8,238.9-51.8L238.9-51.8z"/>
				</g>
				<polyline class="st3" points="76.4,186.1 162.6,99.9 162.6,30.8 236.4,-42.9 				"/>
			</g>
			<g>
				<g>
					<path class="st2" d="M58,172.5c2.5,0,4.5,2,4.5,4.5c0,2.5-2,4.5-4.5,4.5c-2.5,0-4.5-2-4.5-4.5C53.5,174.5,55.5,172.5,58,172.5
						 M58,170.5c-3.6,0-6.5,2.9-6.5,6.5c0,3.6,2.9,6.5,6.5,6.5c3.6,0,6.5-2.9,6.5-6.5C64.5,173.4,61.6,170.5,58,170.5L58,170.5z"/>
				</g>
				<g>
					<path class="st2" d="M223.3-62.6c2.5,0,4.5,2,4.5,4.5c0,2.5-2,4.5-4.5,4.5s-4.5-2-4.5-4.5C218.7-60.6,220.8-62.6,223.3-62.6
						 M223.3-64.6c-3.6,0-6.5,2.9-6.5,6.5c0,3.6,2.9,6.5,6.5,6.5s6.5-2.9,6.5-6.5C229.8-61.7,226.9-64.6,223.3-64.6L223.3-64.6z"/>
				</g>
				<polyline class="st3" points="60.8,173.3 147,87.1 147,18 220.7,-55.8 				"/>
			</g>
		</g>
		<g class="st1">
			<g>
				<g>
					<path class="st2" d="M966.9,645.4c2.5,0,4.5,2,4.5,4.5s-2,4.5-4.5,4.5s-4.5-2-4.5-4.5S964.4,645.4,966.9,645.4 M966.9,643.4
						c-3.6,0-6.5,2.9-6.5,6.5c0,3.6,2.9,6.5,6.5,6.5s6.5-2.9,6.5-6.5C973.4,646.4,970.5,643.4,966.9,643.4L966.9,643.4z"/>
				</g>
				<polyline class="st3" points="865,820.8 865,751.7 962.2,654.4 				"/>
				<g>
					<path class="st2" d="M938.4,645.4c2.5,0,4.5,2,4.5,4.5s-2,4.5-4.5,4.5s-4.5-2-4.5-4.5S936,645.4,938.4,645.4 M938.4,643.4
						c-3.6,0-6.5,2.9-6.5,6.5c0,3.6,2.9,6.5,6.5,6.5s6.5-2.9,6.5-6.5C944.9,646.4,942,643.4,938.4,643.4L938.4,643.4z"/>
				</g>
				<polyline class="st3" points="849.3,807.9 849.3,738.9 933.7,654.4 				"/>
				<g>
					<g>
						<path class="st2" d="M909.9,645.4c2.5,0,4.5,2,4.5,4.5s-2,4.5-4.5,4.5s-4.5-2-4.5-4.5S907.5,645.4,909.9,645.4 M909.9,643.4
							c-3.6,0-6.5,2.9-6.5,6.5c0,3.6,2.9,6.5,6.5,6.5s6.5-2.9,6.5-6.5C916.5,646.4,913.5,643.4,909.9,643.4L909.9,643.4z"/>
					</g>
					<polyline class="st3" points="833.7,795.1 833.7,726 905.2,654.4 					"/>
				</g>
			</g>
		</g>
		<g class="st1">
			<g>
				<path class="st2" d="M221.8,68.5c2.5,0,4.5,2,4.5,4.5c0,2.5-2,4.5-4.5,4.5c-2.5,0-4.5-2-4.5-4.5
					C217.3,70.5,219.3,68.5,221.8,68.5 M221.8,66.5c-3.6,0-6.5,2.9-6.5,6.5c0,3.6,2.9,6.5,6.5,6.5c3.6,0,6.5-2.9,6.5-6.5
					C228.3,69.4,225.4,66.5,221.8,66.5L221.8,66.5z"/>
			</g>
			<g>
				<path class="st2" d="M221.8,191c2.5,0,4.5,2,4.5,4.5c0,2.5-2,4.5-4.5,4.5c-2.5,0-4.5-2-4.5-4.5C217.3,193,219.3,191,221.8,191
					 M221.8,189c-3.6,0-6.5,2.9-6.5,6.5c0,3.6,2.9,6.5,6.5,6.5c3.6,0,6.5-2.9,6.5-6.5C228.3,191.9,225.4,189,221.8,189L221.8,189z"
					/>
			</g>
			<line class="st3" x1="221.8" y1="188.9" x2="221.8" y2="79.2"/>
		</g>
		<g class="st1">
			<g>
				<path class="st2" d="M111.4,62c2.5,0,4.5,2,4.5,4.5c0,2.5-2,4.5-4.5,4.5c-2.5,0-4.5-2-4.5-4.5C106.9,64.1,108.9,62,111.4,62
					 M111.4,60c-3.6,0-6.5,2.9-6.5,6.5c0,3.6,2.9,6.5,6.5,6.5s6.5-2.9,6.5-6.5C117.9,63,115,60,111.4,60L111.4,60z"/>
			</g>
			<g>
				<path class="st2" d="M35.9,62c2.5,0,4.5,2,4.5,4.5c0,2.5-2,4.5-4.5,4.5c-2.5,0-4.5-2-4.5-4.5C31.4,64.1,33.4,62,35.9,62
					 M35.9,60c-3.6,0-6.5,2.9-6.5,6.5c0,3.6,2.9,6.5,6.5,6.5s6.5-2.9,6.5-6.5C42.4,63,39.5,60,35.9,60L35.9,60z"/>
			</g>
			<line class="st3" x1="41.8" y1="66.5" x2="103.7" y2="66.5"/>
		</g>
		<g class="st1">
			<g>
				<path class="st2" d="M516,586.3c2.5,0,4.5,2,4.5,4.5c0,2.5-2,4.5-4.5,4.5s-4.5-2-4.5-4.5C511.5,588.3,513.5,586.3,516,586.3
					 M516,584.3c-3.6,0-6.5,2.9-6.5,6.5c0,3.6,2.9,6.5,6.5,6.5c3.6,0,6.5-2.9,6.5-6.5C522.5,587.2,519.6,584.3,516,584.3L516,584.3z
					"/>
			</g>
			<polyline class="st3" points="516,597.1 516,671.2 547.3,702.5 550.1,842.1 			"/>
		</g>
		<g class="st1">
			<g>
				<path class="st2" d="M610.1,688.9c2.5,0,4.5,2,4.5,4.5c0,2.5-2,4.5-4.5,4.5s-4.5-2-4.5-4.5C605.5,690.9,607.6,688.9,610.1,688.9
					 M610.1,686.9c-3.6,0-6.5,2.9-6.5,6.5c0,3.6,2.9,6.5,6.5,6.5s6.5-2.9,6.5-6.5C616.6,689.8,613.6,686.9,610.1,686.9L610.1,686.9z
					"/>
			</g>
			<g>
				<path class="st2" d="M781,688.9c2.5,0,4.5,2,4.5,4.5c0,2.5-2,4.5-4.5,4.5s-4.5-2-4.5-4.5C776.5,690.9,778.5,688.9,781,688.9
					 M781,686.9c-3.6,0-6.5,2.9-6.5,6.5c0,3.6,2.9,6.5,6.5,6.5s6.5-2.9,6.5-6.5C787.5,689.8,784.6,686.9,781,686.9L781,686.9z"/>
			</g>
			<line class="st3" x1="617.1" y1="694" x2="773.8" y2="694"/>
		</g>
		<g class="st1">
			<g>
				<path class="st2" d="M993.3,696c2.5,0,4.5,2,4.5,4.5c0,2.5-2,4.5-4.5,4.5s-4.5-2-4.5-4.5C988.8,698,990.8,696,993.3,696
					 M993.3,694c-3.6,0-6.5,2.9-6.5,6.5c0,3.6,2.9,6.5,6.5,6.5s6.5-2.9,6.5-6.5C999.8,696.9,996.9,694,993.3,694L993.3,694z"/>
			</g>
			<g>
				<path class="st2" d="M1028.9,660.4c2.5,0,4.5,2,4.5,4.5c0,2.5-2,4.5-4.5,4.5s-4.5-2-4.5-4.5
					C1024.4,662.4,1026.4,660.4,1028.9,660.4 M1028.9,658.4c-3.6,0-6.5,2.9-6.5,6.5c0,3.6,2.9,6.5,6.5,6.5s6.5-2.9,6.5-6.5
					C1035.4,661.3,1032.5,658.4,1028.9,658.4L1028.9,658.4z"/>
			</g>
			<line class="st3" x1="997.5" y1="696.8" x2="1024.6" y2="669.8"/>
		</g>
		<g class="st1">
			<g>
				<path class="st2" d="M789.6,550.7c2.5,0,4.5,2,4.5,4.5c0,2.5-2,4.5-4.5,4.5s-4.5-2-4.5-4.5C785.1,552.7,787.1,550.7,789.6,550.7
					 M789.6,548.7c-3.6,0-6.5,2.9-6.5,6.5c0,3.6,2.9,6.5,6.5,6.5c3.6,0,6.5-2.9,6.5-6.5C796.1,551.6,793.2,548.7,789.6,548.7
					L789.6,548.7z"/>
			</g>
			<g>
				<path class="st2" d="M667,550.7c2.5,0,4.5,2,4.5,4.5c0,2.5-2,4.5-4.5,4.5s-4.5-2-4.5-4.5C662.5,552.7,664.6,550.7,667,550.7
					 M667,548.7c-3.6,0-6.5,2.9-6.5,6.5c0,3.6,2.9,6.5,6.5,6.5c3.6,0,6.5-2.9,6.5-6.5C673.6,551.6,670.6,548.7,667,548.7L667,548.7z
					"/>
			</g>
			<line class="st3" x1="782.4" y1="555.8" x2="674.1" y2="555.8"/>
		</g>
		<g class="st1">
			<g>
				<path class="st2" d="M762.5,334.2c2.5,0,4.5,2,4.5,4.5c0,2.5-2,4.5-4.5,4.5s-4.5-2-4.5-4.5C758,336.2,760,334.2,762.5,334.2
					 M762.5,332.2c-3.6,0-6.5,2.9-6.5,6.5c0,3.6,2.9,6.5,6.5,6.5s6.5-2.9,6.5-6.5C769,335.1,766.1,332.2,762.5,332.2L762.5,332.2z"
					/>
			</g>
			<g>
				<path class="st2" d="M795.3,200.2c2.5,0,4.5,2,4.5,4.5c0,2.5-2,4.5-4.5,4.5s-4.5-2-4.5-4.5C790.8,202.3,792.8,200.2,795.3,200.2
					 M795.3,198.2c-3.6,0-6.5,2.9-6.5,6.5c0,3.6,2.9,6.5,6.5,6.5s6.5-2.9,6.5-6.5C801.8,201.1,798.9,198.2,795.3,198.2L795.3,198.2z
					"/>
			</g>
			<polyline class="st3" points="762.4,332.1 762.4,280.8 795.9,247.3 795.9,209.6 			"/>
		</g>
		<g class="st1">
			<g>
				<path class="st2" d="M892.1,70.6c2.5,0,4.5,2,4.5,4.5c0,2.5-2,4.5-4.5,4.5s-4.5-2-4.5-4.5C887.6,72.6,889.7,70.6,892.1,70.6
					 M892.1,68.6c-3.6,0-6.5,2.9-6.5,6.5c0,3.6,2.9,6.5,6.5,6.5s6.5-2.9,6.5-6.5C898.6,71.5,895.7,68.6,892.1,68.6L892.1,68.6z"/>
			</g>
			<g>
				<path class="st2" d="M1031.8,70.6c2.5,0,4.5,2,4.5,4.5c0,2.5-2,4.5-4.5,4.5s-4.5-2-4.5-4.5C1027.2,72.6,1029.3,70.6,1031.8,70.6
					 M1031.8,68.6c-3.6,0-6.5,2.9-6.5,6.5c0,3.6,2.9,6.5,6.5,6.5s6.5-2.9,6.5-6.5C1038.3,71.5,1035.4,68.6,1031.8,68.6L1031.8,68.6z
					"/>
			</g>
			<polyline class="st3" points="896.3,79.9 925.5,109.1 997.5,109.1 1027.1,79.6 			"/>
		</g>
	</g>
	<g class="st0">
		<defs>
			<rect id="SVGID_3_" x="1034.5" y="2.8" class="st0" width="1068.5" height="712.3"/>
		</defs>
		<clipPath id="SVGID_4_">
			<use xlink:href="#SVGID_3_"  style="overflow:visible;"/>
		</clipPath>
		<g class="st4">
			<path class="st2" d="M1665.7,321.2c2.5,0,4.5,2,4.5,4.5c0,2.5-2,4.5-4.5,4.5c-2.5,0-4.5-2-4.5-4.5
				C1661.2,323.2,1663.2,321.2,1665.7,321.2 M1665.7,319.2c-3.6,0-6.5,2.9-6.5,6.5c0,3.6,2.9,6.5,6.5,6.5s6.5-2.9,6.5-6.5
				C1672.2,322.1,1669.3,319.2,1665.7,319.2L1665.7,319.2z"/>
		</g>
		<g class="st4">
			<path class="st2" d="M2057.5,265.6c2.5,0,4.5,2,4.5,4.5c0,2.5-2,4.5-4.5,4.5c-2.5,0-4.5-2-4.5-4.5
				C2053,267.6,2055,265.6,2057.5,265.6 M2057.5,263.6c-3.6,0-6.5,2.9-6.5,6.5c0,3.6,2.9,6.5,6.5,6.5s6.5-2.9,6.5-6.5
				C2064,266.5,2061.1,263.6,2057.5,263.6L2057.5,263.6z"/>
		</g>
		<g class="st4">
			<path class="st2" d="M1967.7,131.7c2.5,0,4.5,2,4.5,4.5c0,2.5-2,4.5-4.5,4.5s-4.5-2-4.5-4.5
				C1963.2,133.7,1965.2,131.7,1967.7,131.7 M1967.7,129.7c-3.6,0-6.5,2.9-6.5,6.5c0,3.6,2.9,6.5,6.5,6.5s6.5-2.9,6.5-6.5
				C1974.2,132.6,1971.3,129.7,1967.7,129.7L1967.7,129.7z"/>
		</g>
		<g class="st4">
			<path class="st2" d="M1775.4,197.2c2.5,0,4.5,2,4.5,4.5c0,2.5-2,4.5-4.5,4.5c-2.5,0-4.5-2-4.5-4.5
				C1770.9,199.2,1772.9,197.2,1775.4,197.2 M1775.4,195.2c-3.6,0-6.5,2.9-6.5,6.5c0,3.6,2.9,6.5,6.5,6.5s6.5-2.9,6.5-6.5
				C1781.9,198.1,1779,195.2,1775.4,195.2L1775.4,195.2z"/>
		</g>
		<g class="st4">
			<path class="st2" d="M1852.3,257c2.5,0,4.5,2,4.5,4.5c0,2.5-2,4.5-4.5,4.5c-2.5,0-4.5-2-4.5-4.5
				C1847.8,259.1,1849.8,257,1852.3,257 M1852.3,255c-3.6,0-6.5,2.9-6.5,6.5c0,3.6,2.9,6.5,6.5,6.5s6.5-2.9,6.5-6.5
				C1858.8,258,1855.9,255,1852.3,255L1852.3,255z"/>
		</g>
		<g class="st4">
			<path class="st2" d="M1665.7,264.2c2.5,0,4.5,2,4.5,4.5c0,2.5-2,4.5-4.5,4.5c-2.5,0-4.5-2-4.5-4.5
				C1661.2,266.2,1663.2,264.2,1665.7,264.2 M1665.7,262.2c-3.6,0-6.5,2.9-6.5,6.5c0,3.6,2.9,6.5,6.5,6.5s6.5-2.9,6.5-6.5
				C1672.2,265.1,1669.3,262.2,1665.7,262.2L1665.7,262.2z"/>
		</g>
		<g class="st4">
			<path class="st2" d="M1399.3,222.9c2.5,0,4.5,2,4.5,4.5c0,2.5-2,4.5-4.5,4.5s-4.5-2-4.5-4.5
				C1394.8,224.9,1396.8,222.9,1399.3,222.9 M1399.3,220.9c-3.6,0-6.5,2.9-6.5,6.5c0,3.6,2.9,6.5,6.5,6.5s6.5-2.9,6.5-6.5
				C1405.8,223.8,1402.9,220.9,1399.3,220.9L1399.3,220.9z"/>
		</g>
		<g class="st4">
			<path class="st2" d="M1097.3,93.2c2.5,0,4.5,2,4.5,4.5c0,2.5-2,4.5-4.5,4.5s-4.5-2-4.5-4.5C1092.7,95.2,1094.8,93.2,1097.3,93.2
				 M1097.3,91.2c-3.6,0-6.5,2.9-6.5,6.5c0,3.6,2.9,6.5,6.5,6.5s6.5-2.9,6.5-6.5C1103.8,94.1,1100.9,91.2,1097.3,91.2L1097.3,91.2z"
				/>
		</g>
		<g class="st4">
			<path class="st2" d="M1073.7,604c2.5,0,4.5,2,4.5,4.5s-2,4.5-4.5,4.5s-4.5-2-4.5-4.5S1071.3,604,1073.7,604 M1073.7,602
				c-3.6,0-6.5,2.9-6.5,6.5c0,3.6,2.9,6.5,6.5,6.5s6.5-2.9,6.5-6.5C1080.3,604.9,1077.3,602,1073.7,602L1073.7,602z"/>
		</g>
		<g class="st4">
			<path class="st2" d="M1130,660.2c2.5,0,4.5,2,4.5,4.5c0,2.5-2,4.5-4.5,4.5s-4.5-2-4.5-4.5C1125.5,662.2,1127.5,660.2,1130,660.2
				 M1130,658.2c-3.6,0-6.5,2.9-6.5,6.5c0,3.6,2.9,6.5,6.5,6.5s6.5-2.9,6.5-6.5C1136.5,661.1,1133.6,658.2,1130,658.2L1130,658.2z"
				/>
		</g>
		<g class="st4">
			<polyline class="st3" points="943.3,234.6 991.7,283 1082.8,283 1194.4,171.4 			"/>
			<polyline class="st3" points="934.9,255.1 983.3,303.4 1089.3,303.4 1200.9,191.9 			"/>
			<polyline class="st3" points="929.4,275.5 977.7,323.9 1094.9,323.9 1206.5,212.3 			"/>
			<g>
				<path class="st2" d="M1199,162.2c1.2,0,2.3,0.5,3.2,1.3c1.8,1.8,1.8,4.6,0,6.4c-0.9,0.9-2,1.3-3.2,1.3s-2.3-0.5-3.2-1.3
					c-1.8-1.8-1.8-4.6,0-6.4C1196.7,162.7,1197.8,162.2,1199,162.2 M1199,160.2c-1.7,0-3.3,0.6-4.6,1.9c-2.5,2.5-2.5,6.7,0,9.2
					c1.3,1.3,2.9,1.9,4.6,1.9s3.3-0.6,4.6-1.9c2.5-2.5,2.5-6.7,0-9.2C1202.3,160.9,1200.7,160.2,1199,160.2L1199,160.2z"/>
			</g>
			<g>
				<path class="st2" d="M1205.5,183.6c1.2,0,2.3,0.5,3.2,1.3c1.8,1.8,1.8,4.6,0,6.4c-0.9,0.9-2,1.3-3.2,1.3c-1.2,0-2.3-0.5-3.2-1.3
					c-1.8-1.8-1.8-4.6,0-6.4C1203.2,184.1,1204.3,183.6,1205.5,183.6 M1205.5,181.6c-1.7,0-3.3,0.6-4.6,1.9c-2.5,2.5-2.5,6.7,0,9.2
					c1.3,1.3,2.9,1.9,4.6,1.9s3.3-0.6,4.6-1.9c2.5-2.5,2.5-6.7,0-9.2C1208.9,182.3,1207.2,181.6,1205.5,181.6L1205.5,181.6z"/>
			</g>
			<g>
				<path class="st2" d="M1211.1,204.1c1.2,0,2.3,0.5,3.2,1.3c1.8,1.8,1.8,4.6,0,6.4c-0.9,0.9-2,1.3-3.2,1.3s-2.3-0.5-3.2-1.3
					c-1.8-1.8-1.8-4.6,0-6.4C1208.8,204.6,1209.9,204.1,1211.1,204.1 M1211.1,202.1c-1.7,0-3.3,0.6-4.6,1.9c-2.5,2.5-2.5,6.7,0,9.2
					c1.3,1.3,2.9,1.9,4.6,1.9s3.3-0.6,4.6-1.9c2.5-2.5,2.5-6.7,0-9.2C1214.4,202.7,1212.8,202.1,1211.1,202.1L1211.1,202.1z"/>
			</g>
		</g>
		<g class="st4">
			<polyline class="st3" points="1257.3,741 1209,722.5 1209,601.5 1242.3,568.2 			"/>
			<polyline class="st3" points="1236.8,749.3 1188.5,730.9 1188.5,595 1228.1,555.4 			"/>
			<polyline class="st3" points="1216.4,754.9 1168,736.5 1168,589.4 1216.5,541 			"/>
			<g>
				<path class="st2" d="M1246.8,559.1c1.2,0,2.3,0.5,3.2,1.3c1.8,1.8,1.8,4.6,0,6.4c-0.9,0.9-2,1.3-3.2,1.3c-1.2,0-2.3-0.5-3.2-1.3
					c-1.8-1.8-1.8-4.6,0-6.4C1244.5,559.6,1245.6,559.1,1246.8,559.1 M1246.8,557.1c-1.7,0-3.3,0.6-4.6,1.9c-2.5,2.5-2.5,6.7,0,9.2
					c1.3,1.3,2.9,1.9,4.6,1.9s3.3-0.6,4.6-1.9c2.5-2.5,2.5-6.7,0-9.2C1250.2,557.7,1248.5,557.1,1246.8,557.1L1246.8,557.1z"/>
			</g>
			<g>
				<path class="st2" d="M1232.6,545.5c1.2,0,2.3,0.5,3.2,1.3c1.8,1.8,1.8,4.6,0,6.4c-0.9,0.9-2,1.3-3.2,1.3s-2.3-0.5-3.2-1.3
					c-1.8-1.8-1.8-4.6,0-6.4C1230.2,545.9,1231.4,545.5,1232.6,545.5 M1232.6,543.5c-1.7,0-3.3,0.6-4.6,1.9c-2.5,2.5-2.5,6.7,0,9.2
					c1.3,1.3,2.9,1.9,4.6,1.9s3.3-0.6,4.6-1.9c2.5-2.5,2.5-6.7,0-9.2C1235.9,544.1,1234.2,543.5,1232.6,543.5L1232.6,543.5z"/>
			</g>
			<g>
				<path class="st2" d="M1219.9,532c1.2,0,2.3,0.5,3.2,1.3c1.8,1.8,1.8,4.6,0,6.4c-0.9,0.9-2,1.3-3.2,1.3s-2.3-0.5-3.2-1.3
					c-1.8-1.8-1.8-4.6,0-6.4C1217.6,532.5,1218.7,532,1219.9,532 M1219.9,530c-1.7,0-3.3,0.6-4.6,1.9c-2.5,2.5-2.5,6.7,0,9.2
					c1.3,1.3,2.9,1.9,4.6,1.9s3.3-0.6,4.6-1.9c2.5-2.5,2.5-6.7,0-9.2C1223.3,530.7,1221.6,530,1219.9,530L1219.9,530z"/>
			</g>
		</g>
		<g class="st4">
			<polyline class="st3" points="1861.2,308.4 1894.5,275.1 1894.5,162.4 1854.9,122.7 1854.9,-49.9 			"/>
			<polyline class="st3" points="1875.4,321.2 1915,281.7 1915,157.1 1874.9,117 1875.1,-49.9 			"/>
			<polyline class="st3" points="1887,335.7 1935.4,287.2 1935.4,146.7 1897.4,108.7 1897.4,-51.3 			"/>
			<g>
				<path class="st2" d="M1856.7,308.5c1.2,0,2.3,0.5,3.2,1.3c1.8,1.8,1.8,4.6,0,6.4c-0.9,0.9-2,1.3-3.2,1.3s-2.3-0.5-3.2-1.3
					c-1.8-1.8-1.8-4.6,0-6.4C1854.3,309,1855.5,308.5,1856.7,308.5 M1856.7,306.5c-1.7,0-3.3,0.6-4.6,1.9c-2.5,2.5-2.5,6.7,0,9.2
					c1.3,1.3,2.9,1.9,4.6,1.9s3.3-0.6,4.6-1.9c2.5-2.5,2.5-6.7,0-9.2C1860,307.1,1858.3,306.5,1856.7,306.5L1856.7,306.5z"/>
			</g>
			<g>
				<path class="st2" d="M1870.9,322.1c1.2,0,2.3,0.5,3.2,1.3c1.8,1.8,1.8,4.6,0,6.4c-0.9,0.9-2,1.3-3.2,1.3s-2.3-0.5-3.2-1.3
					c-0.9-0.9-1.3-2-1.3-3.2s0.5-2.3,1.3-3.2C1868.6,322.6,1869.7,322.1,1870.9,322.1 M1870.9,320.1c-1.7,0-3.3,0.6-4.6,1.9
					c-2.5,2.5-2.5,6.7,0,9.2c1.3,1.3,2.9,1.9,4.6,1.9s3.3-0.6,4.6-1.9c2.5-2.5,2.5-6.7,0-9.2
					C1874.3,320.8,1872.6,320.1,1870.9,320.1L1870.9,320.1z"/>
			</g>
			<g>
				<path class="st2" d="M1883.5,335.6c1.2,0,2.3,0.5,3.2,1.3c1.8,1.8,1.8,4.6,0,6.4c-0.9,0.9-2,1.3-3.2,1.3c-1.2,0-2.3-0.5-3.2-1.3
					c-1.8-1.8-1.8-4.6,0-6.4C1881.2,336,1882.3,335.6,1883.5,335.6 M1883.5,333.6c-1.7,0-3.3,0.6-4.6,1.9c-2.5,2.5-2.5,6.7,0,9.2
					c1.3,1.3,2.9,1.9,4.6,1.9c1.7,0,3.3-0.6,4.6-1.9c2.5-2.5,2.5-6.7,0-9.2C1886.9,334.2,1885.2,333.6,1883.5,333.6L1883.5,333.6z"
					/>
			</g>
		</g>
		<g class="st4">
			<polyline class="st3" points="1655.6,-40.8 1655.6,199.1 1703.9,247.4 1703.9,338.5 1592.4,450.1 			"/>
			<polyline class="st3" points="1676,-49.2 1676,190.7 1724.4,239.1 1724.4,345.1 1612.8,456.6 			"/>
			<polyline class="st3" points="1696.5,-54.8 1696.5,185.1 1744.8,233.5 1744.8,350.6 1633.3,462.2 			"/>
			<g>
				<path class="st2" d="M1587.7,450.3c1.2,0,2.3,0.5,3.2,1.3c1.8,1.8,1.8,4.6,0,6.4c-0.9,0.9-2,1.3-3.2,1.3c-1.2,0-2.3-0.5-3.2-1.3
					c-1.8-1.8-1.8-4.6,0-6.4C1585.4,450.7,1586.5,450.3,1587.7,450.3 M1587.7,448.3c-1.7,0-3.3,0.6-4.6,1.9c-2.5,2.5-2.5,6.7,0,9.2
					c1.3,1.3,2.9,1.9,4.6,1.9c1.7,0,3.3-0.6,4.6-1.9c2.5-2.5,2.5-6.7,0-9.2C1591,448.9,1589.4,448.3,1587.7,448.3L1587.7,448.3z"/>
			</g>
			<g>
				<path class="st2" d="M1609.1,456.8c1.2,0,2.3,0.5,3.2,1.3c1.8,1.8,1.8,4.6,0,6.4c-0.9,0.9-2,1.3-3.2,1.3s-2.3-0.5-3.2-1.3
					c-0.9-0.9-1.3-2-1.3-3.2s0.5-2.3,1.3-3.2C1606.8,457.2,1607.9,456.8,1609.1,456.8 M1609.1,454.8c-1.7,0-3.3,0.6-4.6,1.9
					c-2.5,2.5-2.5,6.7,0,9.2c1.3,1.3,2.9,1.9,4.6,1.9s3.3-0.6,4.6-1.9c2.5-2.5,2.5-6.7,0-9.2
					C1612.4,455.4,1610.8,454.8,1609.1,454.8L1609.1,454.8z"/>
			</g>
			<g>
				<path class="st2" d="M1629.5,462.4c1.2,0,2.3,0.5,3.2,1.3s1.3,2,1.3,3.2c0,1.2-0.5,2.3-1.3,3.2c-0.9,0.9-2,1.3-3.2,1.3
					s-2.3-0.5-3.2-1.3c-1.8-1.8-1.8-4.6,0-6.4C1627.2,462.8,1628.3,462.4,1629.5,462.4 M1629.5,460.4c-1.7,0-3.3,0.6-4.6,1.9
					c-2.5,2.5-2.5,6.7,0,9.2c1.3,1.3,2.9,1.9,4.6,1.9s3.3-0.6,4.6-1.9c2.5-2.5,2.5-6.7,0-9.2C1632.9,461,1631.2,460.4,1629.5,460.4
					L1629.5,460.4z"/>
			</g>
		</g>
		<g class="st4">
			<g>
				<g>
					<path class="st2" d="M1741.6,148.1c2.5,0,4.5,2,4.5,4.5c0,2.5-2,4.5-4.5,4.5s-4.5-2-4.5-4.5
						C1737.1,150.2,1739.1,148.1,1741.6,148.1 M1741.6,146.1c-3.6,0-6.5,2.9-6.5,6.5c0,3.6,2.9,6.5,6.5,6.5c3.6,0,6.5-2.9,6.5-6.5
						C1748.1,149.1,1745.2,146.1,1741.6,146.1L1741.6,146.1z"/>
				</g>
				<line class="st3" x1="1742.3" y1="-7.1" x2="1741.4" y2="145.7"/>
			</g>
			<g>
				<g>
					<path class="st2" d="M1758.7,148.1c2.5,0,4.5,2,4.5,4.5c0,2.5-2,4.5-4.5,4.5s-4.5-2-4.5-4.5
						C1754.1,150.2,1756.2,148.1,1758.7,148.1 M1758.7,146.1c-3.6,0-6.5,2.9-6.5,6.5c0,3.6,2.9,6.5,6.5,6.5c3.6,0,6.5-2.9,6.5-6.5
						C1765.2,149.1,1762.2,146.1,1758.7,146.1L1758.7,146.1z"/>
				</g>
				<line class="st3" x1="1759" y1="-7.1" x2="1759" y2="145.5"/>
			</g>
			<g>
				<g>
					<path class="st2" d="M1775.8,148.1c2.5,0,4.5,2,4.5,4.5c0,2.5-2,4.5-4.5,4.5c-2.5,0-4.5-2-4.5-4.5
						C1771.2,150.2,1773.3,148.1,1775.8,148.1 M1775.8,146.1c-3.6,0-6.5,2.9-6.5,6.5c0,3.6,2.9,6.5,6.5,6.5s6.5-2.9,6.5-6.5
						C1782.3,149.1,1779.3,146.1,1775.8,146.1L1775.8,146.1z"/>
				</g>
				<line class="st3" x1="1775.8" y1="-7.1" x2="1775.8" y2="145.5"/>
			</g>
			<g>
				<g>
					<path class="st2" d="M1792.8,148.1c2.5,0,4.5,2,4.5,4.5c0,2.5-2,4.5-4.5,4.5s-4.5-2-4.5-4.5
						C1788.3,150.2,1790.4,148.1,1792.8,148.1 M1792.8,146.1c-3.6,0-6.5,2.9-6.5,6.5c0,3.6,2.9,6.5,6.5,6.5s6.5-2.9,6.5-6.5
						C1799.4,149.1,1796.4,146.1,1792.8,146.1L1792.8,146.1z"/>
				</g>
				<line class="st3" x1="1792.5" y1="-6.8" x2="1792.5" y2="145.5"/>
			</g>
		</g>
		<g class="st4">
			<g>
				<g>
					<path class="st2" d="M1969.5,32.8c2.5,0,4.5,2,4.5,4.5s-2,4.5-4.5,4.5s-4.5-2-4.5-4.5S1967,32.8,1969.5,32.8 M1969.5,30.8
						c-3.6,0-6.5,2.9-6.5,6.5s2.9,6.5,6.5,6.5s6.5-2.9,6.5-6.5S1973.1,30.8,1969.5,30.8L1969.5,30.8z"/>
				</g>
				<line class="st3" x1="1970.2" y1="-122.5" x2="1969.3" y2="30.3"/>
			</g>
			<g>
				<g>
					<path class="st2" d="M1986.6,32.8c2.5,0,4.5,2,4.5,4.5s-2,4.5-4.5,4.5s-4.5-2-4.5-4.5S1984.1,32.8,1986.6,32.8 M1986.6,30.8
						c-3.6,0-6.5,2.9-6.5,6.5s2.9,6.5,6.5,6.5s6.5-2.9,6.5-6.5S1990.2,30.8,1986.6,30.8L1986.6,30.8z"/>
				</g>
				<line class="st3" x1="1987" y1="-122.5" x2="1987" y2="30.1"/>
			</g>
			<g>
				<g>
					<path class="st2" d="M2003.7,32.8c2.5,0,4.5,2,4.5,4.5s-2,4.5-4.5,4.5s-4.5-2-4.5-4.5S2001.2,32.8,2003.7,32.8 M2003.7,30.8
						c-3.6,0-6.5,2.9-6.5,6.5s2.9,6.5,6.5,6.5s6.5-2.9,6.5-6.5S2007.3,30.8,2003.7,30.8L2003.7,30.8z"/>
				</g>
				<line class="st3" x1="2003.7" y1="-122.5" x2="2003.7" y2="30.1"/>
			</g>
			<g>
				<g>
					<path class="st2" d="M2020.8,32.8c2.5,0,4.5,2,4.5,4.5s-2,4.5-4.5,4.5s-4.5-2-4.5-4.5S2018.3,32.8,2020.8,32.8 M2020.8,30.8
						c-3.6,0-6.5,2.9-6.5,6.5s2.9,6.5,6.5,6.5s6.5-2.9,6.5-6.5S2024.4,30.8,2020.8,30.8L2020.8,30.8z"/>
				</g>
				<line class="st3" x1="2020.5" y1="-122.2" x2="2020.5" y2="30.1"/>
			</g>
		</g>
		<g class="st4">
			<g>
				<g>
					<path class="st2" d="M1295.6,442.9c2.5,0,4.5,2,4.5,4.5s-2,4.5-4.5,4.5s-4.5-2-4.5-4.5S1293.2,442.9,1295.6,442.9
						 M1295.6,440.9c-3.6,0-6.5,2.9-6.5,6.5c0,3.6,2.9,6.5,6.5,6.5c3.6,0,6.5-2.9,6.5-6.5C1302.1,443.9,1299.2,440.9,1295.6,440.9
						L1295.6,440.9z"/>
				</g>
				<polyline class="st3" points="1349.4,845.9 1349.4,682.2 1296.4,629.2 1295.5,454.4 				"/>
			</g>
			<g>
				<g>
					<path class="st2" d="M1312.7,442.9c2.5,0,4.5,2,4.5,4.5s-2,4.5-4.5,4.5s-4.5-2-4.5-4.5S1310.2,442.9,1312.7,442.9
						 M1312.7,440.9c-3.6,0-6.5,2.9-6.5,6.5c0,3.6,2.9,6.5,6.5,6.5s6.5-2.9,6.5-6.5C1319.2,443.9,1316.3,440.9,1312.7,440.9
						L1312.7,440.9z"/>
				</g>
				<polyline class="st3" points="1366.1,838.4 1366.1,674.8 1313.1,621.8 1313.1,454.6 				"/>
			</g>
			<g>
				<g>
					<path class="st2" d="M1329.8,442.9c2.5,0,4.5,2,4.5,4.5s-2,4.5-4.5,4.5s-4.5-2-4.5-4.5S1327.3,442.9,1329.8,442.9
						 M1329.8,440.9c-3.6,0-6.5,2.9-6.5,6.5c0,3.6,2.9,6.5,6.5,6.5s6.5-2.9,6.5-6.5C1336.3,443.9,1333.4,440.9,1329.8,440.9
						L1329.8,440.9z"/>
				</g>
				<polyline class="st3" points="1382.9,831 1382.9,667.3 1329.9,614.3 1329.9,454.6 				"/>
			</g>
			<g>
				<g>
					<path class="st2" d="M1346.9,442.9c2.5,0,4.5,2,4.5,4.5s-2,4.5-4.5,4.5s-4.5-2-4.5-4.5S1344.4,442.9,1346.9,442.9
						 M1346.9,440.9c-3.6,0-6.5,2.9-6.5,6.5c0,3.6,2.9,6.5,6.5,6.5s6.5-2.9,6.5-6.5C1353.4,443.9,1350.5,440.9,1346.9,440.9
						L1346.9,440.9z"/>
				</g>
				<polyline class="st3" points="1399.6,823.5 1399.6,659.9 1346.6,606.9 1346.6,454.6 				"/>
			</g>
		</g>
		<g class="st4">
			<g>
				<path class="st2" d="M1551,297.6c2.5,0,4.5,2,4.5,4.5c0,2.5-2,4.5-4.5,4.5c-2.5,0-4.5-2-4.5-4.5
					C1546.5,299.7,1548.5,297.6,1551,297.6 M1551,295.6c-3.6,0-6.5,2.9-6.5,6.5c0,3.6,2.9,6.5,6.5,6.5s6.5-2.9,6.5-6.5
					C1557.5,298.6,1554.6,295.6,1551,295.6L1551,295.6z"/>
			</g>
			<polyline class="st3" points="1629.3,-43.5 1629.3,174.5 1551.7,252.1 1551.7,296.3 			"/>
		</g>
		<g class="st4">
			<g>
				<path class="st2" d="M1400,103.9c2.5,0,4.5,2,4.5,4.5c0,2.5-2,4.5-4.5,4.5c-2.5,0-4.5-2-4.5-4.5
					C1395.5,105.9,1397.5,103.9,1400,103.9 M1400,101.9c-3.6,0-6.5,2.9-6.5,6.5c0,3.6,2.9,6.5,6.5,6.5c3.6,0,6.5-2.9,6.5-6.5
					C1406.5,104.8,1403.6,101.9,1400,101.9L1400,101.9z"/>
			</g>
			<polyline class="st3" points="1465.5,-30.6 1465.5,37.7 1492.5,64.8 1492.5,118.9 1422.7,188.8 1399.9,188.8 1399.9,114.7 			"/>
		</g>
		<g class="st4">
			<g>
				<path class="st2" d="M1103.7,371.7c2.5,0,4.5,2,4.5,4.5c0,2.5-2,4.5-4.5,4.5s-4.5-2-4.5-4.5
					C1099.2,373.8,1101.2,371.7,1103.7,371.7 M1103.7,369.7c-3.6,0-6.5,2.9-6.5,6.5c0,3.6,2.9,6.5,6.5,6.5c3.6,0,6.5-2.9,6.5-6.5
					C1110.2,372.6,1107.3,369.7,1103.7,369.7L1103.7,369.7z"/>
			</g>
			<g>
				<g>
					<path class="st2" d="M1204.8,270.6c2.5,0,4.5,2,4.5,4.5c0,2.5-2,4.5-4.5,4.5s-4.5-2-4.5-4.5
						C1200.3,272.6,1202.3,270.6,1204.8,270.6 M1204.8,268.6c-3.6,0-6.5,2.9-6.5,6.5c0,3.6,2.9,6.5,6.5,6.5s6.5-2.9,6.5-6.5
						C1211.3,271.5,1208.4,268.6,1204.8,268.6L1204.8,268.6z"/>
				</g>
				<line class="st3" x1="1107.9" y1="372.5" x2="1200.5" y2="279.9"/>
			</g>
		</g>
		<g class="st4">
			<g>
				<path class="st2" d="M1247.6,457.2c2.5,0,4.5,2,4.5,4.5c0,2.5-2,4.5-4.5,4.5s-4.5-2-4.5-4.5
					C1243.1,459.2,1245.1,457.2,1247.6,457.2 M1247.6,455.2c-3.6,0-6.5,2.9-6.5,6.5c0,3.6,2.9,6.5,6.5,6.5c3.6,0,6.5-2.9,6.5-6.5
					C1254.1,458.1,1251.2,455.2,1247.6,455.2L1247.6,455.2z"/>
			</g>
			<g>
				<g>
					<path class="st2" d="M1073.7,568.3c2.5,0,4.5,2,4.5,4.5c0,2.5-2,4.5-4.5,4.5s-4.5-2-4.5-4.5
						C1069.2,570.4,1071.3,568.3,1073.7,568.3 M1073.7,566.3c-3.6,0-6.5,2.9-6.5,6.5c0,3.6,2.9,6.5,6.5,6.5s6.5-2.9,6.5-6.5
						C1080.3,569.2,1077.3,566.3,1073.7,566.3L1073.7,566.3z"/>
				</g>
				<polyline class="st3" points="1243.2,466.6 1136.4,573.4 1081.5,573.4 				"/>
			</g>
		</g>
		<g class="st4">
			<g>
				<path class="st2" d="M1254.7,604c2.5,0,4.5,2,4.5,4.5s-2,4.5-4.5,4.5s-4.5-2-4.5-4.5S1252.2,604,1254.7,604 M1254.7,602
					c-3.6,0-6.5,2.9-6.5,6.5c0,3.6,2.9,6.5,6.5,6.5s6.5-2.9,6.5-6.5C1261.2,604.9,1258.3,602,1254.7,602L1254.7,602z"/>
			</g>
			<g>
				<path class="st2" d="M1276.1,682.3c2.5,0,4.5,2,4.5,4.5c0,2.5-2,4.5-4.5,4.5s-4.5-2-4.5-4.5
					C1271.5,684.3,1273.6,682.3,1276.1,682.3 M1276.1,680.3c-3.6,0-6.5,2.9-6.5,6.5c0,3.6,2.9,6.5,6.5,6.5s6.5-2.9,6.5-6.5
					C1282.6,683.2,1279.6,680.3,1276.1,680.3L1276.1,680.3z"/>
			</g>
			<polyline class="st3" points="1254.6,615.4 1254.6,664.6 1272.4,682.4 			"/>
		</g>
		<g class="st4">
			<g>
				<path class="st2" d="M1392.9,596.8c2.5,0,4.5,2,4.5,4.5c0,2.5-2,4.5-4.5,4.5s-4.5-2-4.5-4.5
					C1388.4,598.8,1390.4,596.8,1392.9,596.8 M1392.9,594.8c-3.6,0-6.5,2.9-6.5,6.5c0,3.6,2.9,6.5,6.5,6.5s6.5-2.9,6.5-6.5
					C1399.4,597.7,1396.5,594.8,1392.9,594.8L1392.9,594.8z"/>
			</g>
			<g>
				<path class="st2" d="M1439.9,424.4c2.5,0,4.5,2,4.5,4.5c0,2.5-2,4.5-4.5,4.5s-4.5-2-4.5-4.5
					C1435.4,426.5,1437.4,424.4,1439.9,424.4 M1439.9,422.4c-3.6,0-6.5,2.9-6.5,6.5c0,3.6,2.9,6.5,6.5,6.5s6.5-2.9,6.5-6.5
					C1446.4,425.4,1443.5,422.4,1439.9,422.4L1439.9,422.4z"/>
			</g>
			<polyline class="st3" points="1392.8,595.5 1392.8,536.4 1440.5,488.6 1440.5,435.9 			"/>
		</g>
		<g class="st4">
			<g>
				<path class="st2" d="M1462.7,370.3c2.5,0,4.5,2,4.5,4.5c0,2.5-2,4.5-4.5,4.5c-2.5,0-4.5-2-4.5-4.5
					C1458.2,372.3,1460.2,370.3,1462.7,370.3 M1462.7,368.3c-3.6,0-6.5,2.9-6.5,6.5c0,3.6,2.9,6.5,6.5,6.5s6.5-2.9,6.5-6.5
					C1469.2,371.2,1466.3,368.3,1462.7,368.3L1462.7,368.3z"/>
			</g>
			<g>
				<g>
					<path class="st2" d="M1306,289.1c2.5,0,4.5,2,4.5,4.5c0,2.5-2,4.5-4.5,4.5s-4.5-2-4.5-4.5
						C1301.5,291.1,1303.5,289.1,1306,289.1 M1306,287.1c-3.6,0-6.5,2.9-6.5,6.5c0,3.6,2.9,6.5,6.5,6.5s6.5-2.9,6.5-6.5
						C1312.5,290,1309.6,287.1,1306,287.1L1306,287.1z"/>
				</g>
				<polyline class="st3" points="1462.6,370.4 1462.6,331.2 1424.9,293.5 1313.7,293.5 				"/>
			</g>
		</g>
		<g class="st4">
			<g>
				<g>
					<path class="st2" d="M1119.3,185.1c2.5,0,4.5,2,4.5,4.5c0,2.5-2,4.5-4.5,4.5s-4.5-2-4.5-4.5
						C1114.8,187.1,1116.9,185.1,1119.3,185.1 M1119.3,183.1c-3.6,0-6.5,2.9-6.5,6.5c0,3.6,2.9,6.5,6.5,6.5s6.5-2.9,6.5-6.5
						C1125.8,186,1122.9,183.1,1119.3,183.1L1119.3,183.1z"/>
				</g>
				<g>
					<path class="st2" d="M1284.6-50c2.5,0,4.5,2,4.5,4.5c0,2.5-2,4.5-4.5,4.5s-4.5-2-4.5-4.5C1280.1-47.9,1282.1-50,1284.6-50
						 M1284.6-52c-3.6,0-6.5,2.9-6.5,6.5c0,3.6,2.9,6.5,6.5,6.5s6.5-2.9,6.5-6.5C1291.1-49.1,1288.2-52,1284.6-52L1284.6-52z"/>
				</g>
				<polyline class="st3" points="1122.1,185.9 1208.3,99.7 1208.3,30.6 1282,-43.1 				"/>
			</g>
			<g>
				<g>
					<path class="st2" d="M1103.7,172.3c2.5,0,4.5,2,4.5,4.5c0,2.5-2,4.5-4.5,4.5s-4.5-2-4.5-4.5
						C1099.2,174.3,1101.2,172.3,1103.7,172.3 M1103.7,170.3c-3.6,0-6.5,2.9-6.5,6.5c0,3.6,2.9,6.5,6.5,6.5c3.6,0,6.5-2.9,6.5-6.5
						C1110.2,173.2,1107.3,170.3,1103.7,170.3L1103.7,170.3z"/>
				</g>
				<g>
					<path class="st2" d="M1268.9-62.8c2.5,0,4.5,2,4.5,4.5c0,2.5-2,4.5-4.5,4.5s-4.5-2-4.5-4.5
						C1264.4-60.8,1266.4-62.8,1268.9-62.8 M1268.9-64.8c-3.6,0-6.5,2.9-6.5,6.5c0,3.6,2.9,6.5,6.5,6.5c3.6,0,6.5-2.9,6.5-6.5
						C1275.4-61.9,1272.5-64.8,1268.9-64.8L1268.9-64.8z"/>
				</g>
				<polyline class="st3" points="1106.4,173.1 1192.6,86.9 1192.6,17.8 1266.4,-55.9 				"/>
			</g>
			<g>
				<g>
					<path class="st2" d="M1088,159.5c2.5,0,4.5,2,4.5,4.5c0,2.5-2,4.5-4.5,4.5s-4.5-2-4.5-4.5
						C1083.5,161.5,1085.5,159.5,1088,159.5 M1088,157.5c-3.6,0-6.5,2.9-6.5,6.5c0,3.6,2.9,6.5,6.5,6.5s6.5-2.9,6.5-6.5
						C1094.5,160.4,1091.6,157.5,1088,157.5L1088,157.5z"/>
				</g>
				<g>
					<path class="st2" d="M1253.3-75.6c2.5,0,4.5,2,4.5,4.5c0,2.5-2,4.5-4.5,4.5s-4.5-2-4.5-4.5
						C1248.7-73.6,1250.8-75.6,1253.3-75.6 M1253.3-77.6c-3.6,0-6.5,2.9-6.5,6.5c0,3.6,2.9,6.5,6.5,6.5s6.5-2.9,6.5-6.5
						C1259.8-74.7,1256.9-77.6,1253.3-77.6L1253.3-77.6z"/>
				</g>
				<polyline class="st3" points="1090.8,160.3 1177,74.1 1177,5 1250.7,-68.8 				"/>
			</g>
		</g>
		<g class="st4">
			<g>
				<g>
					<path class="st2" d="M1996.9,632.4c2.5,0,4.5,2,4.5,4.5s-2,4.5-4.5,4.5s-4.5-2-4.5-4.5S1994.4,632.4,1996.9,632.4
						 M1996.9,630.4c-3.6,0-6.5,2.9-6.5,6.5c0,3.6,2.9,6.5,6.5,6.5s6.5-2.9,6.5-6.5C2003.4,633.4,2000.5,630.4,1996.9,630.4
						L1996.9,630.4z"/>
				</g>
				<polyline class="st3" points="1895,807.8 1895,738.7 1992.2,641.4 				"/>
				<g>
					<path class="st2" d="M1968.4,632.4c2.5,0,4.5,2,4.5,4.5s-2,4.5-4.5,4.5c-2.5,0-4.5-2-4.5-4.5S1966,632.4,1968.4,632.4
						 M1968.4,630.4c-3.6,0-6.5,2.9-6.5,6.5c0,3.6,2.9,6.5,6.5,6.5s6.5-2.9,6.5-6.5C1974.9,633.4,1972,630.4,1968.4,630.4
						L1968.4,630.4z"/>
				</g>
				<polyline class="st3" points="1879.3,794.9 1879.3,725.9 1963.7,641.4 				"/>
				<g>
					<g>
						<path class="st2" d="M1939.9,632.4c2.5,0,4.5,2,4.5,4.5s-2,4.5-4.5,4.5s-4.5-2-4.5-4.5S1937.5,632.4,1939.9,632.4
							 M1939.9,630.4c-3.6,0-6.5,2.9-6.5,6.5c0,3.6,2.9,6.5,6.5,6.5s6.5-2.9,6.5-6.5C1946.5,633.4,1943.5,630.4,1939.9,630.4
							L1939.9,630.4z"/>
					</g>
					<polyline class="st3" points="1863.7,782.1 1863.7,713 1935.2,641.4 					"/>
				</g>
			</g>
		</g>
		<g class="st4">
			<g>
				<path class="st2" d="M1251.8,55.5c2.5,0,4.5,2,4.5,4.5c0,2.5-2,4.5-4.5,4.5s-4.5-2-4.5-4.5C1247.3,57.5,1249.3,55.5,1251.8,55.5
					 M1251.8,53.5c-3.6,0-6.5,2.9-6.5,6.5c0,3.6,2.9,6.5,6.5,6.5s6.5-2.9,6.5-6.5C1258.3,56.4,1255.4,53.5,1251.8,53.5L1251.8,53.5z
					"/>
			</g>
			<g>
				<path class="st2" d="M1251.8,178c2.5,0,4.5,2,4.5,4.5c0,2.5-2,4.5-4.5,4.5s-4.5-2-4.5-4.5C1247.3,180,1249.3,178,1251.8,178
					 M1251.8,176c-3.6,0-6.5,2.9-6.5,6.5c0,3.6,2.9,6.5,6.5,6.5s6.5-2.9,6.5-6.5C1258.3,178.9,1255.4,176,1251.8,176L1251.8,176z"/>
			</g>
			<line class="st3" x1="1251.8" y1="175.9" x2="1251.8" y2="66.2"/>
		</g>
		<g class="st4">
			<g>
				<path class="st2" d="M1141.4,49c2.5,0,4.5,2,4.5,4.5c0,2.5-2,4.5-4.5,4.5s-4.5-2-4.5-4.5C1136.9,51.1,1138.9,49,1141.4,49
					 M1141.4,47c-3.6,0-6.5,2.9-6.5,6.5c0,3.6,2.9,6.5,6.5,6.5s6.5-2.9,6.5-6.5C1147.9,50,1145,47,1141.4,47L1141.4,47z"/>
			</g>
			<g>
				<path class="st2" d="M1065.9,49c2.5,0,4.5,2,4.5,4.5c0,2.5-2,4.5-4.5,4.5s-4.5-2-4.5-4.5C1061.4,51.1,1063.4,49,1065.9,49
					 M1065.9,47c-3.6,0-6.5,2.9-6.5,6.5c0,3.6,2.9,6.5,6.5,6.5c3.6,0,6.5-2.9,6.5-6.5C1072.4,50,1069.5,47,1065.9,47L1065.9,47z"/>
			</g>
			<line class="st3" x1="1071.8" y1="53.5" x2="1133.7" y2="53.5"/>
		</g>
		<g class="st4">
			<g>
				<path class="st2" d="M1546,573.3c2.5,0,4.5,2,4.5,4.5c0,2.5-2,4.5-4.5,4.5c-2.5,0-4.5-2-4.5-4.5
					C1541.5,575.3,1543.5,573.3,1546,573.3 M1546,571.3c-3.6,0-6.5,2.9-6.5,6.5c0,3.6,2.9,6.5,6.5,6.5s6.5-2.9,6.5-6.5
					C1552.5,574.2,1549.6,571.3,1546,571.3L1546,571.3z"/>
			</g>
			<polyline class="st3" points="1546,584.1 1546,658.2 1577.3,689.5 1580.1,829.1 			"/>
		</g>
		<g class="st4">
			<g>
				<path class="st2" d="M1640.1,675.9c2.5,0,4.5,2,4.5,4.5c0,2.5-2,4.5-4.5,4.5s-4.5-2-4.5-4.5
					C1635.5,677.9,1637.6,675.9,1640.1,675.9 M1640.1,673.9c-3.6,0-6.5,2.9-6.5,6.5c0,3.6,2.9,6.5,6.5,6.5c3.6,0,6.5-2.9,6.5-6.5
					C1646.6,676.8,1643.6,673.9,1640.1,673.9L1640.1,673.9z"/>
			</g>
			<g>
				<path class="st2" d="M1811,675.9c2.5,0,4.5,2,4.5,4.5c0,2.5-2,4.5-4.5,4.5c-2.5,0-4.5-2-4.5-4.5
					C1806.5,677.9,1808.5,675.9,1811,675.9 M1811,673.9c-3.6,0-6.5,2.9-6.5,6.5c0,3.6,2.9,6.5,6.5,6.5s6.5-2.9,6.5-6.5
					C1817.5,676.8,1814.6,673.9,1811,673.9L1811,673.9z"/>
			</g>
			<line class="st3" x1="1647.1" y1="681" x2="1803.8" y2="681"/>
		</g>
		<g class="st4">
			<g>
				<path class="st2" d="M2023.3,683c2.5,0,4.5,2,4.5,4.5c0,2.5-2,4.5-4.5,4.5s-4.5-2-4.5-4.5C2018.8,685,2020.8,683,2023.3,683
					 M2023.3,681c-3.6,0-6.5,2.9-6.5,6.5c0,3.6,2.9,6.5,6.5,6.5s6.5-2.9,6.5-6.5C2029.8,683.9,2026.9,681,2023.3,681L2023.3,681z"/>
			</g>
			<g>
				<path class="st2" d="M2058.9,647.4c2.5,0,4.5,2,4.5,4.5c0,2.5-2,4.5-4.5,4.5c-2.5,0-4.5-2-4.5-4.5
					C2054.4,649.4,2056.4,647.4,2058.9,647.4 M2058.9,645.4c-3.6,0-6.5,2.9-6.5,6.5c0,3.6,2.9,6.5,6.5,6.5s6.5-2.9,6.5-6.5
					C2065.4,648.3,2062.5,645.4,2058.9,645.4L2058.9,645.4z"/>
			</g>
			<line class="st3" x1="2027.5" y1="683.8" x2="2054.6" y2="656.8"/>
		</g>
		<g class="st4">
			<g>
				<path class="st2" d="M1819.6,537.7c2.5,0,4.5,2,4.5,4.5c0,2.5-2,4.5-4.5,4.5c-2.5,0-4.5-2-4.5-4.5
					C1815.1,539.7,1817.1,537.7,1819.6,537.7 M1819.6,535.7c-3.6,0-6.5,2.9-6.5,6.5c0,3.6,2.9,6.5,6.5,6.5s6.5-2.9,6.5-6.5
					C1826.1,538.6,1823.2,535.7,1819.6,535.7L1819.6,535.7z"/>
			</g>
			<g>
				<path class="st2" d="M1697,537.7c2.5,0,4.5,2,4.5,4.5c0,2.5-2,4.5-4.5,4.5c-2.5,0-4.5-2-4.5-4.5
					C1692.5,539.7,1694.6,537.7,1697,537.7 M1697,535.7c-3.6,0-6.5,2.9-6.5,6.5c0,3.6,2.9,6.5,6.5,6.5s6.5-2.9,6.5-6.5
					C1703.6,538.6,1700.6,535.7,1697,535.7L1697,535.7z"/>
			</g>
			<line class="st3" x1="1812.4" y1="542.8" x2="1704.1" y2="542.8"/>
		</g>
		<g class="st4">
			<g>
				<path class="st2" d="M1792.5,321.2c2.5,0,4.5,2,4.5,4.5c0,2.5-2,4.5-4.5,4.5s-4.5-2-4.5-4.5C1788,323.2,1790,321.2,1792.5,321.2
					 M1792.5,319.2c-3.6,0-6.5,2.9-6.5,6.5c0,3.6,2.9,6.5,6.5,6.5s6.5-2.9,6.5-6.5C1799,322.1,1796.1,319.2,1792.5,319.2
					L1792.5,319.2z"/>
			</g>
			<g>
				<path class="st2" d="M1825.3,187.2c2.5,0,4.5,2,4.5,4.5c0,2.5-2,4.5-4.5,4.5s-4.5-2-4.5-4.5
					C1820.8,189.3,1822.8,187.2,1825.3,187.2 M1825.3,185.2c-3.6,0-6.5,2.9-6.5,6.5c0,3.6,2.9,6.5,6.5,6.5s6.5-2.9,6.5-6.5
					C1831.8,188.1,1828.9,185.2,1825.3,185.2L1825.3,185.2z"/>
			</g>
			<polyline class="st3" points="1792.4,319.1 1792.4,267.8 1825.9,234.3 1825.9,196.6 			"/>
		</g>
		<g class="st4">
			<g>
				<path class="st2" d="M1922.1,57.6c2.5,0,4.5,2,4.5,4.5c0,2.5-2,4.5-4.5,4.5s-4.5-2-4.5-4.5C1917.6,59.6,1919.7,57.6,1922.1,57.6
					 M1922.1,55.6c-3.6,0-6.5,2.9-6.5,6.5c0,3.6,2.9,6.5,6.5,6.5s6.5-2.9,6.5-6.5C1928.6,58.5,1925.7,55.6,1922.1,55.6L1922.1,55.6z
					"/>
			</g>
			<g>
				<path class="st2" d="M2061.8,57.6c2.5,0,4.5,2,4.5,4.5c0,2.5-2,4.5-4.5,4.5c-2.5,0-4.5-2-4.5-4.5
					C2057.2,59.6,2059.3,57.6,2061.8,57.6 M2061.8,55.6c-3.6,0-6.5,2.9-6.5,6.5c0,3.6,2.9,6.5,6.5,6.5s6.5-2.9,6.5-6.5
					C2068.3,58.5,2065.4,55.6,2061.8,55.6L2061.8,55.6z"/>
			</g>
			<polyline class="st3" points="1926.3,66.9 1955.5,96.1 2027.5,96.1 2057.1,66.6 			"/>
		</g>
	</g>
</g>
<g id="BACKGROUND_1">
</g>
<g id="DESIGNED_BY_FREEPIK">
</g>
</svg>
