<?xml version="1.0" encoding="utf-8"?>
<!-- Generator: Adobe Illustrator 22.0.0, SVG Export Plug-In . SVG Version: 6.00 Build 0)  -->
<svg version="1.1" xmlns="http://www.w3.org/2000/svg" xmlns:xlink="http://www.w3.org/1999/xlink" x="0px" y="0px"
	 viewBox="0 0 935 485" style="enable-background:new 0 0 935 485;" xml:space="preserve">
<style type="text/css">
	.st0{opacity:0;}
	.st1{display:none;}
	.st2{display:inline;}
	.st3{fill:#361AEB;}
	.st4{clip-path:url(#XMLID_7_);fill:#2719C3;}
	.st5{clip-path:url(#XMLID_7_);fill:#361AEB;}
	.st6{fill:#092EB5;}
	.st7{opacity:0.6;}
	.st8{fill:url(#SVGID_1_);stroke:#000000;stroke-width:0.25;stroke-miterlimit:10;}
	.st9{fill:#F9F9F9;}
	.st10{stroke:#000000;stroke-width:0.25;stroke-miterlimit:10;}
</style>
<g id="Layer_1">
</g>
<g id="Layer_4">
</g>
<g id="Layer_5">
</g>
<g id="Layer_6">
</g>
<g id="Layer_3">
</g>
<g id="Layer_2">
	<rect x="465.5" y="197.5" class="st0" width="182" height="89"/>
	<g class="st1">
		<g class="st2">
			<g>
				<path id="XMLID_6_" class="st3" d="M306.3,210.2l3.4,0.1c0.6,0,1.1,0.6,1.1,1.3l-0.1,3c0,1.8-0.7,3.5-1.9,4.9l-1.9,2.2
					c-0.7,0.8-2,0.2-2-0.9l0.2-9.3C305.1,210.7,305.7,210.2,306.3,210.2z"/>
				<g id="XMLID_1_">
					<defs>
						<path id="XMLID_2_" d="M298.7,229.6h1.5c0.5,0,0.9,0.5,0.9,1v7c0,2.5,1.9,4.5,4.4,4.7c1,0.1,2.1,0.1,3.2,0.1c0,0,0,0,0,0
							c2.5-0.1,4.5-2.2,4.5-4.7v-1.5c0-0.8,0.6-1.4,1.3-1.4h2.3c0.7,0,1.3,0.6,1.3,1.4v1.8c0,1.4,1.3,2.5,2.6,2.1
							c1.5-0.5,3-0.9,4.5-1.3c3-0.8,5.1-3.6,5.1-6.8l0-1.3c0-0.6,0.4-1,0.9-1h1.5c1.3,0,2-1.7,1-2.7l-13.6-14.6
							c-2.5-2.7-6.5-2.7-9,0l-13.6,14.6C296.7,227.9,297.4,229.6,298.7,229.6z"/>
					</defs>
					<clipPath id="XMLID_7_">
						<use xlink:href="#XMLID_2_"  style="overflow:visible;"/>
					</clipPath>
					<path id="XMLID_5_" class="st4" d="M298.7,229.6h1.5c0.5,0,0.9,0.5,0.9,1v11.1c2.2,0.5,4.8,0.8,7.6,0.7c1.6,0,3.1-0.2,4.6-0.5
						v-5.8c0-0.8,0.6-1.4,1.3-1.4h2.3c0.7,0,1.3,0.6,1.3,1.4v4.6c3.8-1.1,7.3-2.4,10.6-2.9c0.9-0.2,1.5-1,1.5-1.9l0-5.3
						c0-0.6,0.4-1,0.9-1h1.5c1.3,0,2-1.7,1-2.7l-17-18.3c-0.6-0.6-1.5-0.6-2.1,0l-17,18.3C296.7,227.9,297.4,229.6,298.7,229.6z"/>
					<path id="XMLID_4_" class="st5" d="M314.5,208.9c0,0,7,3.7,4.1,11.2c-2.9,7.6-16.6,14.9-17.3,23h29.6c1.3,0,2.4-0.8,2.8-2.1
						l4.3-12.3l-21-22.7L314.5,208.9z"/>
				</g>
			</g>
			<path class="st6" d="M335.5,241.7c0.4,2.4-20.1,44-20.1,44c-0.5,1.2-2.2,1.2-2.8,0c-4.4-9.9-17.4-38.2-21.5-47.2
				c-2-4.4-3.3-8.9-3.3-13.6s1.1-9.1,3.2-13.2c2.2-4.1,5.2-7.3,9.2-9.6c4-2.3,8.6-3.4,13.8-3.4c3.4,0,6.4,0.4,9.3,1.3
				c2.8,0.9,5.1,1.9,6.7,3.2s2.5,2.2,2.5,2.8c0,1,0,1.9-0.1,2.7c0,0.8-0.1,1.3-0.1,1.5c0,0.3,0.1,0.7,0.2,1.3
				c0.2,0.6,0.3,1.1,0.3,1.6c0,0.8-0.5,1.2-1.5,1.2c-0.3,0-0.6-0.1-0.9-0.4c-0.3-0.3-0.8-1.1-1.4-2.4c-1.3-2.8-2.6-4.8-4.1-6.1
				c-2.6-2.2-6.1-3.3-10.7-3.3c-5.9,0-10.5,2.2-13.8,6.5c-3.3,4.3-4.9,9.9-4.9,16.7c0,1.7,0.1,3.4,0.3,5c0.1,0.5,0.1,1,0.2,1.5
				c0.2,1.2,0.5,2.4,0.8,3.5c0.1,0.2,0.1,0.4,0.2,0.6c0.4,1.1,0.8,2.2,1.3,3.2c0.3,0.5,0.5,1,0.8,1.5c0.2,0.3,0.3,0.5,0.5,0.8
				c0.1,0.2,0.2,0.3,0.3,0.5c0.1,0.2,0.3,0.4,0.4,0.6c0.1,0.1,0.1,0.2,0.2,0.3c0.1,0.1,0.1,0.2,0.2,0.3c0.1,0.1,0.1,0.1,0.2,0.2
				c0.1,0.2,0.3,0.3,0.4,0.5c0.4,0.4,0.7,0.8,1.1,1.1c0.5,0.4,1,0.9,1.5,1.2c0,0,0,0,0,0c0.7,0.5,1.5,1,2.3,1.4c0,0,0.1,0,0.1,0
				c0.9,0.4,1.8,0.8,2.8,1.1c0,0,0,0,0,0c0.5,0.2,1.1,0.3,1.7,0.4c1.4,0.3,2.8,0.4,4.3,0.4c0.7,0,1.6-0.1,2.6-0.3
				c1.3-0.3,2.8-0.7,4.6-1.2c0,0,0.1,0,0.1,0c2.6-0.8,5.1-2.2,7.6-4.1c0.8-0.6,1.5-1.2,2.2-1.9c0,0,0,0,0,0c0.7-0.6,1.3-1,1.7-1
				c0.4,0,0.7,0.1,0.9,0.4C335.4,241.2,335.5,241.5,335.5,241.7z"/>
		</g>
		<path class="st2" d="M358.2,215.1c0,0.2-0.1,0.4-0.2,0.6c-0.2,0.2-0.4,0.4-0.7,0.4c-0.2,0-0.3-0.1-0.5-0.2
			c-1.7-1.1-3.6-1.7-5.6-1.7c-1.7,0-3.3,0.4-4.7,1.2c-1.4,0.8-2.5,2-3.3,3.4c-0.8,1.5-1.2,3.1-1.2,5c0,1.9,0.4,3.6,1.2,5.1
			c0.8,1.5,1.9,2.6,3.3,3.4c1.4,0.8,3,1.2,4.7,1.2c2,0,3.9-0.6,5.6-1.7c0.2-0.1,0.4-0.2,0.5-0.2c0.3,0,0.5,0.1,0.7,0.4
			c0.2,0.2,0.2,0.4,0.2,0.6c0,0.3-0.2,0.6-0.4,0.8c-0.8,0.6-1.9,1-3.1,1.4c-1.2,0.4-2.4,0.6-3.6,0.6c-2,0-3.9-0.5-5.6-1.5
			c-1.7-1-3.1-2.3-4.1-4.1c-1-1.8-1.5-3.8-1.5-6c0-2.2,0.5-4.1,1.5-5.9c1-1.8,2.4-3.1,4.1-4.1c1.7-1,3.6-1.5,5.7-1.5
			c1.2,0,2.4,0.2,3.5,0.5c1.1,0.3,2.2,0.8,3.1,1.4C358.1,214.5,358.2,214.7,358.2,215.1z"/>
		<path class="st2" d="M361.7,215.9c-0.2-0.2-0.4-0.5-0.4-0.9v-0.3c0-0.4,0.1-0.7,0.4-0.9c0.2-0.2,0.6-0.3,1-0.3
			c0.9,0,1.3,0.4,1.3,1.2v0.3c0,0.4-0.1,0.7-0.3,0.9c-0.2,0.2-0.6,0.3-1,0.3C362.3,216.2,362,216.1,361.7,215.9z M363.4,234.8
			c-0.2,0.2-0.4,0.3-0.7,0.3c-0.3,0-0.5-0.1-0.7-0.3c-0.2-0.2-0.3-0.4-0.3-0.7v-14.8c0-0.3,0.1-0.5,0.3-0.7c0.2-0.2,0.4-0.3,0.7-0.3
			c0.3,0,0.5,0.1,0.7,0.3c0.2,0.2,0.3,0.4,0.3,0.7v14.8C363.7,234.4,363.6,234.6,363.4,234.8z"/>
		<path class="st2" d="M371.9,220.5v10.8c0,0.8,0.2,1.4,0.4,1.7s0.7,0.4,1.2,0.4c0.1,0,0.3,0,0.5-0.1c0.2-0.1,0.3-0.1,0.4-0.1
			c0.2,0,0.4,0.1,0.5,0.2c0.1,0.2,0.2,0.3,0.2,0.6c0,0.3-0.2,0.6-0.5,0.8c-0.3,0.2-0.8,0.3-1.2,0.3c-0.6,0-1.1-0.1-1.5-0.2
			c-0.4-0.1-0.9-0.4-1.3-1c-0.4-0.5-0.6-1.4-0.6-2.6v-10.9h-2.3c-0.3,0-0.5-0.1-0.7-0.3c-0.2-0.2-0.3-0.4-0.3-0.6s0.1-0.5,0.3-0.6
			c0.2-0.2,0.4-0.3,0.7-0.3h2.3v-3.6c0-0.3,0.1-0.5,0.3-0.7c0.2-0.2,0.4-0.3,0.7-0.3s0.5,0.1,0.7,0.3c0.2,0.2,0.3,0.4,0.3,0.7v3.6
			h3.2c0.2,0,0.4,0.1,0.6,0.3s0.3,0.4,0.3,0.6c0,0.3-0.1,0.5-0.3,0.6c-0.2,0.2-0.4,0.2-0.6,0.2H371.9z"/>
		<path class="st2" d="M392.5,218.7c0.2,0.2,0.3,0.4,0.3,0.7v14.2c0,1.7-0.3,3.1-1,4.3c-0.7,1.2-1.6,2.1-2.8,2.7
			c-1.2,0.6-2.5,0.9-4,0.9c-0.9,0-1.7-0.1-2.5-0.3c-0.8-0.2-1.4-0.4-1.9-0.8c-0.4-0.3-0.7-0.6-0.7-0.9c0,0,0-0.1,0.1-0.3
			c0.1-0.2,0.2-0.4,0.3-0.5c0.2-0.1,0.3-0.2,0.5-0.2c0.1,0,0.3,0,0.4,0.1c1.4,0.7,2.7,1.1,3.9,1.1c1.8,0,3.2-0.6,4.2-1.7
			c1-1.1,1.6-2.6,1.6-4.6v-1.1c-0.5,0.9-1.3,1.6-2.3,2.2c-1,0.5-2.1,0.8-3.3,0.8c-1.9,0-3.3-0.6-4.2-1.7c-1-1.1-1.4-2.6-1.4-4.5
			v-9.9c0-0.3,0.1-0.5,0.3-0.7c0.2-0.2,0.4-0.3,0.7-0.3c0.3,0,0.5,0.1,0.7,0.3c0.2,0.2,0.3,0.4,0.3,0.7v9.6c0,1.5,0.3,2.7,1,3.5
			c0.7,0.8,1.7,1.2,3.2,1.2c0.9,0,1.7-0.2,2.5-0.7c0.8-0.4,1.4-1,1.9-1.7c0.5-0.7,0.7-1.5,0.7-2.3v-9.6c0-0.3,0.1-0.5,0.3-0.7
			c0.2-0.2,0.4-0.3,0.7-0.3C392.1,218.4,392.3,218.5,392.5,218.7z"/>
		<path class="st2" d="M376.3,238.4c0.2,0.2,0.3,0.4,0.3,0.7s-0.1,0.5-0.3,0.7s-0.4,0.2-0.7,0.2H369v19.7c0,0.3-0.1,0.5-0.3,0.7
			c-0.2,0.2-0.4,0.3-0.7,0.3c-0.3,0-0.5-0.1-0.7-0.3s-0.3-0.4-0.3-0.7V240h-6.6c-0.3,0-0.5-0.1-0.7-0.3c-0.2-0.2-0.3-0.4-0.3-0.7
			c0-0.3,0.1-0.5,0.3-0.6c0.2-0.2,0.4-0.3,0.7-0.3h15.3C375.9,238.2,376.2,238.2,376.3,238.4z"/>
		<path class="st2" d="M390.5,256.8c-0.7,1.3-1.7,2.3-2.9,3.1s-2.6,1.1-4.1,1.1c-1.5,0-2.9-0.4-4.1-1.1c-1.2-0.7-2.2-1.8-2.9-3.1
			c-0.7-1.3-1.1-2.8-1.1-4.4c0-1.6,0.4-3.1,1.1-4.4c0.7-1.3,1.7-2.3,2.9-3.1c1.2-0.7,2.6-1.1,4.1-1.1c1.5,0,2.9,0.4,4.1,1.1
			c1.2,0.8,2.2,1.8,2.9,3.1c0.7,1.3,1.1,2.8,1.1,4.4C391.6,254,391.2,255.5,390.5,256.8z M388.8,248.9c-0.5-1-1.3-1.8-2.2-2.4
			c-1-0.6-2-0.9-3.2-0.9c-1.2,0-2.2,0.3-3.1,0.9c-0.9,0.6-1.7,1.4-2.2,2.4c-0.5,1-0.8,2.2-0.8,3.5c0,1.3,0.3,2.4,0.8,3.4
			c0.5,1,1.3,1.8,2.2,2.4c0.9,0.6,2,0.9,3.1,0.9c1.2,0,2.2-0.3,3.2-0.9c1-0.6,1.7-1.4,2.2-2.4c0.5-1,0.8-2.2,0.8-3.5
			C389.6,251.1,389.4,250,388.8,248.9z"/>
		<path class="st2" d="M408.5,244.6c0.2,0.2,0.3,0.4,0.3,0.7v9.1c0,2.1-0.6,3.7-1.8,4.8s-2.8,1.7-4.9,1.7c-2.1,0-3.7-0.6-4.8-1.7
			s-1.7-2.7-1.7-4.8v-9.1c0-0.3,0.1-0.5,0.3-0.7c0.2-0.2,0.4-0.3,0.7-0.3c0.3,0,0.5,0.1,0.7,0.3c0.2,0.2,0.3,0.4,0.3,0.7v9.1
			c0,1.5,0.4,2.7,1.2,3.5c0.8,0.8,2,1.2,3.4,1.2c1.5,0,2.7-0.4,3.5-1.2c0.8-0.8,1.2-2,1.2-3.5v-9.1c0-0.3,0.1-0.5,0.3-0.7
			c0.2-0.2,0.4-0.3,0.7-0.3C408,244.3,408.3,244.4,408.5,244.6z"/>
		<path class="st2" d="M422.6,244.1c0.3,0.2,0.5,0.4,0.5,0.8c0,0.3-0.1,0.5-0.3,0.7c-0.2,0.2-0.4,0.3-0.6,0.3
			c-0.1,0-0.3-0.1-0.6-0.2c-0.3-0.1-0.6-0.2-0.9-0.2c-0.8,0-1.6,0.3-2.4,0.9c-0.8,0.6-1.4,1.4-1.9,2.4c-0.5,1-0.8,1.9-0.8,2.9v7.9
			c0,0.3-0.1,0.5-0.3,0.7s-0.4,0.3-0.7,0.3c-0.3,0-0.5-0.1-0.7-0.3s-0.3-0.4-0.3-0.7v-14.4c0-0.3,0.1-0.5,0.3-0.7
			c0.2-0.2,0.4-0.3,0.7-0.3c0.3,0,0.5,0.1,0.7,0.3c0.2,0.2,0.3,0.4,0.3,0.7v2.8c0.5-1.2,1.2-2.2,2.2-3c1-0.8,2.2-1.2,3.5-1.2
			C421.9,243.8,422.3,243.9,422.6,244.1z"/>
		<g class="st2">
			<path d="M367.2,272.1v-7.8c0-0.2,0.1-0.3,0.4-0.3h2.5c0.9,0,1.6,0.2,2.1,0.6c0.5,0.4,0.8,1,0.8,1.8v0.1c0,0.8-0.3,1.5-0.8,1.8
				c-0.5,0.4-1.2,0.6-2.1,0.6h-2v3.1c0,0.1,0,0.2-0.1,0.2c-0.1,0.1-0.2,0.1-0.3,0.1c-0.1,0-0.2,0-0.3-0.1
				C367.2,272.3,367.2,272.2,367.2,272.1z M368.1,268.4h2c0.6,0,1.1-0.1,1.5-0.4c0.3-0.3,0.5-0.7,0.5-1.3v-0.1c0-1.2-0.7-1.7-2-1.7
				h-2V268.4z"/>
			<path d="M374.8,272.1v-7.8c0-0.2,0.2-0.3,0.5-0.3c0.3,0,0.5,0.1,0.5,0.3v7.4h3.9c0.2,0,0.3,0.1,0.3,0.3c0,0.2-0.1,0.4-0.3,0.4
				h-4.4c-0.1,0-0.2,0-0.3-0.1C374.9,272.3,374.8,272.2,374.8,272.1z"/>
			<path d="M380.9,272.1C380.9,272.1,380.9,272,380.9,272.1l2.9-7.8c0.1-0.2,0.2-0.3,0.5-0.3c0.3,0,0.5,0.1,0.5,0.3l2.9,7.8
				c0,0,0,0,0,0c0,0,0,0,0,0c0,0.1-0.1,0.2-0.2,0.2c-0.1,0.1-0.2,0.1-0.4,0.1c-0.2,0-0.3-0.1-0.3-0.2l-0.6-1.8h-3.8l-0.6,1.8
				c0,0.1-0.2,0.2-0.4,0.2c-0.1,0-0.3,0-0.4-0.1C380.9,272.3,380.9,272.2,380.9,272.1z M382.6,269.8h3.3l-1.7-4.6L382.6,269.8z"/>
			<path d="M389.5,272.1v-7.8c0-0.2,0.2-0.3,0.5-0.3c0.3,0,0.5,0.2,0.7,0.5l3.7,6.1v-6.3c0-0.2,0.2-0.3,0.5-0.3
				c0.3,0,0.5,0.1,0.5,0.3v7.8c0,0.1,0,0.2-0.1,0.2c-0.1,0.1-0.2,0.1-0.3,0.1c-0.2,0-0.4-0.1-0.6-0.4l-3.8-6.2v6.3
				c0,0.1,0,0.2-0.1,0.2c-0.1,0.1-0.2,0.1-0.3,0.1c-0.1,0-0.2,0-0.3-0.1C389.5,272.3,389.5,272.2,389.5,272.1z"/>
			<path d="M397.8,272.1v-7.8c0-0.2,0.2-0.3,0.5-0.3c0.3,0,0.5,0.2,0.7,0.5l3.7,6.1v-6.3c0-0.2,0.2-0.3,0.5-0.3
				c0.3,0,0.5,0.1,0.5,0.3v7.8c0,0.1,0,0.2-0.1,0.2c-0.1,0.1-0.2,0.1-0.3,0.1c-0.2,0-0.4-0.1-0.6-0.4l-3.8-6.2v6.3
				c0,0.1,0,0.2-0.1,0.2c-0.1,0.1-0.2,0.1-0.3,0.1c-0.1,0-0.2,0-0.3-0.1C397.9,272.3,397.8,272.2,397.8,272.1z"/>
			<path d="M406.1,272.1v-7.8c0-0.2,0.2-0.3,0.5-0.3c0.3,0,0.5,0.1,0.5,0.3v7.8c0,0.1,0,0.2-0.1,0.2c-0.1,0.1-0.2,0.1-0.3,0.1
				c-0.1,0-0.2,0-0.3-0.1C406.2,272.3,406.1,272.2,406.1,272.1z"/>
			<path d="M409.5,272.1v-7.8c0-0.2,0.2-0.3,0.5-0.3c0.3,0,0.5,0.2,0.7,0.5l3.7,6.1v-6.3c0-0.2,0.2-0.3,0.5-0.3
				c0.3,0,0.5,0.1,0.5,0.3v7.8c0,0.1,0,0.2-0.1,0.2c-0.1,0.1-0.2,0.1-0.3,0.1c-0.2,0-0.4-0.1-0.6-0.4l-3.8-6.2v6.3
				c0,0.1,0,0.2-0.1,0.2c-0.1,0.1-0.2,0.1-0.3,0.1c-0.1,0-0.2,0-0.3-0.1C409.6,272.3,409.5,272.2,409.5,272.1z"/>
			<path d="M417.8,270.1v-3.5c0-0.8,0.3-1.5,0.8-1.8c0.5-0.4,1.2-0.6,2.1-0.6c0.9,0,1.6,0.2,2.1,0.6c0.5,0.4,0.8,0.8,0.8,1.4
				c0,0.3-0.2,0.4-0.5,0.4c-0.3,0-0.4-0.1-0.5-0.3c-0.1-0.9-0.8-1.4-2-1.4c-1.3,0-2,0.6-2,1.7v3.5c0,0.6,0.2,1,0.5,1.3
				c0.3,0.3,0.8,0.4,1.5,0.4c0.6,0,1.1-0.1,1.5-0.4c0.3-0.3,0.5-0.7,0.5-1.3v-1.4h-1.9c-0.1,0-0.2,0-0.2-0.1
				c-0.1-0.1-0.1-0.1-0.1-0.2c0-0.1,0-0.2,0.1-0.2c0.1-0.1,0.1-0.1,0.2-0.1h2.4c0.2,0,0.3,0.1,0.3,0.3v1.7c0,0.8-0.3,1.5-0.8,1.9
				c-0.5,0.4-1.2,0.6-2.1,0.6c-0.9,0-1.6-0.2-2.1-0.6C418,271.5,417.8,270.9,417.8,270.1z"/>
		</g>
	</g>
	<path class="st7" d="M521.7,242.5l-3-0.3c-0.1,0,0.1,0,0,0c-0.6,0-1.3,0.6-1.5,1.2c-1.4,4.8-2.3,6.7-4.4,10.3
		c-2.4,4-5.3,7.3-8.8,10.2c-2.1,1.7-4.4,3.1-6.8,4.3c-3.2,1.6-6.5,2.8-10,3.9c-1.3,0.4-2.7,0.8-4,1.1c-0.7,0.2-1.3,0.3-2,0.5
		c-0.3,0.1-4.1,1-4.7,1.2c-0.4,0.1-0.8,0.2-1.3,0.1c-0.4-0.1-0.8-0.3-0.9-0.7c-0.1-0.2-0.1-0.5,0-0.7c0.1-0.5,0-1,1.1-1.3
		c0.1,0.6-0.1,1.4,0.2,1.3c0,0,0.1,0,0.1,0c5.1-1,9.7-2.3,13.7-4c0.2-0.1,0.3-0.1,0.5-0.2c4.1-1.7,7.6-3.8,10.6-6.2
		c3.6-2.9,6.6-6.3,9-10.4c2.2-3.6,3.9-7.7,5.4-12.6c0.1-0.3,0.4-0.5,0.7-0.5c0,0,0.1,0,0.1,0s0,0,0,0l3,0.4c0.6,0.1,1.3-0.2,1.7-0.7
		c0.4-0.5,0.5-1.2,0.2-1.8l-4.8-10l0.1,0h-1.2l-0.8-1.6l-0.1-1.8l1.6,0.3c0.8,0.1,1.5,0.6,1.9,1.3l0.2,0.4l0.1,0.2l0,0l0.4,0.9
		l5.7,11.7C524.7,241,523.2,242.5,521.7,242.5z"/>
	<linearGradient id="SVGID_1_" gradientUnits="userSpaceOnUse" x1="464.9958" y1="259.002" x2="519.0806" y2="219.2789">
		<stop  offset="0" style="stop-color:#D0BB84"/>
		<stop  offset="2.845970e-02" style="stop-color:#C7AB68"/>
		<stop  offset="5.452946e-02" style="stop-color:#C1A055"/>
		<stop  offset="7.272730e-02" style="stop-color:#BF9C4E"/>
		<stop  offset="0.147" style="stop-color:#CFB878"/>
		<stop  offset="0.1514" style="stop-color:#A08454"/>
		<stop  offset="0.1556" style="stop-color:#795936"/>
		<stop  offset="0.1595" style="stop-color:#5C3A20"/>
		<stop  offset="0.1627" style="stop-color:#4B2713"/>
		<stop  offset="0.165" style="stop-color:#45200E"/>
		<stop  offset="0.2073" style="stop-color:#45200E"/>
		<stop  offset="0.2365" style="stop-color:#45200E"/>
		<stop  offset="0.3212" style="stop-color:#A36B17"/>
		<stop  offset="0.3636" style="stop-color:#A36B17"/>
		<stop  offset="0.3939" style="stop-color:#F0C757"/>
		<stop  offset="0.4242" style="stop-color:#F3EFE4"/>
		<stop  offset="0.4909" style="stop-color:#F3EFE4"/>
		<stop  offset="0.5273" style="stop-color:#F3EFE4"/>
		<stop  offset="0.5576" style="stop-color:#F0C757"/>
		<stop  offset="0.5879" style="stop-color:#A16A11"/>
		<stop  offset="0.6485" style="stop-color:#A16A11"/>
		<stop  offset="0.6523" style="stop-color:#A26B12"/>
		<stop  offset="0.7206" style="stop-color:#AF7819"/>
		<stop  offset="0.7818" style="stop-color:#B37D1C"/>
		<stop  offset="0.7859" style="stop-color:#BA8A2E"/>
		<stop  offset="0.7935" style="stop-color:#C49E4A"/>
		<stop  offset="0.8017" style="stop-color:#CBAD60"/>
		<stop  offset="0.8107" style="stop-color:#D1B86F"/>
		<stop  offset="0.8212" style="stop-color:#D4BE78"/>
		<stop  offset="0.8364" style="stop-color:#D5C07B"/>
		<stop  offset="0.8727" style="stop-color:#D5C07B"/>
		<stop  offset="0.903" style="stop-color:#B79A49"/>
		<stop  offset="0.9333" style="stop-color:#B79A49"/>
		<stop  offset="1" style="stop-color:#CBAC66"/>
	</linearGradient>
	<path class="st8" d="M532.5,214.9L532.5,214.9c0,7.4-6,13.4-13.4,13.4h-9.4c-1.1,0-2,0.9-2,2v32.6c0,8.4-6.8,15.3-15.3,15.3h0
		c-1.1,0-2-0.9-2-2v-45.9c0-1.1-0.9-2-2-2h-18.2c-2.7,0-4.9-2.2-4.9-4.9v-3c0-5.1,4.2-9.3,9.3-9.3h54
		C530.8,211.1,532.5,212.8,532.5,214.9z"/>
	<g>
		<path class="st9" d="M520.1,237.7c0.4,0.8-0.3,1.7-1.1,1.6l-3-0.4c-0.1,0-0.1,0-0.2,0c-0.6,0-1.2,0.4-1.4,1
			c-1.4,4.8-3.2,8.9-5.3,12.5c-2.4,4-5.3,7.3-8.8,10.2c-6,4.8-14.1,8.2-24.6,10.3c1.3-0.5,2.7-1,4.2-1.7c5.6-2.5,13.6-7.1,19.5-14.8
			c4-5.3,6.6-11.4,7.7-18.2c0.1-0.8-0.4-1.5-1.1-1.6l-4.6-1l12.6-10.8L520.1,237.7z"/>
		<path d="M520.7,237.4l-4.8-10l-1.5-3.1c-0.1-0.2-0.3-0.3-0.5-0.4c-0.2,0-0.4,0-0.6,0.1L500.8,235c-0.2,0.2-0.3,0.4-0.2,0.7
			c0.1,0.2,0.3,0.4,0.5,0.5l4.6,1c0.4,0.1,0.7,0.5,0.6,0.9c-1.1,6.7-3.6,12.7-7.6,17.9c-5.8,7.6-13.7,12.2-19.2,14.6
			c-1.3,0.6-2.7,1.1-4.1,1.6c-0.1,0-0.1,0.1-0.2,0.1c0,0,0,0,0,0c-0.2,0.2-0.3,0.4-0.2,0.7c0.1,0.3,0.4,0.5,0.6,0.5c0,0,0.1,0,0.1,0
			c5.1-1,9.7-2.3,13.7-4c0.2-0.1,0.3-0.1,0.5-0.2c4.1-1.7,7.6-3.8,10.6-6.2c3.6-2.9,6.6-6.3,9-10.4c2.2-3.6,3.9-7.7,5.4-12.6
			c0.1-0.3,0.4-0.5,0.7-0.5c0,0,0.1,0,0.1,0s0,0,0,0l3,0.4c0.6,0.1,1.3-0.2,1.7-0.7C520.9,238.7,521,238,520.7,237.4z M519.4,238.5
			c0,0.1-0.2,0.2-0.4,0.2l-3-0.4c-0.1,0-0.2,0-0.3,0c-0.9,0-1.8,0.6-2,1.5c-1.4,4.8-3.1,8.8-5.3,12.3c-2.4,3.9-5.2,7.2-8.7,10
			c-0.8,0.6-1.6,1.2-2.4,1.8c-3.9,2.7-8.6,4.8-14.1,6.5c5.3-2.7,11.6-7,16.6-13.5c4.1-5.4,6.7-11.6,7.8-18.5c0-0.3,0-0.6,0-0.8
			c-0.2-0.7-0.7-1.3-1.5-1.5c0,0-0.1,0-0.1,0l-3.3-0.7l10.9-9.4l1.3,2.6l4.6,9.6C519.6,238.2,519.5,238.4,519.4,238.5z"/>
	</g>
	<g>
		<path d="M560.4,231.2c0.2,0.1,0.2,0.3,0.2,0.5c0,0.2-0.1,0.4-0.2,0.5c-0.1,0.1-0.3,0.2-0.6,0.2h-8.7v25.1c0,0.2-0.1,0.4-0.2,0.5
			c-0.2,0.2-0.3,0.2-0.5,0.2c-0.2,0-0.4-0.1-0.6-0.2c-0.1-0.2-0.2-0.3-0.2-0.5v-25.1h-8.7c-0.2,0-0.4-0.1-0.5-0.2
			c-0.2-0.1-0.2-0.3-0.2-0.5c0-0.2,0.1-0.4,0.2-0.5c0.2-0.1,0.3-0.2,0.5-0.2h19C560,231,560.2,231.1,560.4,231.2z"/>
		<path d="M587.6,237.3c-1.1-2.1-2.6-3.8-4.6-5c-2-1.2-4.2-1.8-6.8-1.8c-2.5,0-4.8,0.6-6.8,1.8c-2,1.2-3.5,2.8-4.6,5
			c-1.1,2.1-1.7,4.6-1.7,7.3c0,2.7,0.5,5.2,1.7,7.3c1.1,2.1,2.6,3.8,4.6,5c2,1.2,4.2,1.8,6.8,1.8c2.5,0,4.8-0.6,6.8-1.8
			c2-1.2,3.5-2.8,4.6-5c1.1-2.1,1.7-4.6,1.7-7.3C589.2,241.9,588.7,239.5,587.6,237.3z M586.1,251.2c-1,1.9-2.3,3.4-4,4.4
			c-1.7,1-3.7,1.6-5.9,1.6c-2.2,0-4.2-0.5-5.9-1.6c-1.7-1-3.1-2.5-4-4.4c-1-1.9-1.4-4.1-1.4-6.5c0-2.5,0.5-4.6,1.4-6.5
			c1-1.9,2.3-3.4,4-4.4s3.7-1.6,5.9-1.6c2.2,0,4.2,0.5,5.9,1.6c1.7,1,3.1,2.5,4,4.4c1,1.9,1.4,4.1,1.4,6.5
			C587.6,247.1,587.1,249.3,586.1,251.2z"/>
		<path d="M616.1,237.8c-0.8-2.1-2.1-3.7-3.8-5c-1.7-1.3-3.8-1.9-6.3-1.9h-10.2c-0.2,0-0.4,0.1-0.5,0.2c-0.2,0.2-0.2,0.3-0.2,0.5
			v25.8c0,0.2,0.1,0.4,0.2,0.5c0.2,0.2,0.3,0.2,0.5,0.2H606c2.5,0,4.6-0.6,6.3-1.8c1.7-1.2,2.9-2.8,3.8-4.9s1.2-4.4,1.2-7
			C617.4,242.2,616.9,239.9,616.1,237.8z M613.2,253.4c-1.7,2.2-4.2,3.3-7.6,3.3h-8.9v-24.2h8.9c2.3,0,4.2,0.5,5.7,1.6
			c1.5,1.1,2.6,2.6,3.3,4.4c0.7,1.8,1.1,3.9,1.1,6.1C615.7,248.3,614.9,251.2,613.2,253.4z"/>
		<path d="M645.7,237.3c-1.1-2.1-2.6-3.8-4.6-5c-2-1.2-4.2-1.8-6.8-1.8c-2.5,0-4.8,0.6-6.8,1.8c-2,1.2-3.5,2.8-4.6,5
			c-1.1,2.1-1.7,4.6-1.7,7.3c0,2.7,0.5,5.2,1.7,7.3c1.1,2.1,2.6,3.8,4.6,5c2,1.2,4.2,1.8,6.8,1.8c2.5,0,4.8-0.6,6.8-1.8
			c2-1.2,3.5-2.8,4.6-5c1.1-2.1,1.7-4.6,1.7-7.3C647.4,241.9,646.8,239.5,645.7,237.3z M644.3,251.2c-1,1.9-2.3,3.4-4,4.4
			c-1.7,1-3.7,1.6-5.9,1.6c-2.2,0-4.2-0.5-5.9-1.6c-1.7-1-3.1-2.5-4-4.4c-1-1.9-1.4-4.1-1.4-6.5c0-2.5,0.5-4.6,1.4-6.5
			c1-1.9,2.3-3.4,4-4.4c1.7-1,3.7-1.6,5.9-1.6c2.2,0,4.2,0.5,5.9,1.6c1.7,1,3.1,2.5,4,4.4c1,1.9,1.4,4.1,1.4,6.5
			C645.7,247.1,645.2,249.3,644.3,251.2z"/>
	</g>
	<g>
		<path class="st10" d="M549,264.9c-0.1-0.1-0.2-0.2-0.2-0.4v-0.1c0-0.2,0.1-0.3,0.2-0.4c0.1-0.1,0.3-0.1,0.4-0.1
			c0.4,0,0.6,0.2,0.6,0.5v0.1c0,0.2,0,0.3-0.1,0.4c-0.1,0.1-0.2,0.1-0.4,0.1C549.2,265,549.1,265,549,264.9z M549.7,273.2
			c-0.1,0.1-0.2,0.1-0.3,0.1c-0.1,0-0.2,0-0.3-0.1c-0.1-0.1-0.1-0.2-0.1-0.3v-6.5c0-0.1,0-0.2,0.1-0.3c0.1-0.1,0.2-0.1,0.3-0.1
			c0.1,0,0.2,0,0.3,0.1c0.1,0.1,0.1,0.2,0.1,0.3v6.5C549.8,273,549.8,273.1,549.7,273.2z"/>
		<path class="st10" d="M560.1,266.7c0.4,0.5,0.6,1.2,0.6,2v4.1c0,0.1,0,0.2-0.1,0.3c-0.1,0.1-0.2,0.1-0.3,0.1c-0.1,0-0.2,0-0.3-0.1
			c-0.1-0.1-0.1-0.2-0.1-0.3v-4.1c0-0.6-0.2-1.1-0.5-1.5c-0.3-0.4-0.8-0.6-1.4-0.6c-0.4,0-0.8,0.1-1.2,0.3c-0.4,0.2-0.7,0.4-0.9,0.8
			c-0.2,0.3-0.3,0.7-0.3,1v4.1c0,0.1,0,0.2-0.1,0.3c-0.1,0.1-0.2,0.1-0.3,0.1c-0.1,0-0.2,0-0.3-0.1c-0.1-0.1-0.1-0.2-0.1-0.3v-6.3
			c0-0.1,0-0.2,0.1-0.3c0.1-0.1,0.2-0.1,0.3-0.1c0.1,0,0.2,0,0.3,0.1c0.1,0.1,0.1,0.2,0.1,0.3v0.8c0.3-0.4,0.6-0.7,1.1-1
			c0.5-0.3,1-0.4,1.5-0.4C559,265.9,559.6,266.2,560.1,266.7z"/>
		<path class="st10" d="M571.2,266.1c0.1,0.1,0.1,0.2,0.1,0.3c0,0.1,0,0.2-0.1,0.2l-2.8,6.5c0,0.1-0.1,0.1-0.2,0.2
			c-0.1,0.1-0.1,0.1-0.2,0.1c-0.1,0-0.2,0-0.3-0.1c-0.1,0-0.1-0.1-0.2-0.2l-2.8-6.5c0,0,0,0,0-0.1c0,0,0-0.1,0-0.1
			c0-0.1,0-0.2,0.1-0.3c0.1-0.1,0.2-0.1,0.3-0.1c0.1,0,0.2,0,0.2,0.1c0.1,0.1,0.1,0.1,0.2,0.2l2.4,5.7l2.4-5.7
			c0-0.1,0.1-0.2,0.2-0.2c0.1-0.1,0.2-0.1,0.2-0.1C571.1,266,571.2,266,571.2,266.1z"/>
		<path class="st10" d="M581.6,269.6c-0.1,0.1-0.2,0.1-0.3,0.1H576c0,0.6,0.1,1.1,0.3,1.5c0.2,0.4,0.6,0.8,1,1.1
			c0.4,0.3,0.9,0.4,1.5,0.4c0.5,0,0.9-0.1,1.2-0.3c0.4-0.2,0.6-0.4,0.9-0.7c0.1-0.1,0.2-0.1,0.3-0.1c0.1,0,0.2,0,0.3,0.1
			c0.1,0.1,0.1,0.2,0.1,0.3c0,0.1,0,0.2-0.1,0.3c-0.3,0.4-0.7,0.7-1.1,0.9c-0.5,0.2-0.9,0.4-1.5,0.4c-0.7,0-1.4-0.2-1.9-0.5
			c-0.6-0.3-1-0.7-1.3-1.3c-0.3-0.6-0.5-1.2-0.5-1.9c0-0.8,0.2-1.4,0.5-2c0.3-0.6,0.7-1,1.2-1.3c0.5-0.3,1.1-0.5,1.6-0.5
			c0.6,0,1.1,0.1,1.6,0.4c0.5,0.3,0.9,0.6,1.2,1.2c0.3,0.5,0.5,1.1,0.5,1.8C581.7,269.4,581.7,269.5,581.6,269.6z M576.9,267.3
			c-0.5,0.4-0.8,0.9-0.9,1.6h4.8v-0.1c0-0.4-0.2-0.8-0.4-1.1c-0.2-0.3-0.5-0.6-0.9-0.7c-0.4-0.2-0.7-0.2-1.1-0.2
			C577.9,266.8,577.4,266.9,576.9,267.3z"/>
		<path class="st10" d="M590.1,266.1c0.2,0.1,0.2,0.2,0.2,0.3c0,0.1,0,0.2-0.1,0.3c-0.1,0.1-0.2,0.1-0.3,0.1c0,0-0.1,0-0.3-0.1
			c-0.1,0-0.3-0.1-0.4-0.1c-0.3,0-0.7,0.1-1,0.4c-0.3,0.3-0.6,0.6-0.8,1c-0.2,0.4-0.3,0.9-0.3,1.3v3.5c0,0.1,0,0.2-0.1,0.3
			c-0.1,0.1-0.2,0.1-0.3,0.1s-0.2,0-0.3-0.1c-0.1-0.1-0.1-0.2-0.1-0.3v-6.3c0-0.1,0-0.2,0.1-0.3c0.1-0.1,0.2-0.1,0.3-0.1
			s0.2,0,0.3,0.1c0.1,0.1,0.1,0.2,0.1,0.3v1.2c0.2-0.5,0.5-1,1-1.3c0.4-0.4,1-0.5,1.5-0.5C589.8,265.9,589.9,266,590.1,266.1z"/>
		<path class="st10" d="M593.8,271.9c0-0.1,0.1-0.2,0.2-0.3c0.1-0.1,0.1-0.1,0.2-0.1c0.1,0,0.2,0,0.3,0.1c0.6,0.7,1.3,1.1,2.2,1.1
			c0.5,0,0.8-0.1,1.2-0.3c0.3-0.2,0.5-0.5,0.5-0.9c0-0.4-0.2-0.7-0.5-0.9c-0.3-0.2-0.7-0.4-1.3-0.5c-0.8-0.2-1.4-0.5-1.8-0.8
			c-0.4-0.3-0.7-0.8-0.7-1.4c0-0.4,0.1-0.7,0.3-1c0.2-0.3,0.5-0.5,0.9-0.7c0.4-0.2,0.8-0.3,1.3-0.3c0.4,0,0.8,0.1,1.2,0.2
			c0.4,0.2,0.8,0.4,1.1,0.7c0.1,0.1,0.1,0.2,0.1,0.3c0,0.1,0,0.2-0.1,0.3c-0.1,0.1-0.2,0.1-0.3,0.1c-0.1,0-0.2,0-0.3-0.1
			c-0.2-0.3-0.5-0.4-0.8-0.6c-0.3-0.1-0.6-0.2-1-0.2c-0.4,0-0.8,0.1-1.1,0.3c-0.3,0.2-0.5,0.5-0.5,0.9c0,0.4,0.2,0.7,0.5,0.9
			c0.3,0.2,0.8,0.4,1.4,0.5c0.5,0.1,0.9,0.3,1.2,0.4c0.3,0.2,0.6,0.4,0.8,0.6c0.2,0.3,0.3,0.6,0.3,1.1c0,0.6-0.2,1.1-0.7,1.5
			c-0.5,0.4-1.1,0.5-1.8,0.5c-1.2,0-2.1-0.4-2.7-1.3C593.8,272,593.8,271.9,593.8,271.9z"/>
		<path class="st10" d="M603.6,264.9c-0.1-0.1-0.2-0.2-0.2-0.4v-0.1c0-0.2,0.1-0.3,0.2-0.4c0.1-0.1,0.3-0.1,0.4-0.1
			c0.4,0,0.6,0.2,0.6,0.5v0.1c0,0.2,0,0.3-0.1,0.4c-0.1,0.1-0.2,0.1-0.4,0.1C603.9,265,603.7,265,603.6,264.9z M604.3,273.2
			c-0.1,0.1-0.2,0.1-0.3,0.1s-0.2,0-0.3-0.1c-0.1-0.1-0.1-0.2-0.1-0.3v-6.5c0-0.1,0-0.2,0.1-0.3c0.1-0.1,0.2-0.1,0.3-0.1
			s0.2,0,0.3,0.1c0.1,0.1,0.1,0.2,0.1,0.3v6.5C604.5,273,604.4,273.1,604.3,273.2z"/>
		<path class="st10" d="M615.6,271.6c-0.3,0.6-0.7,1-1.3,1.3c-0.5,0.3-1.2,0.5-1.8,0.5c-0.7,0-1.3-0.2-1.8-0.5
			c-0.5-0.3-1-0.8-1.3-1.3c-0.3-0.6-0.5-1.2-0.5-1.9s0.2-1.3,0.5-1.9c0.3-0.6,0.7-1,1.3-1.4c0.5-0.3,1.2-0.5,1.8-0.5
			c0.7,0,1.3,0.2,1.8,0.5c0.5,0.3,1,0.8,1.3,1.4c0.3,0.6,0.5,1.2,0.5,1.9S615.9,271,615.6,271.6z M614.8,268.2
			c-0.2-0.5-0.6-0.8-1-1.1c-0.4-0.3-0.9-0.4-1.4-0.4c-0.5,0-1,0.1-1.4,0.4c-0.4,0.3-0.7,0.6-1,1.1c-0.2,0.5-0.4,1-0.4,1.5
			c0,0.6,0.1,1.1,0.4,1.5c0.2,0.5,0.6,0.8,1,1.1c0.4,0.3,0.9,0.4,1.4,0.4c0.5,0,1-0.1,1.4-0.4c0.4-0.3,0.7-0.6,1-1.1
			c0.2-0.5,0.4-1,0.4-1.5S615.1,268.6,614.8,268.2z"/>
		<path class="st10" d="M625.8,266.7c0.4,0.5,0.6,1.2,0.6,2v4.1c0,0.1,0,0.2-0.1,0.3c-0.1,0.1-0.2,0.1-0.3,0.1c-0.1,0-0.2,0-0.3-0.1
			c-0.1-0.1-0.1-0.2-0.1-0.3v-4.1c0-0.6-0.2-1.1-0.5-1.5c-0.3-0.4-0.8-0.6-1.4-0.6c-0.4,0-0.8,0.1-1.2,0.3c-0.4,0.2-0.7,0.4-0.9,0.8
			c-0.2,0.3-0.3,0.7-0.3,1v4.1c0,0.1,0,0.2-0.1,0.3c-0.1,0.1-0.2,0.1-0.3,0.1c-0.1,0-0.2,0-0.3-0.1c-0.1-0.1-0.1-0.2-0.1-0.3v-6.3
			c0-0.1,0-0.2,0.1-0.3c0.1-0.1,0.2-0.1,0.3-0.1c0.1,0,0.2,0,0.3,0.1c0.1,0.1,0.1,0.2,0.1,0.3v0.8c0.3-0.4,0.6-0.7,1.1-1
			c0.5-0.3,1-0.4,1.5-0.4C624.8,265.9,625.4,266.2,625.8,266.7z"/>
		<path class="st10" d="M637.3,269.6c-0.1,0.1-0.2,0.1-0.3,0.1h-5.3c0,0.6,0.1,1.1,0.3,1.5c0.2,0.4,0.6,0.8,1,1.1
			c0.4,0.3,0.9,0.4,1.5,0.4c0.5,0,0.9-0.1,1.2-0.3c0.4-0.2,0.6-0.4,0.9-0.7c0.1-0.1,0.2-0.1,0.3-0.1c0.1,0,0.2,0,0.3,0.1
			c0.1,0.1,0.1,0.2,0.1,0.3c0,0.1,0,0.2-0.1,0.3c-0.3,0.4-0.7,0.7-1.1,0.9c-0.5,0.2-0.9,0.4-1.5,0.4c-0.7,0-1.4-0.2-1.9-0.5
			c-0.6-0.3-1-0.7-1.3-1.3c-0.3-0.6-0.5-1.2-0.5-1.9c0-0.8,0.2-1.4,0.5-2c0.3-0.6,0.7-1,1.2-1.3c0.5-0.3,1.1-0.5,1.6-0.5
			c0.6,0,1.1,0.1,1.6,0.4c0.5,0.3,0.9,0.6,1.2,1.2c0.3,0.5,0.5,1.1,0.5,1.8C637.5,269.4,637.4,269.5,637.3,269.6z M632.7,267.3
			c-0.5,0.4-0.8,0.9-0.9,1.6h4.8v-0.1c0-0.4-0.2-0.8-0.4-1.1c-0.2-0.3-0.5-0.6-0.9-0.7c-0.4-0.2-0.7-0.2-1.1-0.2
			C633.6,266.8,633.1,266.9,632.7,267.3z"/>
		<path class="st10" d="M641.4,271.9c0-0.1,0.1-0.2,0.2-0.3c0.1-0.1,0.1-0.1,0.2-0.1c0.1,0,0.2,0,0.3,0.1c0.6,0.7,1.3,1.1,2.2,1.1
			c0.5,0,0.8-0.1,1.2-0.3c0.3-0.2,0.5-0.5,0.5-0.9c0-0.4-0.2-0.7-0.5-0.9c-0.3-0.2-0.7-0.4-1.3-0.5c-0.8-0.2-1.4-0.5-1.8-0.8
			c-0.4-0.3-0.7-0.8-0.7-1.4c0-0.4,0.1-0.7,0.3-1c0.2-0.3,0.5-0.5,0.9-0.7c0.4-0.2,0.8-0.3,1.3-0.3c0.4,0,0.8,0.1,1.2,0.2
			c0.4,0.2,0.8,0.4,1.1,0.7c0.1,0.1,0.1,0.2,0.1,0.3c0,0.1,0,0.2-0.1,0.3c-0.1,0.1-0.2,0.1-0.3,0.1c-0.1,0-0.2,0-0.3-0.1
			c-0.2-0.3-0.5-0.4-0.8-0.6c-0.3-0.1-0.6-0.2-1-0.2c-0.4,0-0.8,0.1-1.1,0.3c-0.3,0.2-0.5,0.5-0.5,0.9c0,0.4,0.2,0.7,0.5,0.9
			c0.3,0.2,0.8,0.4,1.4,0.5c0.5,0.1,0.9,0.3,1.2,0.4c0.3,0.2,0.6,0.4,0.8,0.6c0.2,0.3,0.3,0.6,0.3,1.1c0,0.6-0.2,1.1-0.7,1.5
			c-0.5,0.4-1.1,0.5-1.8,0.5c-1.2,0-2.1-0.4-2.7-1.3C641.4,272,641.4,271.9,641.4,271.9z"/>
	</g>
</g>
</svg>
